<?xml version="1.0" encoding="utf-8"?>
<!-- Generator: Adobe Illustrator 16.0.0, SVG Export Plug-In . SVG Version: 6.00 Build 0)  -->
<!DOCTYPE svg PUBLIC "-//W3C//DTD SVG 1.0//EN" "http://www.w3.org/TR/2001/REC-SVG-20010904/DTD/svg10.dtd">
<svg version="1.0" id="Layer_1" xmlns="http://www.w3.org/2000/svg" xmlns:xlink="http://www.w3.org/1999/xlink" x="0px" y="0px"
	 width="30px" height="30px" viewBox="0 0 30 30" enable-background="new 0 0 30 30" xml:space="preserve">
<path id="Twitter__x28_alt_x29__5_" fill="#FFFFFF" d="M63.957,14.103c1.32-0.109,2.219-0.71,2.563-1.525
	c-0.479,0.293-1.959,0.611-2.776,0.307c-0.039-0.191-0.084-0.373-0.128-0.538c-0.622-2.288-2.756-4.132-4.991-3.908
	c0.182-0.073,0.364-0.141,0.548-0.202c0.245-0.088,1.689-0.323,1.462-0.832c-0.192-0.448-1.956,0.339-2.287,0.441
	c0.437-0.164,1.162-0.449,1.241-0.953c-0.673,0.092-1.332,0.41-1.842,0.873c0.184-0.198,0.323-0.44,0.354-0.7
	c-1.791,1.146-2.838,3.45-3.684,5.688c-0.665-0.643-1.254-1.151-1.783-1.434c-1.483-0.795-3.256-1.625-6.04-2.657
	c-0.085,0.921,0.456,2.145,2.015,2.96c-0.339-0.046-0.955,0.056-1.449,0.173c0.201,1.056,0.856,1.926,2.637,2.345
	c-0.813,0.055-1.233,0.238-1.613,0.637c0.37,0.733,1.272,1.599,2.897,1.421c-1.807,0.777-0.736,2.221,0.733,2.006
	c-2.507,2.588-6.461,2.398-8.732,0.234c5.93,8.076,18.813,4.775,20.733-3.005c1.438,0.013,2.283-0.498,2.808-1.062
	C65.794,14.513,64.594,14.366,63.957,14.103z"/>
<path id="Facebook_5_" fill="#FFFFFF" d="M12.704,10.034c0,0.408,0,2.232,0,2.232h-1.637v2.73h1.637v8.112h3.36v-8.112h2.253
	c0,0,0.213-1.31,0.313-2.741c-0.293,0-2.554,0-2.554,0s0-1.589,0-1.867s0.365-0.654,0.729-0.654c0.36,0,1.124,0,1.83,0
	c0-0.372,0-1.656,0-2.843c-0.945,0-2.016,0-2.489,0C12.62,6.892,12.704,9.625,12.704,10.034z"/>
<path fill-rule="evenodd" clip-rule="evenodd" fill="#FFFFFF" d="M88.825,6.892h12.053c1.146,0,2.082,0.937,2.082,2.081v12.055
	c0,1.145-0.937,2.082-2.082,2.082H88.825c-1.145,0-2.082-0.938-2.082-2.082V8.973C86.743,7.828,87.681,6.892,88.825,6.892
	L88.825,6.892z M98.557,8.694c-0.401,0-0.73,0.328-0.73,0.729v1.747c0,0.402,0.329,0.73,0.73,0.73h1.833
	c0.401,0,0.729-0.328,0.729-0.73V9.424c0-0.401-0.328-0.729-0.729-0.729H98.557L98.557,8.694z M101.127,13.749H99.7
	c0.134,0.441,0.207,0.909,0.207,1.392c0,2.697-2.257,4.885-5.04,4.885s-5.04-2.188-5.04-4.885c0-0.482,0.072-0.95,0.207-1.392
	h-1.489V20.6c0,0.355,0.291,0.645,0.646,0.645h11.292c0.354,0,0.645-0.289,0.645-0.645V13.749L101.127,13.749z M94.867,11.81
	c-1.799,0-3.257,1.412-3.257,3.155c0,1.742,1.458,3.156,3.257,3.156s3.257-1.414,3.257-3.156
	C98.124,13.222,96.666,11.81,94.867,11.81z"/>
<path fill="#FFFFFF" d="M135.511,4.798c-6.334,0-9.528,4.541-9.528,8.329c0,2.293,0.868,4.334,2.731,5.094
	c0.305,0.125,0.578,0.004,0.667-0.334c0.062-0.234,0.208-0.824,0.272-1.07c0.089-0.334,0.054-0.451-0.191-0.742
	c-0.537-0.634-0.881-1.454-0.881-2.615c0-3.37,2.521-6.387,6.564-6.387c3.58,0,5.547,2.188,5.547,5.11
	c0,3.845-1.7,7.089-4.227,7.089c-1.395,0-2.438-1.152-2.104-2.568c0.4-1.688,1.177-3.512,1.177-4.731
	c0-1.091-0.584-2.001-1.798-2.001c-1.425,0-2.571,1.476-2.571,3.45c0,1.26,0.426,2.109,0.426,2.109s-1.46,6.183-1.715,7.267
	c-0.51,2.154-0.076,4.801-0.04,5.066c0.021,0.158,0.226,0.195,0.317,0.076c0.131-0.172,1.829-2.268,2.407-4.361
	c0.163-0.594,0.938-3.666,0.938-3.666c0.462,0.883,1.816,1.662,3.257,1.662c4.285,0,7.193-3.908,7.193-9.138
	C143.952,8.48,140.603,4.798,135.511,4.798z"/>
<path id="RSS_5_" fill="#FFFFFF" d="M170.421,19.428c0.391,0.393,0.632,0.926,0.632,1.518s-0.241,1.123-0.632,1.514v0.002
	c-0.395,0.391-0.93,0.629-1.523,0.629c-0.596,0-1.13-0.238-1.522-0.631c-0.391-0.391-0.632-0.922-0.632-1.514
	s0.241-1.125,0.632-1.518l0,0c0.393-0.391,0.927-0.631,1.522-0.631C169.491,18.797,170.026,19.037,170.421,19.428z M170.421,19.428
	L170.421,19.428L170.421,19.428L170.421,19.428z M167.375,22.461v-0.002l0,0V22.461z M166.745,12.406v3.098
	c2.022,0,3.934,0.795,5.363,2.229c1.432,1.428,2.224,3.344,2.226,5.371h0.001v0.006h3.109c-0.002-2.949-1.201-5.621-3.14-7.562
	C172.365,13.608,169.695,12.409,166.745,12.406z M166.751,6.892v3.096c7.227,0.006,13.1,5.89,13.104,13.122h3.104
	c-0.002-4.469-1.818-8.521-4.756-11.459C175.268,8.713,171.221,6.894,166.751,6.892z"/>
<path fill="#FFFFFF" d="M207.269,19.33c0,0.521,0.138,0.943,0.415,1.264c0.274,0.32,0.673,0.48,1.196,0.48
	c0.477,0,0.856-0.119,1.14-0.357s0.426-0.596,0.426-1.074c0-0.389-0.11-0.684-0.335-0.885c-0.223-0.201-0.485-0.359-0.783-0.479
	l-2.169-0.785c-0.851-0.297-1.492-0.719-1.925-1.264c-0.434-0.545-0.648-1.241-0.648-2.092c0-0.491,0.082-0.956,0.245-1.397
	c0.165-0.439,0.425-0.824,0.784-1.15c0.359-0.328,0.816-0.59,1.374-0.784c0.561-0.193,1.233-0.292,2.025-0.292
	c1.401,0,2.438,0.3,3.11,0.896c0.669,0.597,1.007,1.439,1.007,2.527v0.492h-2.775c0-0.625-0.1-1.085-0.303-1.376
	c-0.198-0.29-0.554-0.436-1.061-0.436c-0.388,0-0.727,0.107-1.019,0.324c-0.29,0.216-0.436,0.542-0.436,0.975
	c0,0.298,0.092,0.565,0.278,0.805c0.188,0.238,0.54,0.439,1.063,0.604l1.855,0.628c0.969,0.326,1.655,0.756,2.058,1.285
	c0.405,0.529,0.603,1.25,0.603,2.158c0,0.643-0.109,1.197-0.331,1.666c-0.226,0.471-0.535,0.861-0.931,1.176
	c-0.395,0.312-0.865,0.537-1.409,0.67c-0.544,0.135-1.144,0.201-1.801,0.201c-0.866,0-1.584-0.082-2.158-0.246
	c-0.575-0.164-1.028-0.408-1.365-0.738c-0.334-0.328-0.57-0.727-0.703-1.197c-0.137-0.469-0.201-0.994-0.201-1.576v-0.426h2.772
	V19.33z"/>
<path fill="#FFFFFF" d="M218.139,15.325h0.046l3.108-4.496h3.4l-3.467,4.741l3.981,7.293h-3.398l-2.572-4.943l-1.099,1.432v3.512
	h-3.085V6.892h3.085V15.325z"/>
<path fill="#FFFFFF" stroke="#FFFFFF" stroke-miterlimit="10" d="M259.365,14.923h-0.046c-0.475,2.063-2.586,3.267-4.581,3.267
	c-3.242,0-4.854-2.588-4.854-5.582c0-3.13,1.729-5.716,5.013-5.716c2.225,0,3.973,1.477,4.423,3.381h0.046V7.164h0.454v11.273
	c0,3.174-1.816,4.672-4.856,4.672c-2.356,0-4.377-1.064-4.445-3.674h0.456c0.091,2.312,1.859,3.221,3.967,3.221
	c2.814,0,4.425-1.338,4.425-4.219V14.923z M254.896,7.347c-3.017,0-4.56,2.426-4.56,5.261c0,2.88,1.543,5.129,4.377,5.129
	c2.995,0,4.629-2.318,4.629-5.129C259.365,9.929,257.824,7.347,254.896,7.347z"/>
<g>
</g>
<g>
</g>
<g>
</g>
<g>
</g>
<g>
</g>
<g>
</g>
<g>
</g>
<g>
</g>
<g>
</g>
<g>
</g>
<g>
</g>
<g>
</g>
<g>
</g>
<g>
</g>
<g>
</g>
</svg>
