<?xml version="1.0" encoding="utf-8"?>
<!-- Generator: Adobe Illustrator 16.0.0, SVG Export Plug-In . SVG Version: 6.00 Build 0)  -->
<!DOCTYPE svg PUBLIC "-//W3C//DTD SVG 1.0//EN" "http://www.w3.org/TR/2001/REC-SVG-20010904/DTD/svg10.dtd">
<svg version="1.0" id="Layer_1" xmlns="http://www.w3.org/2000/svg" xmlns:xlink="http://www.w3.org/1999/xlink" x="0px" y="0px"
	 width="230px" height="176px" viewBox="0 0 230 176" enable-background="new 0 0 230 176" xml:space="preserve">
<g>
	<g>
		<defs>
			<rect id="SVGID_1_" width="230" height="175.002"/>
		</defs>
		<clipPath id="SVGID_2_">
			<use xlink:href="#SVGID_1_"  overflow="visible"/>
		</clipPath>
		<g opacity="0.2" clip-path="url(#SVGID_2_)">
			<path fill="#333333" d="M-194.968,179.438l1.08-0.043c1.53-1.049,2.709-2.768,4.254-3.76c0.181-0.111,0.356-0.203,0.539-0.285
				c-0.19-0.182-0.376-0.379-0.539-0.588l-0.253-6.549c0.965-1.449,2.581-2.434,4.452-2.506c1.869-0.074,3.557,0.779,4.626,2.148
				l0.261,6.553c-0.22,0.332-0.483,0.641-0.764,0.918c0.096,0.127,0.173,0.27,0.219,0.445c0.622,2.416-0.053,4.619-0.913,6.879
				c-0.222,0.578-0.444,1.146-0.622,1.715l1.871-0.072c1.594-1.975,3.954-3.225,6.388-3.904c0.485-0.137,0.982-0.256,1.479-0.361
				c0.048-0.014,0.093-0.025,0.137-0.039c0-0.018,0-0.031,0.006-0.049c0.025-0.49,0.053-0.977,0.098-1.461
				c0.088-0.961,0.035-2.268,0.622-3.102c0.043-0.07,0.089-0.135,0.147-0.195c-0.412-0.305-0.785-0.664-1.1-1.07l-0.259-6.551
				c0.954-1.449,2.58-2.432,4.45-2.504c1.867-0.074,3.555,0.779,4.629,2.148l0.259,6.551c-0.242,0.357-0.513,0.678-0.818,0.971
				c0.544,0.293,1.045,0.732,1.495,1.398c0.844,1.262,1.369,2.734,2.287,3.953c0.863,1.146,2.085,2.074,2.809,3.33l8.972-0.348
				c0.011-0.232,0.036-0.469,0.02-0.762c-0.054-0.816-0.692-1.271-1.184-1.82c-0.364-0.412-0.579-0.936-0.526-1.488
				c0.042-0.42,0.352-1.301,0.186-1.682c-0.189-0.459-0.566-0.801-0.831-1.217c-0.104-0.166-0.124-0.332-0.094-0.488
				c-0.044,0.004-0.083,0.008-0.123,0.01c-1.87,0.07-3.558-0.783-4.626-2.152l-0.26-6.553c0.963-1.447,2.576-2.43,4.449-2.502
				c1.873-0.074,3.56,0.781,4.632,2.148l0.255,6.551c-0.822,1.238-2.119,2.133-3.642,2.416c-0.116,0.52,0.722,1.32,0.824,1.822
				c0.172,0.82-0.604,1.684-0.01,2.492c0.386,0.543,1.104,1.035,1.361,1.676c0.195,0.508,0.104,1.012,0.104,1.525l14.733-0.576
				c-0.117-0.34-0.216-0.688-0.231-1.037c-0.04-0.92,0.206-1.645,0.432-2.521c0.345-1.346-0.875-2.562-1.2-3.951
				c-0.056,0-0.11,0.008-0.169,0.01c-1.877,0.074-3.561-0.781-4.631-2.15l-0.259-6.551c0.962-1.449,2.577-2.432,4.449-2.506
				c1.871-0.072,3.561,0.781,4.63,2.148l0.255,6.555c-0.834,1.256-2.163,2.162-3.72,2.43c0.166,0.787,0.623,1.291,1.037,2.039
				c0.232,0.424,0.398,0.828,0.321,1.326c-0.147,0.896-0.639,1.799-0.598,2.717c0.022,0.521,0.162,0.996,0.317,1.469l5.77-0.227
				l14.223,6.893c0.336-0.588,0.692-1.303,0.507-1.365c-0.392-0.131-0.796-0.35-1.042-0.701c-0.166-0.252-0.201-0.422-0.289-0.709
				c-0.287-0.906-0.523-0.494-0.929-0.818c-0.341-0.27-0.432-0.469-0.452-0.898c-0.018-0.279,0.195-0.604,0.439-0.732
				c0.975-0.502,0.313-1.18-0.128-1.91c-0.688-1.133,0.438-2.002,0.574-2.953c-1.276,0.668-2.812,0.85-4.3,0.373
				c-1.598-0.516-2.804-1.682-3.424-3.117c-0.652,0.154-1.967,0.859-2.035,0.852c-0.662,0.299-1.252-0.168-1.986-0.316
				c-0.355-0.074-0.347-2.889,0.011-2.941c0.581-0.086,1.375,0.227,1.727-0.389c0.038-0.066,1.022-1.025,1.542-1.367l-0.254-6.5
				c0.967-1.445,2.579-2.432,4.448-2.506c1.871-0.072,3.556,0.785,4.63,2.152l0.256,6.555c-0.03,0.045-0.058,0.092-0.096,0.139
				c0.129,0.236,0.188,0.5,0.141,0.818c-0.055,0.447-0.295,1.029-0.229,1.471c0.144,0.975,0.863,0.836,1.325,1.346
				c0.244,0.283,0.739,0.795,0.586,1.23c-0.084,0.223-1.011,1.299-0.327,1.375c0.533,0.064,0.995,0.033,1.355,0.502
				c0.484,0.631,1.142,0.582,1.746,0.893c0.476,0.246,0.423,1.148,0.277,1.912l9.006-0.35c0.02-0.291,0.047-0.561,0.089-0.551
				c-0.093-0.021-0.208-0.08-0.272-0.152c-0.174-0.191-0.294-0.385-0.327-0.65c-0.108-0.721,0.533-2.787-0.228-3.195
				c-0.122-0.064-0.202-0.25-0.117-0.383c0.488-0.738-0.074-1.73-0.246-2.594c-0.163,0.02-0.321,0.033-0.482,0.041
				c-1.869,0.072-3.556-0.783-4.631-2.15l-0.257-6.555c0.964-1.447,2.582-2.43,4.448-2.502c1.875-0.074,3.559,0.781,4.628,2.148
				l0.259,6.553c-0.78,1.176-1.992,2.045-3.423,2.369c0.138,0.922,0.724,1.873,0.323,2.754c0.855,0.924-0.379,3.564,0.635,3.809
				c0.119,0.025,0.226,0.141,0.223,0.264c-0.011,0.258-0.023,0.514-0.043,0.77l15.594-0.609c0.052-0.273,0.147-0.551,0.256-0.85
				c0.401-1.041,0.232-1.732-0.48-2.576c-0.098-0.119-0.184-0.268-0.206-0.418c-0.081-0.459-0.006-0.969,0.044-1.428
				c0.021-0.16,0.295-0.867,0.213-1.031c-0.201-0.406-0.421-0.812-0.629-1.217c-0.104,0.008-0.201,0.014-0.306,0.018
				c-1.871,0.072-3.555-0.781-4.632-2.15l-0.258-6.551c0.963-1.447,2.582-2.432,4.451-2.506c1.872-0.072,3.561,0.781,4.635,2.148
				l0.25,6.553c-0.795,1.199-2.034,2.076-3.496,2.387c0.287,0.438,0.613,0.857,0.643,1.436c0.017,0.393-0.304,0.881-0.332,1.322
				c-0.043,0.629-0.103,0.922,0.353,1.402c1.057,1.127,0.313,2.262,0.083,3.439l16.517-0.646c-0.024-1.549-0.528-3.078-0.276-4.613
				c0.098-0.637-0.055-1.16-0.241-1.744c-0.082-0.258,0.062-0.848,0.151-1.305c-0.389,0.1-0.786,0.16-1.195,0.178
				c-1.875,0.072-3.562-0.779-4.635-2.15l-0.254-6.551c0.959-1.447,2.575-2.432,4.446-2.506c1.872-0.072,3.56,0.781,4.633,2.15
				l0.255,6.551c-0.631,0.955-1.553,1.703-2.641,2.127c-0.052,0.57-0.262,1.359-0.002,1.715c0.279,0.375,0.175,0.803,0.1,1.246
				c-0.265,1.639,0.19,3.244,0.221,4.881l15.643-0.613c-0.042-0.535-0.059-1.076-0.077-1.623c-0.134,0.012-0.268-0.053-0.29-0.189
				c-0.139-0.703,0.277-1.596,0.081-2.225c-0.19-0.594-0.272-1.129-0.354-1.744c-0.068-0.514-0.239-1.17-0.167-1.742
				c-0.104,0.012-0.208,0.018-0.314,0.023c-1.87,0.072-3.56-0.781-4.631-2.15l-0.254-6.553c0.958-1.447,2.573-2.432,4.448-2.504
				c1.868-0.072,3.557,0.781,4.627,2.152l0.257,6.549c-0.808,1.211-2.069,2.096-3.555,2.396c-0.202,0.619,0.134,1.854,0.212,2.367
				c0.063,0.395,0.367,0.986,0.34,1.408c-0.03,0.434-0.151,0.91-0.174,1.361c0.147-0.012,0.294,0.096,0.309,0.266
				c0.049,0.738,0.041,1.463,0.106,2.188l14.797-0.58c0.062-0.754-0.068-1.428-0.1-2.229c-0.022-0.791,0.261-1.525,0.233-2.312
				c-0.032-0.699-0.061-1.301,0.047-1.986c0.066-0.406-0.143-0.707-0.349-1.021c-1.739-0.033-3.289-0.865-4.301-2.154l-0.253-6.551
				c0.958-1.449,2.578-2.432,4.45-2.506c1.866-0.072,3.555,0.783,4.628,2.15l0.256,6.553c-0.906,1.365-2.393,2.318-4.129,2.484
				c0.193,0.262,0.352,0.523,0.298,0.887c-0.137,0.861-0.075,1.686-0.091,2.551c-0.018,0.951-0.188,1.744-0.096,2.705
				c0.047,0.486,0.045,0.947-0.009,1.408l16.304-0.639c-0.195-0.32-0.419-0.627-0.309-1.045c0.225-0.842,0.425-1.758,0.307-2.635
				c-0.137-1.006,0.089-2.361-0.402-3.275c-0.118-0.219-0.18-0.402-0.201-0.592c-1.656-0.088-3.134-0.904-4.105-2.145l-0.257-6.553
				c0.961-1.447,2.578-2.43,4.448-2.504c1.873-0.074,3.562,0.781,4.633,2.148l0.254,6.553c-0.946,1.428-2.533,2.406-4.372,2.5
				c0.101,0.449,0.383,0.836,0.405,1.334c0.033,0.832,0.154,1.682,0.17,2.512c0.011,0.615,0.06,1.32-0.079,1.924
				c-0.145,0.652,0.024,1.18,0.196,1.752l16.024-0.625c-0.08-0.576-0.254-1.119,0.271-1.572c-0.232,0.115-0.432-0.191-0.349-0.404
				c0.31-0.783,0.921-4.666-0.564-4.451c-0.158,0.021-0.293-0.133-0.294-0.275c-0.012-0.299,0-0.58,0.021-0.863
				c-1.558-0.152-2.938-0.947-3.864-2.125l-0.252-6.553c0.964-1.449,2.576-2.432,4.45-2.504c1.875-0.072,3.56,0.781,4.634,2.148
				l0.254,6.553c-0.963,1.447-2.581,2.434-4.449,2.506c-0.071,0.002-0.145,0.002-0.213,0.004c-0.021,0.176-0.03,0.354-0.028,0.529
				c1.642,0.076,1.369,3.172,0.989,4.709c0.033,0.021,0.061,0.051,0.086,0.08c0.172,0.246,0.263,0.41,0.291,0.613
				c0.003,0.004,0.012,0.008,0.015,0.012c0.351,0.477,0.507,1.092,0.918,1.518l15.274-0.598c-0.096-0.305-0.146-0.6-0.078-0.838
				c0.16-0.566,0.301-1.133-0.179-1.58c-0.152-0.139-0.21-0.463-0.192-0.656c0.06-0.797,0.04-1.406-0.604-1.998
				c-0.135-0.129-0.116-0.387-0.071-0.549c0.174-0.705,0.147-1.162-0.293-1.764c-0.033-0.047-0.057-0.102-0.068-0.16
				c-1.547-0.158-2.916-0.953-3.836-2.123l-0.249-6.553c0.96-1.449,2.576-2.43,4.449-2.504c1.867-0.074,3.555,0.779,4.628,2.15
				l0.26,6.551c-0.965,1.447-2.582,2.434-4.449,2.506c-0.033,0-0.061,0.002-0.087,0.002c0.104,0.221,0.246,0.445,0.317,0.619
				c0.131,0.332,0.046,0.764-0.039,1.096c-0.133,0.512,0.297,0.684,0.459,1.109c0.172,0.438,0.208,0.83,0.172,1.301
				c-0.051,0.729,0.557,1.363,0.584,2.17c0.012,0.381-0.45,0.494-0.049,0.936c0.064,0.068,0.108,0.154,0.138,0.254l15.334-0.6
				c-0.077-0.365-0.147-0.732-0.176-1.102c-0.019-0.236,0.047-0.703,0.048-1.078c-0.057,0.006-0.106,0.002-0.157-0.037
				c-0.732-0.523-0.549-1.49-0.456-2.281c0.073-0.617,0.26-1.281-0.229-1.805c-0.087-0.094-0.166-0.211-0.205-0.332
				c-0.106-0.342-0.028-0.641,0.06-0.945c-1.493-0.191-2.804-0.973-3.7-2.109l-0.254-6.549c0.964-1.449,2.582-2.434,4.447-2.506
				c1.869-0.074,3.56,0.781,4.632,2.148l0.257,6.553c-0.964,1.449-2.579,2.434-4.452,2.506c-0.123,0.004-0.249,0.006-0.375,0.002
				c-0.082,0.355-0.122,0.709,0.154,1.002c0.162,0.176,0.285,0.418,0.306,0.66c0.016,0.154-0.007,0.359-0.038,0.588
				c0.076,0.025,0.129,0.078,0.16,0.18c0.188,0.684,0.298,1.393,0.223,2.096c0.005,0.012,0.007,0.02,0.016,0.027
				c0.25,0.369,0.246,0.328,0.256,0.762c0.012,0.672-0.131,1.189,0.012,1.906c0.018,0.098,0.037,0.193,0.056,0.293l16.834-0.66
				c-0.142-0.385-0.312-0.777-0.384-1.174c-0.145-0.721-0.094-1.48-0.303-2.189c-0.176-0.609-0.364-1.223-0.457-1.85
				c-0.121-0.834-0.473-1.531-0.677-2.328c-1.518-0.178-2.86-0.961-3.765-2.117l-0.256-6.553c0.963-1.445,2.579-2.43,4.449-2.5
				c1.872-0.074,3.56,0.779,4.633,2.148l0.259,6.551c-0.968,1.447-2.582,2.434-4.454,2.504c-0.09,0.004-0.181,0.004-0.271,0.004
				c0.36,1.461,0.854,2.891,1.169,4.377c0.183,0.877,0.099,1.82,0.405,2.676c0.056,0.154,0.122,0.293,0.183,0.432l14.017-0.547
				c0.078-0.148,0.14-0.311,0.169-0.496c0.009-0.086,0.098-0.188,0.188-0.205c0.845-0.166,1.016-2.969,0.725-3.518
				c-0.225-0.418,0.079-1.432,0.004-1.811c-0.088-0.475-0.156-1.039-0.166-1.559c-1.781-0.004-3.379-0.838-4.406-2.152l-0.254-6.555
				c0.965-1.447,2.578-2.43,4.445-2.504c1.874-0.07,3.561,0.781,4.631,2.15l0.258,6.553c-0.903,1.359-2.389,2.312-4.113,2.482
				c-0.002,1.832,0.695,3.604,0.195,5.408c-0.181,0.648-0.381,1.488-0.904,1.943c-0.066,0.059-0.102,0.143-0.115,0.236l17.766-0.693
				c-0.071-0.408-0.182-0.812-0.22-1.27c-0.032-0.307,0.11-0.949-0.026-1.213c-0.355-0.699-0.281-1.479-0.195-2.238
				c-0.037-0.004-0.078-0.01-0.129-0.016c-0.116-0.016-0.228-0.148-0.22-0.268c0.038-0.863-0.116-1.609-0.606-2.33
				c-0.053-0.076-0.094-0.15-0.129-0.227c-1.509-0.184-2.836-0.965-3.741-2.113l-0.251-6.551c0.966-1.447,2.582-2.432,4.453-2.506
				c1.867-0.072,3.556,0.781,4.626,2.15L85.802,164c-0.963,1.447-2.579,2.434-4.453,2.506c-0.038,0.002-0.082,0.002-0.123,0
				c0.346,0.943,0.769,2.172,0.545,2.223c0.224-0.051,0.381,0.115,0.358,0.334c-0.054,0.604-0.315,1.783,0.208,2.273
				c0.07,0.07,0.105,0.176,0.08,0.273c-0.211,0.832,0.028,1.602,0.131,2.395l15.801-0.617c0.282-1.518-0.102-3.576-0.686-4.709
				c-0.208-0.412-0.422-0.748-0.222-1.217c0.312-0.723,0.167-1.15-0.075-1.619c-1.616-0.117-3.045-0.926-4-2.137l-0.255-6.555
				c0.964-1.445,2.582-2.43,4.453-2.504c1.867-0.072,3.556,0.783,4.631,2.15l0.255,6.553c-0.951,1.428-2.53,2.4-4.371,2.5
				c0.215,0.387,0.357,0.787,0.162,1.205c-0.366,0.799-0.207,1.102,0.167,1.826c0.121,0.23,0.155,0.461,0.203,0.719
				c0.208,1.119,0.484,2.523,0.306,3.764l14.736-0.576c-0.254-0.863-0.236-1.77,0.617-2.34c1.146-0.766,0.381-3.242,0.479-4.6
				c-0.363-0.092-0.572-0.301-0.679-0.652c-1.636-0.104-3.095-0.914-4.056-2.143l-0.258-6.553c0.965-1.449,2.581-2.43,4.451-2.504
				s3.558,0.781,4.632,2.15l0.257,6.553c-0.916,1.377-2.425,2.332-4.175,2.486c0.044,0.049,0.089,0.1,0.132,0.15
				c0.187,0.012,0.325,0.15,0.289,0.346c-0.273,1.299,0.112,2.68,0.097,3.998c0.001,0.369-0.194,0.639-0.414,0.908
				c-0.117,0.141-0.309,0.234-0.451,0.34c-0.43,0.631-0.555,1.244-0.375,1.84l14.746-0.576c0.512-1.246,1.643-2.176,2.012-3.482
				c-0.045-0.377-0.041-0.752,0.016-1.135c0.014-0.096,0.061-0.158,0.131-0.188c-0.066-1.037-0.52-1.889-0.93-2.902
				c-1.417-0.229-2.659-0.992-3.515-2.082l-0.253-6.551c0.963-1.447,2.578-2.43,4.447-2.506c1.868-0.072,3.559,0.781,4.632,2.15
				l0.257,6.551c-0.964,1.449-2.583,2.432-4.447,2.506c-0.162,0.006-0.316,0.004-0.473-0.002c0.521,1.174,1.133,2.266,0.842,3.633
				c-0.04,0.168-0.086,0.328-0.143,0.49c0.012,0.098,0.03,0.197,0.054,0.295c0.046,0.238-0.162,0.387-0.343,0.363
				c-0.509,0.982-1.267,1.834-1.691,2.836l14.14-0.555c0.496-0.633,1.215-1.053,1.443-1.871c0.276-0.977,0.975-1.51,1.271-2.486
				c0.35-1.162,0.486-2.285,0.252-3.453c-1.342-0.262-2.52-1.008-3.339-2.051l-0.256-6.551c0.963-1.449,2.579-2.432,4.452-2.506
				c1.871-0.072,3.556,0.779,4.627,2.152l0.258,6.551c-0.96,1.449-2.578,2.434-4.451,2.504c-0.234,0.01-0.466,0.004-0.697-0.014
				c0.312,1.803-0.123,3.562-1.197,5.055c-0.431,0.6-0.351,1.373-0.875,1.928c-0.239,0.262-0.46,0.488-0.654,0.713l14.193-0.557
				c0.207-0.205,0.443-0.377,0.732-0.486c0.972-0.387,0.638-1.736,1.121-2.41c0.003-0.045,0.021-0.092,0.057-0.135
				c0.014-0.023,0.027-0.043,0.039-0.064c0.059-0.252,0.127-0.502,0.199-0.752c-0.139-0.199-0.269-0.396-0.291-0.463
				c-0.148-0.422,0.13-0.867,0.375-1.176c0.191-0.248,0.551-0.33,0.789-0.504c0.75-0.531,0.717-0.816,0.689-1.5
				c-0.005-0.223,0.013-0.422,0.047-0.615c-0.998-0.363-1.865-0.996-2.505-1.82l-0.261-6.553c0.962-1.449,2.582-2.43,4.451-2.504
				c1.869-0.072,3.555,0.781,4.627,2.15l0.258,6.553c-0.959,1.447-2.577,2.432-4.451,2.502c-0.532,0.023-1.056-0.033-1.547-0.158
				c-0.108,0.854,0,1.715-0.781,2.285c0.068,0.059,0.109,0.148,0.07,0.27c-0.18,0.51-0.351,1.016-0.569,1.5
				c0.145,0.258,0.088,0.584-0.011,0.85c-0.271,0.738-0.846-0.359-0.869,1.268c-0.004,0.426,0.029,0.992-0.318,1.32
				c-0.201,0.189-0.423,0.293-0.656,0.396l14.744-0.576c0.948-0.576,1.104-1.674,1.566-2.801c0.619-1.494,1.103-2.795,1.216-4.418
				c0.043-0.605,0.235-1.09,0.521-1.494c-0.516-0.34-0.965-0.758-1.346-1.242l-0.257-6.553c0.966-1.447,2.575-2.43,4.45-2.502
				c1.869-0.074,3.557,0.781,4.632,2.148l0.136,3.59c0.978-0.381,2.005-0.629,3.13-0.645c1.472-0.021,2.884,0.205,4.316,0.525
				c0.046,0.01,0.087,0.02,0.129,0.031l-0.147-3.797c0.966-1.445,2.578-2.43,4.45-2.504c1.87-0.074,3.556,0.783,4.628,2.15
				l0.259,6.551c-0.96,1.449-1.63,5.004-3.452,5.463c-1.812,0.461-3.64-0.025-4.975-1.139l-0.526-2.08
				c-1.188-0.029-2.373-0.074-3.5,0.135c-1.383,0.25-2.734,0.682-3.909,1.463l0.593,2.344c-0.638,1.613-2.016,2.914-3.827,3.375
				c-0.988,0.248-1.97,0.221-2.885-0.039c-0.141,0.334-0.217,0.699-0.176,1.094c0.098,1.113,0.279,2.117,0.074,3.246
				c-0.255,1.451-0.213,3.227-0.957,4.479l21.623-8.369c0.634-1.047,3.224-0.238,4.091-0.307c0.123-0.008,0.196,0.045,0.245,0.119
				l3.359-0.131c0.947-0.756,1.146-1.93,1.702-3.285c0.353-0.857,0.999-1.67,1.184-2.59c0.186-0.934,0.217-1.939,0.132-2.914
				c-0.463-0.322-0.879-0.713-1.227-1.158l-0.259-6.553c0.964-1.447,2.58-2.43,4.451-2.504c1.868-0.074,3.554,0.781,4.631,2.148
				l0.257,6.553c-0.359,0.539-0.807,1.012-1.322,1.396c0.197,0.137,0.395,0.287,0.6,0.471c0.259,0.24,0.545,0.453,0.839,0.648
				c0.388-0.1,0.88,0.115,0.907,0.553c0.097,0.053,0.199,0.105,0.297,0.158c0.071,0.002,0.15-0.002,0.228-0.02
				c0.292-0.057,0.657-0.006,0.815,0.295c0.028,0.059,0.049,0.113,0.067,0.168c0.077,0.033,0.145,0.08,0.209,0.15
				c0.044,0.049,0.081,0.102,0.114,0.16c0.793,0.426,1.553,0.898,2.18,1.549c0.724,0.742,0.893,1.693,0.264,2.141
				c0.689,0.398,1.026,1.123,0.908,1.969l22.02-0.861c-0.203-0.553-0.201-1.24-0.196-1.875c0.03-1.246-0.812-2.875,0.358-3.744
				c-0.346-0.691-0.428-1.326-0.348-1.992c-1.5-0.182-2.827-0.965-3.728-2.111l-0.26-6.553c0.966-1.447,2.583-2.432,4.452-2.504
				c1.871-0.074,3.56,0.781,4.632,2.15l0.253,6.549c-0.96,1.451-2.574,2.436-4.443,2.506c-0.113,0.004-0.223,0.006-0.334,0.006
				c-0.084,0.617-0.002,1.225,0.389,1.891c0.076,0.127,0.053,0.316-0.084,0.393c-1.184,0.652-0.284,2.168-0.31,3.174
				c-0.016,0.65-0.106,1.531,0.229,2.088l14.265-0.557c-0.422-0.318-0.915-0.609-0.933-1.207c-0.018-0.908,0.323-1.535,1.123-1.98
				c0.564-0.316,1.68-0.787,1.621-1.588c-0.028-0.395-0.229-0.857-0.172-1.248c0.091-0.617-0.168-1.143-0.344-1.703
				c-1.387-0.24-2.601-0.996-3.439-2.068l-0.256-6.551c0.966-1.449,2.582-2.434,4.453-2.504c1.865-0.072,3.555,0.781,4.629,2.15
				l0.254,6.551c-0.961,1.449-2.575,2.434-4.449,2.504c-0.15,0.006-0.307,0.004-0.456,0c0.082,0.117,0.179,0.238,0.272,0.389
				c0.25,0.398-0.13,1.145-0.052,1.57c0.14,0.762,0.259,1.512-0.409,2.07c-1.072,0.898-3.416,1.914-1.332,3.275
				c0.147,0.098,0.264,0.199,0.361,0.307l16.927-0.664c0.325-1.027,1.331-1.855,1.409-2.932c-0.034-0.043-0.06-0.092-0.059-0.16
				l-0.022-0.57c-0.003-0.062,0.015-0.117,0.05-0.162c0.049-0.916,0.135-1.801-0.205-2.713c-0.143-0.381-0.234-0.719-0.252-1.061
				c-1.705-0.057-3.224-0.883-4.211-2.148l-0.262-6.553c0.963-1.449,2.577-2.432,4.454-2.506c1.868-0.074,3.556,0.781,4.626,2.148
				l0.258,6.553c-0.934,1.404-2.478,2.367-4.27,2.496c0.076,0.715,0.488,1.33,0.499,2.119c0.007,0.65-0.062,1.295-0.091,1.939
				c0.262,1.393-1.028,2.377-1.381,3.529l17.597-0.688c-0.146-0.414-0.306-0.824-0.442-1.244c-0.048-0.148,0.037-0.309,0.185-0.355
				c0.132-0.047,0.216-0.07,0.294-0.09c-0.483-1.881-0.812-3.898-0.689-5.854c-1.671-0.084-3.158-0.9-4.135-2.146l-0.258-6.553
				c0.965-1.447,2.58-2.432,4.451-2.504c1.866-0.074,3.558,0.779,4.63,2.148l0.26,6.553c-0.955,1.432-2.543,2.408-4.384,2.5
				c-0.136,2.006,0.242,4.121,0.752,6.012c0.047,0.182-0.067,0.355-0.264,0.371c-0.062,0.014-0.133,0.027-0.194,0.041
				c0.128,0.367,0.267,0.73,0.389,1.096l16.045-0.625c-0.396-1.395,0.476-3.043-0.245-4.404c-0.093-0.174-0.022-0.346,0.154-0.422
				c0.08-0.041,0.164-0.076,0.248-0.107c-0.314-0.752-0.438-1.756-0.346-2.607c-1.856,0.061-3.522-0.791-4.588-2.15l-0.26-6.553
				c0.969-1.447,2.58-2.43,4.45-2.504c1.871-0.072,3.56,0.783,4.632,2.15l0.254,6.553c-0.867,1.303-2.263,2.23-3.9,2.455
				c-0.121,0.871,0.017,2.004,0.396,2.668c0.088,0.16,0.028,0.363-0.15,0.424c-0.096,0.027-0.19,0.057-0.277,0.092
				c0.501,1.389-0.315,3.088,0.223,4.383l16.354-0.639c0.028-0.832,0.112-1.67,0.229-2.492c0.06-0.459,0.118-0.92,0.263-1.363
				c0.125-0.393,0.017,0.014-0.412-0.314c-0.106-0.082-0.11-0.234-0.061-0.344c0.434-0.971,0.169-2.033,0.054-3.061
				c-0.173,0.023-0.343,0.039-0.515,0.047c-1.877,0.072-3.561-0.783-4.635-2.15l-0.255-6.555c0.96-1.445,2.578-2.43,4.448-2.504
				c1.869-0.074,3.558,0.779,4.627,2.15l0.258,6.553c-0.772,1.16-1.962,2.021-3.368,2.357c0.084,0.73,0.259,1.467,0.193,2.193
				c-0.058,0.605-0.316,0.93,0.218,1.344c0.124,0.094,0.121,0.301,0.018,0.404c-0.343,0.344-0.311,1.555-0.354,2.002
				c-0.055,0.566-0.118,1.139-0.137,1.709l16.866-0.658c0.009-0.008,0.009-0.016,0.02-0.023c0.577-0.531-0.318-1.275-0.529-1.787
				c-0.336-0.818,0.604-1.59,0.069-2.545c-0.25-0.459-0.633-1.029-0.612-1.582c0.009-0.529,0.086-1.053,0.105-1.578
				c-0.098,0.006-0.192,0.012-0.291,0.02c-1.87,0.072-3.555-0.783-4.627-2.152l-0.261-6.551c0.964-1.447,2.581-2.432,4.455-2.504
				c1.868-0.074,3.549,0.779,4.626,2.148l0.255,6.551c-0.81,1.221-2.078,2.107-3.584,2.404c-0.003,0.287-0.027,0.566-0.062,0.863
				c-0.097,0.826,0.108,1.344,0.477,2.072c0.298,0.584,0.342,0.971,0.198,1.617c-0.196,0.877,0.096,1.383,0.457,2.082
				c0.063,0.117,0.155,0.246,0.169,0.383c0.031,0.234,0,0.402-0.085,0.551l17.454-0.682c0.035-0.234,0.055-0.465,0.039-0.684
				c-0.094-1.029-0.646-0.719-0.967-1.367c-0.42-0.857-0.078-1.035,0.262-1.799c0.529-1.168-0.294-1.52-0.695-2.354
				c-0.209-0.418-0.229-0.922-0.209-1.424c-0.4,0.109-0.82,0.174-1.256,0.191c-1.868,0.074-3.553-0.783-4.626-2.15l-0.257-6.551
				c0.961-1.449,2.577-2.434,4.446-2.504c1.872-0.074,3.561,0.781,4.635,2.148l0.255,6.553c-0.629,0.945-1.54,1.691-2.613,2.117
				c-0.025,0.824,0.034,1.648,0.859,1.984c0.123,0.047,0.158,0.193,0.139,0.312c-0.121,0.82,0.159,1.469-0.332,2.17
				c-0.721,1.035,0.225,1.102,0.578,1.646c0.35,0.539,0.365,1.107,0.285,1.686l16.994-0.662c-0.008-0.463,0.043-0.939,0.102-1.422
				c0.109-0.859,0.349-2.115-0.211-2.887c-0.518-0.709-1.061-1.348-1.734-0.467c-0.358,0.469-0.736,0.551-1.104,0.059
				c-0.256-0.336-0.206-0.705-0.076-1.061c0.293-0.791,0.11-1.223-0.266-1.658c-0.136,0.018-0.277,0.031-0.427,0.035
				c-1.869,0.072-3.554-0.781-4.628-2.15l-0.258-6.551c0.961-1.449,2.581-2.432,4.445-2.506c1.872-0.072,3.562,0.781,4.639,2.148
				l0.254,6.555c-0.197,0.297-0.426,0.57-0.676,0.824c0.684,0.443,2.014,0.189,2.707,0.604c0.68,0.402,1.282,2.236,2.154,1.156
				c0.11-0.129,0.283-0.102,0.4-0.016c0.846,0.617,2.699-1.182,3.598-2.197c-0.224-0.205-0.429-0.43-0.616-0.668l-0.256-6.553
				c0.964-1.447,2.573-2.432,4.444-2.504c1.874-0.072,3.561,0.781,4.632,2.148l0.26,6.553c-0.204,0.303-0.434,0.584-0.688,0.842
				c0.131,0.131,0.247,0.303,0.365,0.531c0.928,1.84,1.739,3.904,3.272,5.336c0.269,0.25,0.068,1.129-0.259,0.959
				c-1.442-0.73-2.469-1.898-3.577-3.037c-0.422-0.434-0.921-1.166-1.393-1.521c-0.052-0.041-0.116-0.068-0.198-0.086
				c-0.666,0.973-1.646,1.742-2.846,2.141c-1.277,0.418-2.59,0.352-3.752-0.094c-0.259,0.566-0.553,1.098-0.962,1.615
				c-0.54,0.705-1.223,1.613-2.138,1.842c-0.012,0.002-0.021,0.006-0.032,0.006c0.478,0.885,0.123,2.154-0.289,2.988
				c-0.304,0.6-0.776,0.912-1.286,1.324c-0.562,0.453-0.959,1.078-1.578,1.469c-0.018,0.016-0.037,0.02-0.058,0.027
				c0.106,0.662,0.19,1.34,0.397,1.955l20.256-6.623l7.546-0.297c-0.154-0.219-0.31-0.406-0.385-0.715
				c-0.097-0.377-0.189-0.635-0.404-0.967c-0.251-0.391,0.087-1.223,0.11-1.662c0.006-0.195,0.149-0.32,0.349-0.289
				c0.799-0.592,0.93-1.062,0.385-1.414c-0.068-0.072-0.138-0.143-0.211-0.209c-0.072-0.084-0.132-0.174-0.181-0.27
				c-0.117-0.17-0.151-0.311-0.315-0.463c-0.118-0.107-0.12-0.285-0.017-0.4c0.164-0.193,0.222-0.262,0.314-0.338
				c-0.276-0.252-0.549-0.525-0.562-0.791c-1.739-0.035-3.288-0.867-4.299-2.154l-0.253-6.553c0.96-1.447,2.573-2.43,4.442-2.502
				c1.874-0.076,3.562,0.781,4.633,2.146l0.26,6.553c-0.899,1.354-2.368,2.301-4.082,2.479c-0.193,0.17,0.406,0.559,0.498,0.65
				c0.131,0.129,0.113,0.342-0.041,0.447c-0.609,0.418-0.222,0.064-0.089,0.488c0.104,0.328,0.301,0.492,0.529,0.717
				c0.385,0.379,0.532,0.719,0.558,1.264c0.045,0.748-0.672,0.939-1.285,0.936l0.035,0.166c0.044,0.1-0.005,0.205-0.062,0.281
				c-0.409,0.555,0.345,1.814,0.729,2.576l16.457-0.645c0.233-0.93,0.268-2.111-0.354-2.428c-0.149-0.076-0.173-0.242-0.118-0.383
				c0.461-1.211-1.018-2.25-0.678-3.508c0.042-0.156-0.386-0.695-0.461-0.908c-0.032-0.088-0.05-0.188-0.062-0.287
				c-1.617-0.115-3.056-0.924-4.009-2.141l-0.259-6.551c0.966-1.451,2.587-2.432,4.451-2.506c1.87-0.074,3.561,0.781,4.636,2.15
				l0.25,6.553c-0.964,1.447-2.573,2.432-4.448,2.504h-0.009c0.071,0.299,0.218,0.576,0.528,0.801
				c0.101,0.07,0.119,0.246,0.059,0.342c-0.646,1.068,0.797,2.316,0.575,3.557c0.688,0.531,0.728,1.742,0.491,2.781l18.492-0.721
				c-0.187-0.365-0.483-0.672-0.976-0.947c-0.415-0.227-0.729-0.254-0.882-0.736c-0.165-0.508,0.19-1.459,0.266-1.986
				c0.153-1.145,0.549-1.596-0.739-1.922c-0.152-0.039-0.245-0.188-0.21-0.342c0.098-0.512-0.048-1.037-0.154-1.566
				c-0.26,0.051-0.531,0.078-0.797,0.092c-1.867,0.072-3.551-0.783-4.627-2.152l-0.258-6.553c0.962-1.447,2.576-2.43,4.45-2.504
				c1.872-0.074,3.556,0.781,4.63,2.15l0.256,6.551c-0.727,1.094-1.824,1.922-3.124,2.293c0.089,0.518,0.239,1.027,0.206,1.555
				c0.481,0.168,1.128,0.52,1.146,1.023c0.016,0.453-0.157,1.029-0.228,1.502c-0.072,0.486,0.019,1.252-0.229,1.684
				c-0.053,0.105,1.277,0.863,1.527,1.09c0.22,0.201,0.355,0.459,0.438,0.742l22.452-0.881c-0.481-1.129-1.311-2.467-2.42-1.961
				c-0.111,0.055-0.256-0.021-0.323-0.117c-0.087-0.133-1.584-1.496-1.863-1.432c-0.117,0.029-0.262,0-0.328-0.117
				c-0.447-0.783-0.997-1.963-1.724-2.465c-0.562-0.383-0.858-1.031-0.964-1.691c-0.711,0.371-1.512,0.598-2.367,0.631
				c-1.867,0.074-3.561-0.781-4.633-2.152l-0.255-6.551c0.963-1.449,2.579-2.432,4.45-2.504c1.873-0.072,3.557,0.781,4.629,2.15
				l0.258,6.551c-0.41,0.613-0.933,1.141-1.541,1.555c0.062,0.811,0.48,1.492,1.297,1.848c0.094,0.041,0.14,0.145,0.15,0.24
				c0.027,0.215,0.807,1.977,1.182,1.889c0.284-0.064,0.532,0.078,0.766,0.215c0.356,0.209,0.968,0.867,1.211,1.213
				c0.086,0.133,0.74,0.109,0.908,0.166c0.365,0.113,0.731,0.428,1.002,0.674c0.025,0.025,0.046,0.049,0.072,0.072
				c0.575-0.607,1.391-0.762,2.2-0.951c0.888-0.209,1.861-0.375,2.23-1.383c0.136-0.371,0.241-0.678,0.549-0.943
				c0.68-0.594,1.918-0.672,2.745-0.945c1.349-0.451,0.9-1.041,0.194-1.793c-0.02-0.021-0.044-0.045-0.065-0.07
				c-0.232,0.037-0.469,0.061-0.704,0.07c-1.865,0.072-3.554-0.781-4.628-2.15l-0.255-6.553c0.959-1.449,2.579-2.43,4.444-2.506
				c1.871-0.072,3.561,0.783,4.635,2.15l0.253,6.553c-0.066,0.105-0.137,0.203-0.212,0.297c0.613,0.232,1.268,0.471,1.59,0.033
				c0.113-0.158,0.35-0.096,0.451,0.037c0.622,0.861,1.481,1.812,2.488,0.627c0.127-0.145,0.346-0.098,0.45,0.039
				c0.071,0.1,0.147,0.195,0.216,0.293c0.32-0.5,0.403-1.006,1.146-1.055c0.78-0.059,1.552,0.807,2.01,1.312
				c-0.119-0.125,0.072-0.58,0.29-1c-0.319-0.26-0.608-0.557-0.86-0.879l-0.258-6.553c0.96-1.449,2.583-2.43,4.449-2.504
				c1.871-0.074,3.56,0.779,4.627,2.15l0.262,6.551c-0.129,0.197-0.277,0.385-0.428,0.559c0.402,0.123,0.816,0.217,1.203,0.359
				c0.338,0.125,0.856,0.496,1.05,0.801c0.313,0.482-0.306,1.848,1.156,1.408c0.772-0.23,1.617-0.434,2.316-0.848
				c0.219-0.127,0.425-0.26,0.628-0.379l5.91-489.786l-702.956,27.469L-194.968,179.438z"/>
		</g>
		<g clip-path="url(#SVGID_2_)">
			<path fill="#FFFFFF" d="M-193.55,178.021l1.08-0.043c1.53-1.051,2.709-2.768,4.254-3.76c0.181-0.111,0.355-0.205,0.539-0.285
				c-0.19-0.182-0.376-0.381-0.539-0.588l-0.253-6.551c0.965-1.447,2.581-2.434,4.452-2.506c1.869-0.072,3.557,0.781,4.626,2.15
				l0.261,6.553c-0.22,0.332-0.483,0.641-0.764,0.918c0.096,0.125,0.173,0.27,0.219,0.445c0.622,2.414-0.053,4.619-0.913,6.879
				c-0.222,0.576-0.444,1.146-0.622,1.715l1.871-0.072c1.594-1.975,3.954-3.227,6.388-3.904c0.485-0.137,0.982-0.256,1.479-0.363
				c0.048-0.012,0.093-0.023,0.137-0.037c0-0.018,0-0.031,0.006-0.049c0.025-0.49,0.053-0.977,0.098-1.461
				c0.088-0.963,0.036-2.268,0.621-3.102c0.044-0.07,0.09-0.135,0.148-0.195c-0.412-0.305-0.785-0.664-1.1-1.072l-0.259-6.549
				c0.954-1.449,2.58-2.432,4.45-2.504c1.867-0.074,3.555,0.779,4.629,2.148l0.259,6.551c-0.242,0.355-0.513,0.678-0.818,0.969
				c0.544,0.293,1.045,0.734,1.495,1.4c0.844,1.262,1.369,2.734,2.287,3.953c0.864,1.145,2.085,2.074,2.809,3.33l8.972-0.35
				c0.011-0.232,0.036-0.467,0.02-0.762c-0.054-0.814-0.692-1.27-1.184-1.818c-0.364-0.412-0.579-0.936-0.526-1.49
				c0.042-0.418,0.352-1.299,0.186-1.68c-0.189-0.459-0.566-0.801-0.831-1.217c-0.104-0.166-0.124-0.332-0.094-0.488
				c-0.044,0.002-0.083,0.006-0.123,0.008c-1.87,0.072-3.558-0.781-4.626-2.15l-0.26-6.553c0.963-1.449,2.576-2.432,4.449-2.504
				s3.56,0.783,4.632,2.148l0.255,6.553c-0.822,1.238-2.119,2.131-3.642,2.414c-0.116,0.521,0.722,1.32,0.824,1.824
				c0.172,0.82-0.604,1.682-0.01,2.492c0.386,0.543,1.104,1.035,1.361,1.676c0.195,0.506,0.104,1.01,0.104,1.525l14.733-0.576
				c-0.117-0.342-0.216-0.689-0.231-1.037c-0.04-0.92,0.206-1.645,0.432-2.521c0.345-1.346-0.875-2.562-1.2-3.951
				c-0.056,0-0.11,0.006-0.169,0.01c-1.877,0.074-3.561-0.781-4.631-2.15l-0.259-6.551c0.962-1.449,2.577-2.432,4.449-2.506
				c1.871-0.074,3.561,0.781,4.63,2.148l0.254,6.553c-0.833,1.258-2.162,2.164-3.719,2.43c0.166,0.787,0.623,1.291,1.037,2.041
				c0.232,0.422,0.398,0.826,0.321,1.326c-0.147,0.896-0.64,1.799-0.598,2.717c0.022,0.52,0.162,0.994,0.317,1.469l5.77-0.227
				l14.223,6.893c0.336-0.588,0.691-1.303,0.507-1.365c-0.392-0.133-0.796-0.35-1.042-0.703c-0.166-0.25-0.201-0.42-0.289-0.707
				c-0.287-0.908-0.523-0.494-0.929-0.818c-0.341-0.27-0.432-0.469-0.452-0.898c-0.018-0.279,0.195-0.604,0.439-0.732
				c0.975-0.504,0.313-1.182-0.128-1.91c-0.688-1.133,0.438-2.004,0.574-2.953c-1.276,0.668-2.812,0.848-4.3,0.373
				c-1.598-0.516-2.804-1.684-3.424-3.117c-0.652,0.154-1.967,0.859-2.035,0.852c-0.662,0.299-1.252-0.168-1.986-0.318
				c-0.355-0.072-0.347-2.887,0.011-2.939c0.581-0.086,1.375,0.227,1.727-0.389c0.038-0.066,1.022-1.027,1.542-1.369l-0.254-6.498
				c0.967-1.447,2.579-2.432,4.448-2.508c1.871-0.072,3.556,0.787,4.63,2.152l0.256,6.557c-0.03,0.045-0.058,0.09-0.096,0.139
				c0.129,0.236,0.188,0.5,0.141,0.818c-0.055,0.447-0.295,1.029-0.229,1.471c0.144,0.973,0.863,0.834,1.325,1.346
				c0.244,0.281,0.739,0.793,0.586,1.23c-0.084,0.223-1.011,1.299-0.327,1.375c0.533,0.064,0.995,0.033,1.355,0.502
				c0.484,0.631,1.142,0.582,1.746,0.891c0.476,0.248,0.423,1.15,0.277,1.914l9.006-0.352c0.02-0.291,0.047-0.559,0.089-0.549
				c-0.093-0.021-0.208-0.082-0.271-0.154c-0.175-0.189-0.295-0.385-0.328-0.65c-0.108-0.719,0.533-2.785-0.228-3.193
				c-0.122-0.064-0.202-0.25-0.117-0.383c0.488-0.738-0.074-1.73-0.246-2.594c-0.163,0.02-0.321,0.031-0.482,0.039
				c-1.869,0.072-3.556-0.781-4.631-2.148l-0.258-6.555c0.965-1.447,2.583-2.432,4.449-2.502c1.875-0.074,3.559,0.781,4.628,2.148
				l0.259,6.553c-0.78,1.176-1.992,2.045-3.423,2.367c0.138,0.924,0.724,1.875,0.323,2.756c0.855,0.924-0.379,3.562,0.635,3.809
				c0.119,0.025,0.226,0.139,0.223,0.262c-0.011,0.258-0.023,0.516-0.043,0.771l15.594-0.609c0.052-0.273,0.146-0.553,0.256-0.85
				c0.401-1.043,0.232-1.732-0.48-2.578c-0.098-0.117-0.184-0.266-0.206-0.416c-0.081-0.459-0.006-0.969,0.044-1.43
				c0.021-0.158,0.295-0.865,0.213-1.031c-0.201-0.404-0.421-0.811-0.629-1.217c-0.104,0.01-0.201,0.016-0.306,0.02
				c-1.871,0.072-3.555-0.781-4.632-2.152l-0.258-6.551c0.963-1.447,2.582-2.43,4.451-2.504c1.872-0.074,3.561,0.781,4.635,2.148
				l0.25,6.553c-0.795,1.199-2.034,2.076-3.496,2.387c0.287,0.436,0.613,0.857,0.643,1.436c0.017,0.391-0.304,0.881-0.332,1.322
				c-0.043,0.629-0.103,0.922,0.353,1.4c1.057,1.129,0.313,2.264,0.083,3.439l16.517-0.645c-0.024-1.549-0.528-3.08-0.276-4.613
				c0.098-0.637-0.055-1.16-0.241-1.744c-0.082-0.258,0.062-0.848,0.151-1.307c-0.389,0.102-0.786,0.162-1.195,0.18
				c-1.875,0.072-3.562-0.781-4.635-2.15l-0.254-6.551c0.959-1.447,2.575-2.432,4.446-2.506c1.872-0.072,3.56,0.781,4.633,2.148
				l0.255,6.553c-0.631,0.955-1.552,1.703-2.641,2.127c-0.052,0.57-0.262,1.359-0.002,1.715c0.279,0.375,0.175,0.803,0.1,1.246
				c-0.265,1.639,0.19,3.244,0.221,4.881l15.643-0.613c-0.042-0.535-0.059-1.076-0.078-1.623c-0.133,0.012-0.267-0.053-0.289-0.189
				c-0.139-0.703,0.277-1.598,0.081-2.227c-0.19-0.592-0.272-1.127-0.354-1.742c-0.068-0.514-0.239-1.17-0.167-1.742
				c-0.104,0.01-0.208,0.018-0.314,0.023c-1.87,0.072-3.56-0.781-4.631-2.152l-0.254-6.551c0.958-1.447,2.573-2.432,4.448-2.504
				c1.868-0.072,3.557,0.781,4.627,2.15l0.257,6.551c-0.808,1.211-2.069,2.096-3.555,2.395c-0.202,0.621,0.134,1.855,0.212,2.369
				c0.063,0.393,0.367,0.986,0.34,1.406c-0.03,0.434-0.151,0.912-0.174,1.361c0.147-0.012,0.294,0.098,0.309,0.268
				c0.049,0.738,0.041,1.463,0.106,2.186l14.797-0.578c0.062-0.754-0.068-1.428-0.1-2.23c-0.022-0.789,0.261-1.523,0.233-2.311
				c-0.032-0.701-0.061-1.303,0.047-1.986c0.066-0.408-0.143-0.707-0.349-1.021c-1.739-0.033-3.289-0.865-4.301-2.154l-0.253-6.553
				c0.958-1.447,2.578-2.43,4.449-2.504c1.867-0.072,3.556,0.783,4.629,2.15l0.256,6.553c-0.906,1.363-2.393,2.318-4.129,2.482
				c0.193,0.264,0.352,0.525,0.298,0.889c-0.137,0.859-0.075,1.686-0.091,2.551c-0.018,0.951-0.188,1.742-0.096,2.705
				c0.048,0.486,0.045,0.945-0.009,1.408l16.304-0.639c-0.195-0.32-0.419-0.629-0.309-1.047c0.225-0.84,0.425-1.756,0.307-2.633
				c-0.137-1.008,0.089-2.361-0.402-3.275c-0.118-0.221-0.18-0.402-0.201-0.592c-1.656-0.09-3.134-0.904-4.105-2.146L-22,160.289
				c0.961-1.449,2.578-2.432,4.448-2.504c1.873-0.074,3.562,0.781,4.633,2.148l0.254,6.553c-0.946,1.428-2.533,2.404-4.372,2.5
				c0.101,0.447,0.383,0.836,0.405,1.334c0.033,0.832,0.154,1.68,0.17,2.51c0.011,0.615,0.06,1.322-0.079,1.926
				c-0.145,0.652,0.024,1.18,0.196,1.752l16.024-0.627c-0.081-0.574-0.254-1.117,0.271-1.572c-0.232,0.115-0.432-0.189-0.349-0.402
				c0.31-0.783,0.921-4.666-0.564-4.451c-0.158,0.02-0.293-0.133-0.294-0.275c-0.012-0.301,0-0.582,0.021-0.863
				c-1.558-0.152-2.938-0.947-3.864-2.125l-0.252-6.553c0.964-1.449,2.576-2.432,4.45-2.504c1.875-0.074,3.56,0.781,4.634,2.148
				l0.254,6.553c-0.963,1.447-2.581,2.434-4.449,2.506c-0.071,0.002-0.145,0-0.213,0.004c-0.021,0.174-0.03,0.352-0.028,0.529
				c1.642,0.074,1.369,3.172,0.989,4.707c0.033,0.023,0.062,0.053,0.086,0.082c0.172,0.246,0.263,0.41,0.291,0.611
				c0.003,0.006,0.012,0.01,0.015,0.014c0.351,0.477,0.507,1.092,0.918,1.518l15.274-0.598c-0.096-0.305-0.146-0.6-0.078-0.838
				c0.16-0.566,0.301-1.135-0.179-1.58c-0.152-0.139-0.21-0.463-0.192-0.656c0.06-0.797,0.04-1.406-0.604-1.998
				c-0.135-0.129-0.116-0.389-0.071-0.549c0.174-0.707,0.146-1.162-0.293-1.764c-0.033-0.047-0.057-0.104-0.068-0.16
				c-1.547-0.158-2.916-0.953-3.836-2.123l-0.249-6.553c0.96-1.449,2.576-2.432,4.449-2.506c1.867-0.072,3.555,0.779,4.628,2.152
				l0.26,6.551c-0.965,1.447-2.582,2.432-4.449,2.506c-0.033,0-0.061,0-0.087,0.002c0.104,0.221,0.246,0.445,0.317,0.619
				c0.131,0.332,0.046,0.764-0.039,1.096c-0.133,0.512,0.297,0.684,0.459,1.109c0.172,0.438,0.208,0.83,0.172,1.301
				c-0.051,0.729,0.557,1.363,0.584,2.17c0.012,0.381-0.451,0.494-0.049,0.934c0.064,0.068,0.108,0.156,0.138,0.254l15.334-0.6
				c-0.077-0.363-0.147-0.73-0.176-1.102c-0.019-0.234,0.047-0.701,0.048-1.076c-0.057,0.006-0.106,0-0.157-0.037
				c-0.732-0.523-0.549-1.492-0.456-2.283c0.073-0.615,0.26-1.279-0.229-1.803c-0.087-0.094-0.166-0.211-0.205-0.332
				c-0.106-0.342-0.028-0.641,0.06-0.945c-1.493-0.191-2.804-0.973-3.7-2.109l-0.254-6.549c0.964-1.449,2.582-2.434,4.446-2.506
				c1.87-0.074,3.561,0.779,4.633,2.148l0.257,6.551c-0.964,1.451-2.579,2.434-4.452,2.508c-0.123,0.004-0.249,0.006-0.375,0.002
				c-0.082,0.354-0.122,0.709,0.154,1.002c0.162,0.176,0.285,0.416,0.306,0.658c0.016,0.156-0.007,0.359-0.038,0.59
				c0.076,0.025,0.129,0.078,0.16,0.18c0.188,0.684,0.298,1.393,0.223,2.096c0.005,0.012,0.007,0.02,0.016,0.027
				c0.25,0.369,0.246,0.326,0.256,0.76c0.012,0.674-0.131,1.191,0.012,1.906c0.018,0.1,0.037,0.195,0.056,0.293l16.834-0.658
				c-0.142-0.385-0.312-0.777-0.384-1.176c-0.145-0.719-0.094-1.479-0.303-2.188c-0.176-0.609-0.364-1.223-0.457-1.852
				c-0.121-0.834-0.473-1.531-0.677-2.328c-1.518-0.176-2.86-0.959-3.764-2.115l-0.257-6.553c0.963-1.447,2.579-2.43,4.449-2.502
				c1.872-0.074,3.56,0.779,4.633,2.148l0.259,6.553c-0.968,1.447-2.582,2.434-4.454,2.504c-0.09,0.004-0.181,0.004-0.271,0.004
				c0.36,1.459,0.854,2.889,1.169,4.377c0.182,0.877,0.099,1.82,0.405,2.674c0.056,0.154,0.122,0.293,0.183,0.434l14.017-0.547
				c0.077-0.15,0.14-0.311,0.169-0.498c0.009-0.084,0.098-0.188,0.188-0.205c0.845-0.164,1.016-2.969,0.725-3.516
				c-0.225-0.418,0.079-1.432,0.004-1.812c-0.088-0.473-0.156-1.037-0.166-1.559c-1.781-0.002-3.379-0.836-4.406-2.152l-0.254-6.553
				c0.965-1.447,2.578-2.43,4.445-2.504c1.873-0.072,3.561,0.779,4.631,2.15l0.258,6.553c-0.903,1.359-2.389,2.312-4.113,2.482
				c-0.002,1.832,0.695,3.602,0.195,5.408c-0.181,0.648-0.381,1.488-0.904,1.943c-0.066,0.059-0.102,0.143-0.115,0.234l17.766-0.693
				c-0.071-0.406-0.182-0.812-0.22-1.27c-0.032-0.305,0.11-0.947-0.026-1.213c-0.355-0.699-0.281-1.479-0.195-2.236
				c-0.037-0.004-0.078-0.01-0.129-0.016c-0.116-0.016-0.228-0.148-0.22-0.268c0.038-0.865-0.116-1.609-0.606-2.33
				c-0.053-0.076-0.094-0.15-0.129-0.227c-1.509-0.186-2.836-0.967-3.741-2.113l-0.251-6.553c0.966-1.447,2.582-2.43,4.453-2.504
				c1.867-0.074,3.555,0.781,4.626,2.15l0.26,6.551c-0.964,1.447-2.581,2.434-4.454,2.508c-0.038,0.002-0.082,0-0.123,0
				c0.346,0.943,0.769,2.172,0.545,2.223c0.224-0.051,0.381,0.115,0.358,0.334c-0.054,0.602-0.315,1.781,0.208,2.273
				c0.07,0.07,0.105,0.176,0.08,0.273c-0.211,0.83,0.028,1.602,0.131,2.395l15.801-0.617c0.282-1.518-0.102-3.576-0.686-4.709
				c-0.208-0.412-0.422-0.748-0.222-1.217c0.312-0.723,0.167-1.15-0.075-1.619c-1.616-0.117-3.045-0.928-4-2.139l-0.255-6.553
				c0.964-1.445,2.582-2.43,4.453-2.504c1.867-0.072,3.556,0.783,4.631,2.15l0.255,6.553c-0.951,1.428-2.53,2.4-4.371,2.498
				c0.215,0.389,0.357,0.787,0.162,1.207c-0.366,0.799-0.207,1.102,0.167,1.824c0.121,0.232,0.155,0.463,0.203,0.721
				c0.208,1.117,0.484,2.523,0.306,3.764l14.736-0.576c-0.254-0.865-0.236-1.77,0.617-2.34c1.146-0.768,0.381-3.242,0.479-4.6
				c-0.363-0.094-0.572-0.301-0.679-0.652c-1.636-0.105-3.095-0.914-4.056-2.143l-0.258-6.553c0.964-1.449,2.581-2.43,4.451-2.504
				s3.558,0.779,4.632,2.148l0.256,6.555c-0.916,1.377-2.424,2.332-4.174,2.486c0.044,0.049,0.089,0.1,0.132,0.15
				c0.187,0.012,0.325,0.148,0.289,0.346c-0.273,1.299,0.112,2.678,0.097,3.998c0.001,0.369-0.194,0.637-0.414,0.906
				c-0.117,0.143-0.309,0.234-0.451,0.342c-0.43,0.631-0.555,1.244-0.375,1.838l14.746-0.576c0.512-1.244,1.643-2.176,2.012-3.48
				c-0.045-0.379-0.041-0.752,0.016-1.135c0.014-0.098,0.061-0.158,0.131-0.188c-0.066-1.039-0.52-1.889-0.93-2.902
				c-1.417-0.23-2.659-0.992-3.515-2.082l-0.253-6.551c0.963-1.449,2.578-2.43,4.447-2.506c1.867-0.072,3.559,0.779,4.632,2.15
				l0.257,6.549c-0.964,1.451-2.583,2.434-4.447,2.508c-0.162,0.006-0.316,0.004-0.473-0.002c0.521,1.172,1.133,2.266,0.842,3.633
				c-0.04,0.168-0.086,0.328-0.143,0.49c0.012,0.098,0.03,0.195,0.054,0.295c0.046,0.236-0.162,0.387-0.343,0.361
				c-0.509,0.982-1.267,1.836-1.691,2.836l14.139-0.553c0.497-0.635,1.216-1.053,1.444-1.871c0.276-0.977,0.975-1.512,1.271-2.488
				c0.35-1.162,0.486-2.283,0.252-3.453c-1.342-0.26-2.52-1.006-3.339-2.049l-0.256-6.553c0.963-1.449,2.579-2.432,4.452-2.504
				c1.871-0.072,3.556,0.779,4.627,2.152l0.258,6.549c-0.96,1.451-2.578,2.436-4.451,2.506c-0.234,0.008-0.467,0.004-0.697-0.014
				c0.312,1.803-0.123,3.562-1.197,5.055c-0.431,0.6-0.351,1.373-0.875,1.926c-0.239,0.264-0.46,0.488-0.654,0.713l14.193-0.555
				c0.207-0.205,0.443-0.377,0.732-0.488c0.972-0.385,0.638-1.734,1.121-2.408c0.003-0.047,0.021-0.092,0.057-0.137
				c0.014-0.021,0.027-0.043,0.039-0.062c0.059-0.252,0.127-0.502,0.199-0.752c-0.139-0.199-0.269-0.396-0.291-0.463
				c-0.148-0.422,0.13-0.867,0.375-1.178c0.191-0.246,0.551-0.328,0.789-0.502c0.75-0.531,0.717-0.818,0.689-1.5
				c-0.005-0.223,0.012-0.422,0.047-0.615c-0.998-0.363-1.865-0.998-2.505-1.822l-0.261-6.551c0.962-1.449,2.582-2.432,4.451-2.504
				c1.869-0.074,3.555,0.781,4.627,2.15l0.258,6.553c-0.959,1.447-2.577,2.432-4.451,2.502c-0.532,0.023-1.056-0.033-1.547-0.158
				c-0.108,0.852,0,1.713-0.781,2.283c0.068,0.061,0.109,0.15,0.07,0.271c-0.18,0.51-0.351,1.014-0.569,1.5
				c0.145,0.258,0.088,0.582-0.011,0.85c-0.271,0.738-0.846-0.361-0.869,1.268c-0.004,0.426,0.029,0.992-0.318,1.318
				c-0.201,0.191-0.423,0.295-0.656,0.398l14.744-0.576c0.948-0.576,1.104-1.674,1.566-2.801c0.619-1.494,1.103-2.795,1.216-4.418
				c0.042-0.605,0.235-1.09,0.521-1.496c-0.516-0.338-0.965-0.756-1.346-1.24l-0.258-6.553c0.967-1.447,2.576-2.43,4.451-2.502
				c1.869-0.074,3.557,0.781,4.632,2.148l0.136,3.59c0.978-0.381,2.005-0.631,3.13-0.645c1.472-0.021,2.884,0.205,4.316,0.525
				c0.046,0.01,0.087,0.02,0.129,0.031l-0.147-3.799c0.966-1.445,2.578-2.43,4.45-2.504c1.87-0.072,3.556,0.783,4.628,2.15
				l0.259,6.551c-0.96,1.451-1.63,5.006-3.452,5.465c-1.812,0.461-3.64-0.025-4.975-1.141l-0.526-2.078
				c-1.188-0.029-2.373-0.074-3.5,0.135c-1.383,0.248-2.734,0.68-3.909,1.461l0.593,2.346c-0.638,1.613-2.016,2.914-3.827,3.373
				c-0.988,0.25-1.97,0.223-2.885-0.037c-0.141,0.334-0.217,0.697-0.176,1.094c0.098,1.113,0.279,2.117,0.074,3.246
				c-0.255,1.451-0.213,3.227-0.957,4.479L201.831,168c0.634-1.049,3.224-0.24,4.091-0.307c0.123-0.01,0.196,0.045,0.245,0.117
				l3.359-0.129c0.947-0.756,1.146-1.932,1.702-3.285c0.353-0.857,0.999-1.67,1.184-2.59c0.186-0.934,0.217-1.939,0.132-2.916
				c-0.463-0.32-0.879-0.711-1.227-1.156l-0.259-6.553c0.964-1.447,2.58-2.43,4.451-2.506c1.868-0.072,3.554,0.783,4.63,2.15
				l0.258,6.553c-0.359,0.539-0.807,1.01-1.322,1.396c0.197,0.137,0.396,0.287,0.6,0.471c0.259,0.24,0.546,0.451,0.839,0.648
				c0.388-0.102,0.88,0.113,0.907,0.551c0.097,0.055,0.199,0.105,0.297,0.16c0.071,0.002,0.15-0.004,0.228-0.021
				c0.292-0.057,0.657-0.004,0.816,0.295c0.027,0.061,0.048,0.113,0.066,0.17c0.077,0.031,0.145,0.08,0.209,0.148
				c0.044,0.051,0.081,0.104,0.114,0.162c0.793,0.426,1.553,0.898,2.18,1.547c0.724,0.744,0.893,1.695,0.265,2.143
				c0.688,0.396,1.025,1.123,0.907,1.969l22.02-0.861c-0.203-0.555-0.201-1.242-0.196-1.875c0.03-1.246-0.812-2.877,0.358-3.746
				c-0.346-0.689-0.428-1.326-0.348-1.99c-1.5-0.184-2.827-0.965-3.728-2.111l-0.26-6.555c0.966-1.445,2.583-2.43,4.452-2.504
				c1.871-0.072,3.56,0.783,4.632,2.152l0.253,6.549c-0.96,1.451-2.574,2.434-4.443,2.506c-0.113,0.004-0.223,0.006-0.334,0.006
				c-0.084,0.617-0.002,1.225,0.389,1.891c0.076,0.125,0.053,0.314-0.084,0.393c-1.184,0.65-0.284,2.168-0.31,3.174
				c-0.016,0.648-0.106,1.531,0.229,2.088l14.265-0.557c-0.422-0.32-0.915-0.611-0.933-1.209c-0.018-0.906,0.323-1.533,1.123-1.98
				c0.564-0.314,1.68-0.787,1.621-1.586c-0.028-0.395-0.229-0.857-0.172-1.248c0.091-0.619-0.168-1.145-0.344-1.703
				c-1.387-0.242-2.601-0.998-3.439-2.068l-0.256-6.551c0.966-1.449,2.582-2.434,4.453-2.504c1.865-0.072,3.555,0.781,4.629,2.15
				l0.254,6.551c-0.961,1.447-2.575,2.432-4.449,2.504c-0.15,0.006-0.307,0.004-0.456,0c0.082,0.117,0.179,0.238,0.272,0.389
				c0.25,0.398-0.13,1.143-0.052,1.57c0.14,0.76,0.259,1.51-0.409,2.07c-1.072,0.898-3.416,1.914-1.332,3.273
				c0.146,0.1,0.264,0.201,0.361,0.309l16.927-0.664c0.325-1.027,1.331-1.855,1.409-2.932c-0.034-0.043-0.06-0.094-0.059-0.16
				l-0.022-0.57c-0.003-0.064,0.015-0.117,0.05-0.162c0.049-0.916,0.135-1.803-0.205-2.713c-0.143-0.381-0.234-0.721-0.252-1.061
				c-1.705-0.057-3.224-0.885-4.211-2.15l-0.262-6.551c0.963-1.449,2.577-2.432,4.453-2.506c1.869-0.074,3.557,0.779,4.627,2.148
				l0.258,6.553c-0.934,1.404-2.478,2.367-4.27,2.494c0.076,0.717,0.488,1.332,0.499,2.119c0.008,0.652-0.062,1.297-0.091,1.941
				c0.262,1.393-1.028,2.377-1.381,3.527l17.597-0.686c-0.146-0.414-0.306-0.824-0.442-1.244c-0.048-0.148,0.037-0.311,0.185-0.355
				c0.132-0.047,0.216-0.072,0.294-0.09c-0.484-1.881-0.812-3.898-0.689-5.854c-1.671-0.084-3.158-0.9-4.135-2.146l-0.258-6.555
				c0.965-1.447,2.58-2.43,4.451-2.504c1.866-0.072,3.558,0.781,4.63,2.15l0.26,6.551c-0.955,1.432-2.543,2.408-4.384,2.502
				c-0.136,2.004,0.242,4.121,0.752,6.012c0.047,0.182-0.067,0.354-0.264,0.371c-0.062,0.012-0.133,0.027-0.194,0.041
				c0.128,0.367,0.267,0.73,0.389,1.096l16.045-0.625c-0.396-1.395,0.476-3.043-0.245-4.404c-0.093-0.174-0.022-0.348,0.154-0.422
				c0.08-0.043,0.164-0.078,0.248-0.109c-0.314-0.75-0.438-1.754-0.346-2.605c-1.856,0.061-3.523-0.793-4.588-2.15l-0.26-6.555
				c0.969-1.447,2.58-2.43,4.449-2.502c1.872-0.074,3.561,0.783,4.633,2.15l0.254,6.551c-0.867,1.305-2.263,2.232-3.9,2.457
				c-0.121,0.869,0.017,2.004,0.396,2.668c0.088,0.16,0.028,0.363-0.15,0.422c-0.096,0.029-0.19,0.059-0.276,0.094
				c0.5,1.389-0.316,3.088,0.222,4.381l16.354-0.639c0.028-0.832,0.112-1.668,0.229-2.492c0.06-0.457,0.118-0.92,0.263-1.361
				c0.125-0.393,0.017,0.012-0.412-0.314c-0.106-0.082-0.111-0.234-0.061-0.344c0.434-0.971,0.169-2.033,0.054-3.061
				c-0.173,0.023-0.343,0.039-0.515,0.045c-1.877,0.074-3.561-0.783-4.634-2.15l-0.256-6.553c0.96-1.445,2.578-2.43,4.448-2.504
				c1.869-0.074,3.558,0.779,4.627,2.148l0.258,6.555c-0.772,1.16-1.962,2.021-3.368,2.355c0.084,0.732,0.259,1.469,0.193,2.195
				c-0.058,0.605-0.316,0.93,0.218,1.344c0.124,0.094,0.121,0.301,0.018,0.404c-0.344,0.344-0.311,1.553-0.354,2.002
				c-0.055,0.566-0.118,1.139-0.137,1.707l16.866-0.656c0.009-0.008,0.009-0.016,0.02-0.025c0.577-0.531-0.318-1.275-0.53-1.785
				c-0.335-0.82,0.605-1.59,0.07-2.547c-0.25-0.459-0.633-1.027-0.613-1.58c0.01-0.529,0.087-1.053,0.106-1.578
				c-0.098,0.006-0.191,0.012-0.291,0.018c-1.87,0.074-3.555-0.781-4.627-2.15l-0.261-6.551c0.964-1.447,2.581-2.432,4.455-2.506
				c1.867-0.072,3.549,0.781,4.626,2.15l0.255,6.551c-0.81,1.221-2.078,2.107-3.584,2.404c-0.003,0.285-0.027,0.566-0.062,0.863
				c-0.097,0.826,0.108,1.344,0.477,2.072c0.298,0.584,0.342,0.971,0.198,1.617c-0.196,0.875,0.096,1.383,0.457,2.082
				c0.063,0.117,0.155,0.246,0.169,0.383c0.031,0.234,0,0.402-0.085,0.551l17.454-0.682c0.035-0.234,0.055-0.465,0.039-0.684
				c-0.094-1.031-0.646-0.719-0.967-1.367c-0.42-0.859-0.078-1.037,0.262-1.801c0.529-1.166-0.294-1.52-0.695-2.352
				c-0.209-0.418-0.229-0.922-0.209-1.426c-0.4,0.111-0.82,0.174-1.256,0.193c-1.868,0.074-3.553-0.783-4.627-2.15l-0.256-6.551
				c0.962-1.449,2.577-2.434,4.446-2.506c1.872-0.072,3.56,0.781,4.635,2.15l0.256,6.551c-0.63,0.947-1.541,1.693-2.614,2.119
				c-0.025,0.824,0.033,1.648,0.859,1.982c0.123,0.049,0.158,0.195,0.139,0.314c-0.121,0.82,0.159,1.467-0.332,2.17
				c-0.721,1.035,0.225,1.102,0.578,1.645c0.35,0.541,0.365,1.107,0.285,1.688l16.994-0.662c-0.008-0.465,0.043-0.939,0.102-1.424
				c0.109-0.859,0.349-2.113-0.211-2.885c-0.518-0.709-1.061-1.348-1.734-0.467c-0.358,0.469-0.736,0.551-1.104,0.059
				c-0.256-0.336-0.206-0.707-0.076-1.062c0.293-0.789,0.11-1.221-0.266-1.656c-0.136,0.018-0.277,0.031-0.427,0.035
				c-1.869,0.072-3.554-0.781-4.628-2.15l-0.258-6.553c0.961-1.447,2.581-2.43,4.445-2.504c1.872-0.072,3.562,0.781,4.639,2.148
				l0.254,6.555c-0.197,0.297-0.426,0.57-0.676,0.824c0.684,0.443,2.014,0.188,2.707,0.604c0.68,0.402,1.282,2.236,2.154,1.156
				c0.11-0.129,0.283-0.104,0.4-0.016c0.846,0.615,2.699-1.182,3.598-2.199c-0.224-0.205-0.429-0.428-0.616-0.666l-0.256-6.553
				c0.964-1.447,2.573-2.432,4.444-2.504c1.874-0.074,3.561,0.781,4.632,2.148l0.26,6.553c-0.204,0.303-0.434,0.584-0.688,0.842
				c0.131,0.131,0.247,0.303,0.365,0.531c0.928,1.84,1.739,3.904,3.272,5.336c0.269,0.25,0.068,1.127-0.259,0.959
				c-1.442-0.73-2.469-1.9-3.577-3.037c-0.422-0.434-0.921-1.166-1.393-1.523c-0.052-0.039-0.116-0.066-0.198-0.084
				c-0.666,0.971-1.646,1.74-2.846,2.141c-1.277,0.418-2.59,0.352-3.752-0.094c-0.259,0.566-0.553,1.098-0.962,1.615
				c-0.54,0.705-1.223,1.613-2.138,1.84c-0.012,0.004-0.021,0.006-0.033,0.008c0.479,0.885,0.124,2.152-0.288,2.988
				c-0.304,0.6-0.776,0.912-1.286,1.324c-0.562,0.453-0.959,1.078-1.578,1.469c-0.018,0.016-0.037,0.018-0.058,0.027
				c0.106,0.662,0.19,1.34,0.397,1.953l20.256-6.621l7.546-0.297c-0.155-0.219-0.31-0.406-0.385-0.715
				c-0.097-0.379-0.189-0.635-0.404-0.967c-0.251-0.391,0.087-1.223,0.11-1.664c0.006-0.193,0.149-0.318,0.349-0.287
				c0.799-0.592,0.93-1.062,0.385-1.414c-0.068-0.072-0.138-0.143-0.211-0.211c-0.072-0.084-0.132-0.172-0.181-0.268
				c-0.117-0.17-0.152-0.312-0.315-0.465c-0.118-0.105-0.12-0.283-0.017-0.398c0.164-0.193,0.222-0.264,0.314-0.338
				c-0.276-0.254-0.549-0.527-0.562-0.791c-1.739-0.035-3.288-0.869-4.299-2.154l-0.253-6.553c0.96-1.447,2.573-2.432,4.442-2.504
				c1.874-0.074,3.562,0.781,4.633,2.148l0.26,6.553c-0.899,1.354-2.368,2.301-4.082,2.479c-0.193,0.168,0.406,0.559,0.498,0.65
				c0.131,0.129,0.113,0.34-0.041,0.447c-0.609,0.416-0.222,0.064-0.089,0.486c0.104,0.33,0.301,0.494,0.529,0.719
				c0.385,0.379,0.532,0.719,0.558,1.264c0.045,0.746-0.672,0.939-1.285,0.936l0.035,0.166c0.044,0.098-0.005,0.205-0.062,0.281
				c-0.409,0.555,0.345,1.814,0.729,2.576l16.457-0.646c0.233-0.928,0.268-2.111-0.354-2.426c-0.149-0.076-0.173-0.242-0.118-0.383
				c0.461-1.211-1.018-2.25-0.678-3.508c0.042-0.156-0.386-0.695-0.461-0.908c-0.032-0.09-0.05-0.188-0.062-0.287
				c-1.617-0.115-3.056-0.926-4.009-2.141l-0.259-6.553c0.966-1.449,2.587-2.432,4.451-2.504c1.87-0.074,3.561,0.781,4.636,2.15
				l0.25,6.553c-0.964,1.447-2.573,2.432-4.448,2.504h-0.009c0.071,0.299,0.218,0.576,0.528,0.799
				c0.101,0.072,0.119,0.246,0.059,0.342c-0.646,1.07,0.797,2.318,0.575,3.559c0.688,0.531,0.728,1.742,0.491,2.781l18.492-0.723
				c-0.188-0.363-0.483-0.67-0.976-0.947c-0.415-0.225-0.729-0.252-0.882-0.734c-0.165-0.51,0.19-1.459,0.266-1.986
				c0.153-1.145,0.549-1.596-0.739-1.922c-0.152-0.041-0.245-0.188-0.21-0.342c0.098-0.512-0.048-1.037-0.154-1.566
				c-0.26,0.051-0.531,0.078-0.797,0.092c-1.867,0.07-3.551-0.783-4.627-2.154l-0.258-6.551c0.962-1.449,2.576-2.43,4.45-2.504
				c1.872-0.074,3.556,0.781,4.63,2.148l0.256,6.553c-0.727,1.094-1.824,1.922-3.124,2.293c0.089,0.518,0.239,1.025,0.206,1.553
				c0.48,0.168,1.128,0.521,1.146,1.025c0.016,0.451-0.157,1.029-0.228,1.502c-0.072,0.486,0.019,1.25-0.229,1.684
				c-0.053,0.105,1.277,0.861,1.527,1.09c0.22,0.201,0.355,0.459,0.438,0.742l22.451-0.881c-0.48-1.129-1.31-2.469-2.419-1.961
				c-0.111,0.055-0.256-0.023-0.323-0.119c-0.087-0.133-1.584-1.494-1.863-1.43c-0.117,0.029-0.262-0.002-0.328-0.117
				c-0.447-0.783-0.997-1.965-1.724-2.465c-0.562-0.383-0.858-1.031-0.964-1.691c-0.711,0.371-1.512,0.598-2.367,0.631
				c-1.867,0.072-3.561-0.781-4.633-2.152l-0.255-6.553c0.963-1.449,2.579-2.43,4.45-2.502c1.873-0.072,3.557,0.781,4.629,2.15
				l0.258,6.549c-0.41,0.613-0.933,1.143-1.541,1.555c0.062,0.812,0.48,1.494,1.297,1.85c0.094,0.039,0.14,0.145,0.15,0.238
				c0.027,0.217,0.807,1.979,1.182,1.891c0.284-0.064,0.532,0.078,0.766,0.215c0.356,0.209,0.968,0.867,1.211,1.213
				c0.086,0.133,0.74,0.107,0.908,0.164c0.365,0.115,0.731,0.428,1.002,0.676c0.025,0.025,0.046,0.049,0.072,0.072
				c0.575-0.607,1.391-0.762,2.2-0.951c0.888-0.209,1.861-0.375,2.23-1.383c0.136-0.373,0.241-0.68,0.549-0.943
				c0.679-0.594,1.918-0.672,2.745-0.945c1.349-0.451,0.9-1.041,0.194-1.793c-0.02-0.021-0.044-0.045-0.065-0.07
				c-0.232,0.037-0.469,0.061-0.704,0.07c-1.865,0.072-3.554-0.783-4.628-2.152l-0.255-6.551c0.959-1.449,2.579-2.432,4.444-2.506
				c1.871-0.072,3.561,0.783,4.635,2.15l0.253,6.551c-0.066,0.105-0.137,0.205-0.212,0.299c0.613,0.232,1.268,0.471,1.59,0.033
				c0.113-0.16,0.35-0.096,0.451,0.037c0.622,0.861,1.48,1.811,2.488,0.627c0.127-0.146,0.346-0.098,0.45,0.039
				c0.071,0.1,0.147,0.195,0.216,0.291c0.32-0.498,0.403-1.004,1.146-1.055c0.78-0.057,1.552,0.807,2.01,1.312
				c-0.119-0.125,0.072-0.578,0.29-0.998c-0.319-0.262-0.608-0.557-0.86-0.881l-0.258-6.551c0.96-1.449,2.582-2.43,4.449-2.504
				c1.871-0.074,3.56,0.779,4.627,2.15l0.262,6.551c-0.129,0.197-0.277,0.383-0.428,0.559c0.402,0.123,0.816,0.217,1.203,0.359
				c0.338,0.123,0.856,0.496,1.05,0.801c0.313,0.48-0.306,1.846,1.156,1.408c0.772-0.23,1.617-0.434,2.316-0.848
				c0.219-0.129,0.425-0.262,0.628-0.379l5.91-489.788l-702.956,27.471L-193.55,178.021z"/>
		</g>
	</g>
	<g>
		<g>
			<path fill="#323232" d="M49.01,56.552h2.938l0.396,1.881h0.099c0.506-0.792,1.073-1.369,1.7-1.732
				c0.627-0.363,1.402-0.544,2.326-0.544c1.672,0,2.932,0.633,3.778,1.897c0.847,1.265,1.271,3.372,1.271,6.319
				c0,2.949-0.527,5.209-1.584,6.782c-1.056,1.573-2.585,2.359-4.587,2.359c-0.528,0-0.979-0.044-1.353-0.132
				c-0.375-0.088-0.727-0.231-1.057-0.429v6.699H49.01V56.552z M52.937,69.356c0.22,0.22,0.468,0.385,0.743,0.495
				c0.274,0.11,0.632,0.165,1.072,0.165c0.88,0,1.551-0.434,2.013-1.303s0.693-2.348,0.693-4.438c0-1.562-0.177-2.723-0.528-3.481
				c-0.352-0.759-0.936-1.139-1.749-1.139c-1.101,0-1.848,0.649-2.244,1.947V69.356z"/>
			<path fill="#323232" d="M63.794,57.542c0.66-0.396,1.484-0.715,2.475-0.957s2.112-0.363,3.366-0.363
				c1.87,0,3.173,0.484,3.91,1.452c0.737,0.968,1.105,2.343,1.105,4.125c0,1.034-0.027,2.052-0.082,3.052
				c-0.056,1.001-0.094,1.98-0.115,2.937c-0.022,0.957-0.006,1.881,0.049,2.772c0.055,0.891,0.203,1.733,0.446,2.525h-3.201
				l-0.627-2.013h-0.132c-0.353,0.638-0.848,1.167-1.485,1.584c-0.639,0.417-1.441,0.627-2.409,0.627
				c-1.298,0-2.321-0.434-3.069-1.303s-1.122-2.03-1.122-3.482c0-1.98,0.704-3.388,2.112-4.224s3.311-1.188,5.709-1.056
				c0.11-1.276,0.027-2.2-0.247-2.772c-0.275-0.572-0.864-0.858-1.766-0.858c-0.66,0-1.343,0.077-2.046,0.231
				c-0.704,0.154-1.332,0.374-1.881,0.66L63.794,57.542z M68.513,69.917c0.594,0,1.078-0.149,1.452-0.446s0.648-0.621,0.825-0.974
				v-2.739c-0.507-0.066-0.99-0.077-1.452-0.033c-0.462,0.044-0.869,0.144-1.221,0.297c-0.353,0.154-0.633,0.379-0.842,0.676
				s-0.313,0.677-0.313,1.139c0,0.682,0.137,1.199,0.412,1.551C67.649,69.741,68.028,69.917,68.513,69.917z"/>
			<path fill="#323232" d="M85.178,60.446c-0.528-0.198-1.012-0.297-1.452-0.297c-0.594,0-1.105,0.165-1.534,0.495
				c-0.43,0.33-0.721,0.792-0.875,1.386v11.022H77.39v-16.5h3.003l0.462,1.98h0.132c0.286-0.726,0.698-1.292,1.238-1.7
				c0.538-0.407,1.16-0.61,1.864-0.61c0.528,0,1.045,0.11,1.551,0.33L85.178,60.446z"/>
			<path fill="#323232" d="M87.092,57.542c0.66-0.396,1.484-0.715,2.475-0.957s2.112-0.363,3.366-0.363
				c1.87,0,3.173,0.484,3.91,1.452c0.737,0.968,1.105,2.343,1.105,4.125c0,1.034-0.027,2.052-0.082,3.052
				c-0.056,1.001-0.094,1.98-0.115,2.937c-0.022,0.957-0.006,1.881,0.049,2.772c0.055,0.891,0.203,1.733,0.446,2.525h-3.201
				l-0.627-2.013h-0.132c-0.353,0.638-0.848,1.167-1.485,1.584c-0.639,0.417-1.441,0.627-2.409,0.627
				c-1.298,0-2.321-0.434-3.069-1.303S86.2,69.95,86.2,68.498c0-1.98,0.704-3.388,2.112-4.224s3.311-1.188,5.709-1.056
				c0.11-1.276,0.027-2.2-0.247-2.772c-0.275-0.572-0.864-0.858-1.766-0.858c-0.66,0-1.343,0.077-2.046,0.231
				c-0.704,0.154-1.332,0.374-1.881,0.66L87.092,57.542z M91.811,69.917c0.594,0,1.078-0.149,1.452-0.446s0.648-0.621,0.825-0.974
				v-2.739c-0.507-0.066-0.99-0.077-1.452-0.033c-0.462,0.044-0.869,0.144-1.221,0.297c-0.353,0.154-0.633,0.379-0.842,0.676
				s-0.313,0.677-0.313,1.139c0,0.682,0.137,1.199,0.412,1.551C90.947,69.741,91.326,69.917,91.811,69.917z"/>
			<path fill="#323232" d="M99.532,56.552h1.782v-0.924c0-2.09,0.391-3.603,1.172-4.538c0.78-0.935,1.897-1.402,3.35-1.402
				c1.451,0,2.661,0.198,3.63,0.594l-0.727,3.333c-0.396-0.154-0.748-0.248-1.056-0.28c-0.309-0.033-0.627-0.05-0.957-0.05
				c-0.639,0-1.045,0.248-1.221,0.743c-0.177,0.495-0.265,1.336-0.265,2.524h2.806v3.498h-2.806v13.002h-3.927V60.05h-1.782V56.552z
				"/>
			<path fill="#323232" d="M117.286,60.446c-0.528-0.198-1.012-0.297-1.452-0.297c-0.594,0-1.105,0.165-1.534,0.495
				c-0.43,0.33-0.721,0.792-0.875,1.386v11.022h-3.927v-16.5h3.003l0.462,1.98h0.132c0.286-0.726,0.698-1.292,1.238-1.7
				c0.538-0.407,1.16-0.61,1.864-0.61c0.528,0,1.045,0.11,1.551,0.33L117.286,60.446z"/>
			<path fill="#323232" d="M119.2,57.542c0.66-0.396,1.484-0.715,2.475-0.957s2.112-0.363,3.366-0.363
				c1.87,0,3.173,0.484,3.91,1.452c0.737,0.968,1.105,2.343,1.105,4.125c0,1.034-0.027,2.052-0.082,3.052
				c-0.056,1.001-0.094,1.98-0.115,2.937c-0.022,0.957-0.006,1.881,0.049,2.772c0.055,0.891,0.203,1.733,0.446,2.525h-3.201
				l-0.627-2.013h-0.132c-0.353,0.638-0.848,1.167-1.485,1.584c-0.639,0.417-1.441,0.627-2.409,0.627
				c-1.298,0-2.321-0.434-3.069-1.303s-1.122-2.03-1.122-3.482c0-1.98,0.704-3.388,2.112-4.224s3.311-1.188,5.709-1.056
				c0.11-1.276,0.027-2.2-0.247-2.772c-0.275-0.572-0.864-0.858-1.766-0.858c-0.66,0-1.343,0.077-2.046,0.231
				c-0.704,0.154-1.332,0.374-1.881,0.66L119.2,57.542z M123.919,69.917c0.594,0,1.078-0.149,1.452-0.446s0.648-0.621,0.825-0.974
				v-2.739c-0.507-0.066-0.99-0.077-1.452-0.033c-0.462,0.044-0.869,0.144-1.221,0.297c-0.353,0.154-0.633,0.379-0.842,0.676
				s-0.313,0.677-0.313,1.139c0,0.682,0.137,1.199,0.412,1.551C123.056,69.741,123.435,69.917,123.919,69.917z"/>
			<path fill="#323232" d="M138.34,68.663c0-0.462-0.148-0.852-0.445-1.171c-0.297-0.319-0.677-0.616-1.139-0.891
				c-0.462-0.275-0.952-0.555-1.469-0.841c-0.517-0.286-1.006-0.638-1.468-1.056c-0.462-0.417-0.842-0.924-1.139-1.518
				c-0.297-0.594-0.445-1.341-0.445-2.244c0-1.54,0.417-2.728,1.254-3.564c0.836-0.836,2.067-1.254,3.695-1.254
				c0.968,0,1.882,0.105,2.739,0.313c0.858,0.209,1.54,0.468,2.046,0.776l-0.924,3.036c-0.418-0.176-0.924-0.346-1.518-0.511
				c-0.595-0.165-1.178-0.248-1.749-0.248c-1.078,0-1.617,0.451-1.617,1.353c0,0.418,0.148,0.765,0.445,1.04
				c0.297,0.275,0.677,0.544,1.139,0.809c0.462,0.264,0.951,0.539,1.469,0.825c0.517,0.286,1.006,0.644,1.468,1.073
				c0.462,0.429,0.842,0.952,1.139,1.567c0.297,0.616,0.445,1.375,0.445,2.277c0,1.518-0.462,2.739-1.386,3.663
				s-2.299,1.386-4.125,1.386c-0.902,0-1.787-0.11-2.656-0.33s-1.567-0.506-2.096-0.858l1.089-3.168
				c0.462,0.264,0.995,0.495,1.601,0.693c0.604,0.198,1.237,0.297,1.897,0.297c0.506,0,0.924-0.116,1.254-0.347
				S138.34,69.169,138.34,68.663z"/>
			<path fill="#323232" d="M155.5,71.831c-0.551,0.484-1.299,0.88-2.244,1.188c-0.946,0.308-1.937,0.462-2.97,0.462
				c-1.145,0-2.129-0.198-2.954-0.594s-1.501-0.968-2.029-1.716c-0.528-0.748-0.919-1.655-1.172-2.723
				c-0.253-1.067-0.379-2.282-0.379-3.646c0-2.97,0.588-5.165,1.766-6.583c1.177-1.419,2.81-2.128,4.9-2.128
				c0.704,0,1.386,0.104,2.046,0.313c0.66,0.209,1.248,0.561,1.766,1.056c0.517,0.495,0.935,1.155,1.254,1.98
				c0.318,0.825,0.479,1.864,0.479,3.118c0,0.484-0.028,1.001-0.083,1.551s-0.138,1.144-0.247,1.782h-8.02
				c0.044,1.364,0.33,2.409,0.858,3.135s1.375,1.089,2.541,1.089c0.704,0,1.348-0.11,1.931-0.33c0.583-0.22,1.028-0.451,1.336-0.693
				L155.5,71.831z M150.352,59.456c-0.836,0-1.463,0.336-1.881,1.007c-0.418,0.671-0.66,1.612-0.726,2.821h4.554
				c0.066-1.254-0.066-2.205-0.396-2.854C151.573,59.781,151.056,59.456,150.352,59.456z"/>
			<path fill="#323232" d="M158.503,57.542c0.66-0.396,1.484-0.715,2.475-0.957s2.112-0.363,3.366-0.363
				c1.87,0,3.173,0.484,3.91,1.452c0.737,0.968,1.105,2.343,1.105,4.125c0,1.034-0.027,2.052-0.082,3.052
				c-0.056,1.001-0.094,1.98-0.115,2.937c-0.022,0.957-0.006,1.881,0.049,2.772c0.055,0.891,0.203,1.733,0.446,2.525h-3.201
				l-0.627-2.013h-0.132c-0.353,0.638-0.848,1.167-1.485,1.584c-0.639,0.417-1.441,0.627-2.409,0.627
				c-1.298,0-2.321-0.434-3.069-1.303s-1.122-2.03-1.122-3.482c0-1.98,0.704-3.388,2.112-4.224s3.311-1.188,5.709-1.056
				c0.11-1.276,0.027-2.2-0.247-2.772c-0.275-0.572-0.864-0.858-1.766-0.858c-0.66,0-1.343,0.077-2.046,0.231
				c-0.704,0.154-1.332,0.374-1.881,0.66L158.503,57.542z M163.222,69.917c0.594,0,1.078-0.149,1.452-0.446s0.648-0.621,0.825-0.974
				v-2.739c-0.507-0.066-0.99-0.077-1.452-0.033c-0.462,0.044-0.869,0.144-1.221,0.297c-0.353,0.154-0.633,0.379-0.842,0.676
				s-0.313,0.677-0.313,1.139c0,0.682,0.137,1.199,0.412,1.551C162.358,69.741,162.737,69.917,163.222,69.917z"/>
			<path fill="#323232" d="M180.281,73.052V63.02c0-1.209-0.143-2.057-0.429-2.541c-0.286-0.483-0.771-0.726-1.452-0.726
				c-0.572,0-1.067,0.176-1.484,0.528c-0.419,0.352-0.716,0.792-0.892,1.32v11.451h-3.927v-16.5h3.135l0.462,1.914h0.1
				c0.396-0.638,0.935-1.183,1.617-1.634c0.682-0.45,1.572-0.676,2.673-0.676c0.66,0,1.248,0.099,1.766,0.297
				c0.517,0.198,0.951,0.523,1.303,0.974c0.352,0.451,0.616,1.056,0.792,1.815c0.176,0.759,0.265,1.7,0.265,2.822v10.989H180.281z"
				/>
			<path fill="#323232" d="M198.762,67.244c0,0.924,0.011,1.848,0.033,2.772c0.021,0.924,0.11,1.947,0.265,3.069h-2.772
				l-0.528-1.914h-0.132c-0.748,1.54-2.058,2.31-3.927,2.31c-1.672,0-2.986-0.66-3.943-1.98c-0.957-1.32-1.436-3.465-1.436-6.435
				c0-2.904,0.517-5.109,1.551-6.617c1.034-1.507,2.574-2.26,4.62-2.26c0.528,0,0.968,0.033,1.32,0.099
				c0.352,0.066,0.692,0.176,1.022,0.33v-6.666h3.927V67.244z M192.624,69.884c0.594,0,1.067-0.148,1.419-0.445
				c0.352-0.297,0.616-0.731,0.792-1.304v-7.788c-0.22-0.198-0.468-0.341-0.742-0.429c-0.275-0.088-0.633-0.132-1.072-0.132
				c-0.881,0-1.541,0.396-1.98,1.188c-0.44,0.792-0.66,2.2-0.66,4.224c0,1.518,0.182,2.679,0.545,3.481
				C191.287,69.483,191.854,69.884,192.624,69.884z"/>
			<path fill="#323232" d="M201.006,64.802c0-2.926,0.571-5.104,1.716-6.534c1.144-1.43,2.739-2.145,4.785-2.145
				c2.199,0,3.839,0.726,4.917,2.178c1.077,1.452,1.617,3.619,1.617,6.501c0,2.948-0.572,5.131-1.717,6.55
				c-1.144,1.419-2.75,2.129-4.817,2.129C203.172,73.481,201.006,70.588,201.006,64.802z M205.064,64.802
				c0,1.65,0.187,2.926,0.562,3.828c0.373,0.902,1.001,1.353,1.881,1.353c0.836,0,1.457-0.391,1.864-1.172
				c0.407-0.78,0.61-2.117,0.61-4.009c0-1.694-0.187-2.981-0.561-3.861c-0.375-0.88-1.013-1.32-1.914-1.32
				c-0.771,0-1.37,0.391-1.799,1.172S205.064,62.911,205.064,64.802z"/>
		</g>
		<g>
			<path fill="#323232" d="M124.749,98.786c0,0.771,0.077,1.32,0.23,1.65c0.154,0.33,0.407,0.495,0.76,0.495
				c0.197,0,0.4-0.021,0.61-0.066c0.209-0.044,0.445-0.121,0.709-0.231l0.363,3.168c-0.264,0.176-0.715,0.341-1.353,0.495
				c-0.639,0.154-1.287,0.231-1.947,0.231c-1.101,0-1.926-0.275-2.476-0.825c-0.55-0.549-0.824-1.485-0.824-2.805V81.032h3.927
				V98.786z"/>
			<path fill="#323232" d="M128.676,82.979c0-0.66,0.209-1.205,0.627-1.634c0.417-0.429,1.012-0.644,1.781-0.644
				c0.771,0,1.387,0.209,1.849,0.627c0.462,0.418,0.692,0.969,0.692,1.65c0,0.682-0.23,1.221-0.692,1.617s-1.078,0.594-1.849,0.594
				c-0.77,0-1.364-0.203-1.781-0.611C128.885,84.173,128.676,83.639,128.676,82.979z M129.104,87.632h3.927v16.5h-3.927V87.632z"/>
			<path fill="#323232" d="M141.215,96.245l0.396,2.607h0.132l0.363-2.64l2.046-8.58h4.224l-5.544,16.665h-2.64l-5.841-16.665h4.587
				L141.215,96.245z"/>
			<path fill="#323232" d="M157.154,91.526c-0.528-0.198-1.012-0.297-1.452-0.297c-0.594,0-1.105,0.165-1.534,0.495
				c-0.43,0.33-0.721,0.792-0.875,1.386v11.022h-3.927v-16.5h3.003l0.462,1.98h0.132c0.286-0.726,0.698-1.292,1.238-1.7
				c0.538-0.407,1.16-0.61,1.864-0.61c0.528,0,1.045,0.11,1.551,0.33L157.154,91.526z"/>
			<path fill="#323232" d="M158.441,95.882c0-2.926,0.571-5.104,1.716-6.534c1.144-1.43,2.739-2.145,4.785-2.145
				c2.199,0,3.839,0.726,4.917,2.178c1.077,1.452,1.617,3.619,1.617,6.501c0,2.948-0.572,5.131-1.717,6.55
				c-1.144,1.419-2.75,2.129-4.817,2.129C160.607,104.562,158.441,101.668,158.441,95.882z M162.5,95.882
				c0,1.65,0.187,2.926,0.562,3.828c0.373,0.902,1.001,1.353,1.881,1.353c0.836,0,1.457-0.391,1.864-1.172
				c0.407-0.78,0.61-2.117,0.61-4.009c0-1.694-0.187-2.981-0.561-3.861c-0.375-0.88-1.013-1.32-1.914-1.32
				c-0.771,0-1.37,0.391-1.799,1.172S162.5,93.991,162.5,95.882z"/>
			<path fill="#323232" d="M179.264,99.743c0-0.462-0.148-0.852-0.445-1.171c-0.297-0.319-0.677-0.616-1.139-0.891
				c-0.462-0.275-0.952-0.555-1.469-0.841c-0.517-0.286-1.006-0.638-1.468-1.056c-0.462-0.417-0.842-0.924-1.139-1.518
				c-0.297-0.594-0.445-1.341-0.445-2.244c0-1.54,0.417-2.728,1.254-3.564c0.836-0.836,2.067-1.254,3.695-1.254
				c0.968,0,1.882,0.105,2.739,0.313c0.858,0.209,1.54,0.468,2.046,0.776l-0.924,3.036c-0.418-0.176-0.924-0.346-1.518-0.511
				c-0.595-0.165-1.178-0.248-1.749-0.248c-1.078,0-1.617,0.451-1.617,1.353c0,0.418,0.148,0.765,0.445,1.04
				c0.297,0.275,0.677,0.544,1.139,0.809c0.462,0.264,0.951,0.539,1.469,0.825c0.517,0.286,1.006,0.644,1.468,1.073
				c0.462,0.429,0.842,0.952,1.139,1.567c0.297,0.616,0.445,1.375,0.445,2.277c0,1.518-0.462,2.739-1.386,3.663
				s-2.299,1.386-4.125,1.386c-0.902,0-1.787-0.11-2.656-0.33s-1.567-0.506-2.096-0.858l1.089-3.168
				c0.462,0.264,0.995,0.495,1.601,0.693c0.604,0.198,1.237,0.297,1.897,0.297c0.506,0,0.924-0.116,1.254-0.347
				S179.264,100.25,179.264,99.743z"/>
		</g>
		<g>
			<path fill="#A2A20E" d="M17.262,67.74c0-0.828-0.021-2.066-0.056-3.713c-0.041-1.645-0.059-2.857-0.059-3.635
				c0-1.529,0.041-2.844,0.138-3.947c0.085-1.1,0.288-2.229,0.6-3.381c0.311-1.154,0.739-2.088,1.283-2.799
				c0.545-0.715,1.283-1.297,2.217-1.75c0.932-0.455,2.047-0.682,3.342-0.682l2.49,4.977c-1.789,0-3.066,0.389-3.83,1.168
				c-0.766,0.775-1.147,2.047-1.147,3.809h4.978v9.953H17.262z M32.193,67.74c0-0.828-0.022-2.066-0.059-3.713
				c-0.041-1.645-0.059-2.857-0.059-3.635c0-1.529,0.045-2.844,0.137-3.947c0.088-1.1,0.29-2.229,0.602-3.381
				c0.312-1.154,0.737-2.088,1.283-2.799c0.544-0.715,1.283-1.297,2.217-1.75c0.932-0.455,2.047-0.682,3.343-0.682l2.49,4.977
				c-1.791,0-3.066,0.389-3.833,1.168c-0.764,0.775-1.145,2.047-1.145,3.809h4.978v9.953H32.193z"/>
		</g>
		<g>
			<path fill="#A2A20E" d="M192.365,105.363l-2.5-5c1.797,0,3.078-0.391,3.848-1.172c0.766-0.781,1.152-2.057,1.152-3.828h-5v-10h10
				c0,3.75-0.039,6.9-0.116,9.453c-0.054,1.406-0.132,2.592-0.235,3.555c-0.106,0.965-0.312,1.922-0.625,2.871
				c-0.312,0.951-0.731,1.707-1.25,2.266c-0.521,0.561-1.22,1.01-2.092,1.348C194.673,105.195,193.615,105.363,192.365,105.363z
				 M207.365,105.363l-2.5-5c1.797,0,3.078-0.391,3.848-1.172c0.766-0.781,1.152-2.057,1.152-3.828h-5v-10h10
				c0,3.75-0.039,6.9-0.116,9.453c-0.054,1.406-0.132,2.592-0.235,3.555c-0.106,0.965-0.312,1.922-0.625,2.871
				c-0.312,0.951-0.731,1.707-1.25,2.266c-0.521,0.561-1.22,1.01-2.092,1.348C209.673,105.195,208.615,105.363,207.365,105.363z"/>
		</g>
	</g>
	<g>
		<path fill="#636363" d="M18.411,135.852v-8.104h0.816c0.154,0,0.261,0.029,0.319,0.088c0.059,0.059,0.099,0.16,0.12,0.304
			l0.096,1.264c0.277-0.565,0.62-1.006,1.028-1.324s0.887-0.476,1.437-0.476c0.224,0,0.426,0.025,0.607,0.076
			s0.35,0.121,0.504,0.212l-0.184,1.064c-0.037,0.133-0.12,0.2-0.248,0.2c-0.075,0-0.189-0.025-0.344-0.076
			c-0.155-0.051-0.371-0.076-0.648-0.076c-0.496,0-0.91,0.144-1.244,0.432c-0.333,0.288-0.611,0.707-0.836,1.256v5.16H18.411z"/>
		<path fill="#636363" d="M28.067,127.62c0.485,0,0.934,0.082,1.344,0.244c0.411,0.163,0.766,0.397,1.064,0.704
			c0.299,0.307,0.532,0.686,0.7,1.136s0.252,0.964,0.252,1.54c0,0.224-0.024,0.373-0.072,0.448s-0.139,0.112-0.272,0.112h-5.392
			c0.011,0.512,0.08,0.957,0.208,1.336s0.304,0.695,0.528,0.948c0.224,0.253,0.49,0.443,0.8,0.568
			c0.31,0.125,0.656,0.188,1.04,0.188c0.357,0,0.665-0.042,0.924-0.124c0.259-0.083,0.481-0.172,0.668-0.268
			c0.187-0.096,0.343-0.186,0.468-0.268c0.126-0.083,0.233-0.124,0.324-0.124c0.117,0,0.208,0.045,0.272,0.136l0.399,0.52
			c-0.176,0.213-0.387,0.399-0.632,0.556s-0.508,0.287-0.788,0.388c-0.28,0.101-0.569,0.177-0.868,0.228
			c-0.299,0.05-0.595,0.076-0.888,0.076c-0.56,0-1.076-0.095-1.548-0.284c-0.473-0.189-0.88-0.467-1.225-0.832
			c-0.344-0.365-0.611-0.817-0.804-1.356c-0.191-0.539-0.288-1.157-0.288-1.856c0-0.565,0.087-1.093,0.26-1.584
			c0.174-0.491,0.423-0.916,0.748-1.276c0.325-0.36,0.723-0.643,1.192-0.848C26.953,127.723,27.48,127.62,28.067,127.62z
			 M28.1,128.668c-0.688,0-1.229,0.199-1.624,0.596s-0.641,0.948-0.736,1.652h4.408c0-0.331-0.046-0.633-0.136-0.908
			c-0.091-0.274-0.225-0.512-0.4-0.712c-0.176-0.2-0.391-0.354-0.644-0.464C28.714,128.723,28.425,128.668,28.1,128.668z"/>
		<path fill="#636363" d="M37.883,129.084c-0.063,0.118-0.162,0.176-0.296,0.176c-0.08,0-0.171-0.029-0.271-0.088
			c-0.102-0.059-0.226-0.124-0.372-0.196c-0.146-0.072-0.321-0.139-0.524-0.2c-0.202-0.061-0.442-0.092-0.72-0.092
			c-0.24,0-0.456,0.031-0.648,0.092c-0.191,0.062-0.355,0.146-0.491,0.252c-0.137,0.107-0.24,0.231-0.312,0.372
			c-0.072,0.142-0.107,0.295-0.107,0.46c0,0.208,0.06,0.381,0.18,0.52c0.12,0.139,0.278,0.259,0.476,0.36
			c0.197,0.101,0.422,0.19,0.672,0.268c0.251,0.078,0.509,0.16,0.772,0.248c0.264,0.088,0.521,0.186,0.771,0.292
			c0.251,0.107,0.475,0.24,0.673,0.4c0.197,0.16,0.355,0.356,0.476,0.588s0.18,0.511,0.18,0.836c0,0.374-0.066,0.719-0.199,1.036
			c-0.134,0.317-0.331,0.592-0.593,0.824c-0.261,0.232-0.581,0.415-0.96,0.548c-0.379,0.133-0.815,0.2-1.312,0.2
			c-0.565,0-1.077-0.092-1.536-0.276s-0.848-0.42-1.168-0.708l0.336-0.544c0.043-0.069,0.093-0.123,0.152-0.16
			c0.059-0.037,0.136-0.056,0.231-0.056s0.197,0.038,0.304,0.112c0.107,0.075,0.236,0.157,0.389,0.248
			c0.151,0.091,0.336,0.173,0.552,0.248s0.486,0.112,0.812,0.112c0.276,0,0.52-0.036,0.728-0.108
			c0.208-0.072,0.381-0.169,0.52-0.292s0.242-0.264,0.309-0.424c0.066-0.16,0.1-0.331,0.1-0.512c0-0.224-0.06-0.409-0.18-0.556
			c-0.12-0.146-0.278-0.272-0.476-0.376c-0.198-0.104-0.423-0.194-0.677-0.272c-0.253-0.077-0.512-0.159-0.775-0.244
			c-0.265-0.085-0.523-0.183-0.776-0.292c-0.253-0.109-0.479-0.247-0.676-0.412c-0.197-0.166-0.356-0.37-0.477-0.612
			c-0.119-0.243-0.18-0.537-0.18-0.884c0-0.31,0.064-0.607,0.192-0.892s0.314-0.536,0.56-0.752c0.245-0.216,0.547-0.388,0.904-0.516
			s0.765-0.192,1.224-0.192c0.533,0,1.012,0.084,1.437,0.252c0.424,0.168,0.79,0.399,1.1,0.692L37.883,129.084z"/>
		<path fill="#636363" d="M43.395,127.62c0.485,0,0.934,0.082,1.344,0.244c0.411,0.163,0.766,0.397,1.064,0.704
			c0.299,0.307,0.532,0.686,0.7,1.136s0.252,0.964,0.252,1.54c0,0.224-0.024,0.373-0.072,0.448s-0.139,0.112-0.272,0.112h-5.392
			c0.011,0.512,0.08,0.957,0.208,1.336s0.304,0.695,0.528,0.948c0.224,0.253,0.49,0.443,0.8,0.568
			c0.31,0.125,0.656,0.188,1.04,0.188c0.357,0,0.665-0.042,0.924-0.124c0.259-0.083,0.481-0.172,0.668-0.268
			c0.187-0.096,0.343-0.186,0.468-0.268c0.126-0.083,0.233-0.124,0.324-0.124c0.117,0,0.208,0.045,0.272,0.136l0.399,0.52
			c-0.176,0.213-0.387,0.399-0.632,0.556s-0.508,0.287-0.788,0.388c-0.28,0.101-0.569,0.177-0.868,0.228
			c-0.299,0.05-0.595,0.076-0.888,0.076c-0.56,0-1.076-0.095-1.548-0.284c-0.473-0.189-0.88-0.467-1.225-0.832
			c-0.344-0.365-0.611-0.817-0.804-1.356c-0.191-0.539-0.288-1.157-0.288-1.856c0-0.565,0.087-1.093,0.26-1.584
			c0.174-0.491,0.423-0.916,0.748-1.276c0.325-0.36,0.723-0.643,1.192-0.848C42.28,127.723,42.808,127.62,43.395,127.62z
			 M43.427,128.668c-0.688,0-1.229,0.199-1.624,0.596s-0.641,0.948-0.736,1.652h4.408c0-0.331-0.046-0.633-0.136-0.908
			c-0.091-0.274-0.225-0.512-0.4-0.712c-0.176-0.2-0.391-0.354-0.644-0.464C44.041,128.723,43.752,128.668,43.427,128.668z"/>
		<path fill="#636363" d="M48.57,135.852v-8.104h0.848c0.203,0,0.331,0.099,0.385,0.296l0.111,0.88
			c0.353-0.389,0.745-0.704,1.181-0.944c0.435-0.24,0.937-0.36,1.508-0.36c0.442,0,0.833,0.073,1.172,0.22
			c0.339,0.147,0.621,0.355,0.848,0.624c0.227,0.27,0.398,0.594,0.517,0.972c0.117,0.379,0.176,0.797,0.176,1.256v5.16h-1.424v-5.16
			c0-0.613-0.141-1.089-0.42-1.428c-0.28-0.339-0.708-0.508-1.284-0.508c-0.422,0-0.814,0.102-1.181,0.304
			c-0.365,0.203-0.702,0.478-1.012,0.824v5.968H48.57z"/>
		<path fill="#636363" d="M57.467,135.852v-11.784h1.424v4.768c0.347-0.368,0.73-0.663,1.152-0.884
			c0.421-0.221,0.906-0.332,1.456-0.332c0.442,0,0.833,0.073,1.172,0.22c0.339,0.147,0.621,0.355,0.848,0.624
			c0.227,0.27,0.398,0.594,0.517,0.972c0.117,0.379,0.176,0.797,0.176,1.256v5.16h-1.424v-5.16c0-0.613-0.141-1.089-0.42-1.428
			c-0.28-0.339-0.708-0.508-1.284-0.508c-0.422,0-0.814,0.102-1.181,0.304c-0.365,0.203-0.702,0.478-1.012,0.824v5.968H57.467z"/>
		<path fill="#636363" d="M72.314,135.852h-0.632c-0.139,0-0.251-0.021-0.336-0.064c-0.086-0.042-0.142-0.133-0.168-0.272
			l-0.16-0.752c-0.214,0.192-0.422,0.364-0.624,0.516c-0.203,0.152-0.416,0.28-0.641,0.384c-0.224,0.104-0.462,0.183-0.716,0.236
			c-0.253,0.053-0.534,0.08-0.844,0.08c-0.314,0-0.609-0.044-0.884-0.132c-0.275-0.088-0.514-0.221-0.716-0.397
			c-0.203-0.177-0.364-0.4-0.484-0.67c-0.12-0.27-0.18-0.59-0.18-0.959c0-0.321,0.088-0.63,0.264-0.927s0.46-0.561,0.852-0.791
			c0.393-0.23,0.905-0.419,1.54-0.566c0.635-0.147,1.411-0.221,2.328-0.221v-0.636c0-0.633-0.135-1.112-0.403-1.437
			c-0.27-0.325-0.668-0.487-1.196-0.487c-0.347,0-0.639,0.044-0.876,0.132s-0.443,0.187-0.616,0.296s-0.322,0.208-0.448,0.296
			c-0.125,0.088-0.249,0.132-0.372,0.132c-0.096,0-0.18-0.025-0.252-0.076c-0.071-0.051-0.129-0.113-0.172-0.188l-0.256-0.456
			c0.448-0.432,0.931-0.755,1.448-0.968c0.517-0.213,1.091-0.32,1.72-0.32c0.453,0,0.856,0.075,1.208,0.224
			c0.353,0.149,0.648,0.357,0.888,0.624c0.24,0.267,0.422,0.589,0.544,0.968c0.123,0.379,0.185,0.795,0.185,1.248V135.852z
			 M68.618,134.98c0.251,0,0.48-0.025,0.688-0.076c0.208-0.05,0.403-0.123,0.588-0.216c0.184-0.093,0.359-0.207,0.527-0.34
			c0.169-0.133,0.332-0.285,0.492-0.456v-1.672c-0.655,0-1.213,0.042-1.672,0.125c-0.459,0.083-0.832,0.192-1.12,0.326
			c-0.288,0.134-0.497,0.292-0.628,0.475s-0.196,0.386-0.196,0.611c0,0.215,0.035,0.4,0.104,0.555
			c0.069,0.156,0.163,0.283,0.28,0.382s0.256,0.172,0.416,0.217C68.259,134.958,68.432,134.98,68.618,134.98z"/>
		<path fill="#636363" d="M79.114,129.084c-0.063,0.118-0.162,0.176-0.296,0.176c-0.08,0-0.171-0.029-0.271-0.088
			c-0.102-0.059-0.226-0.124-0.372-0.196c-0.146-0.072-0.321-0.139-0.524-0.2c-0.202-0.061-0.442-0.092-0.72-0.092
			c-0.24,0-0.456,0.031-0.648,0.092c-0.191,0.062-0.355,0.146-0.491,0.252c-0.137,0.107-0.24,0.231-0.312,0.372
			c-0.072,0.142-0.107,0.295-0.107,0.46c0,0.208,0.06,0.381,0.18,0.52c0.12,0.139,0.278,0.259,0.476,0.36
			c0.197,0.101,0.422,0.19,0.672,0.268c0.251,0.078,0.509,0.16,0.772,0.248c0.264,0.088,0.521,0.186,0.771,0.292
			c0.251,0.107,0.475,0.24,0.673,0.4c0.197,0.16,0.355,0.356,0.476,0.588s0.18,0.511,0.18,0.836c0,0.374-0.066,0.719-0.199,1.036
			c-0.134,0.317-0.331,0.592-0.593,0.824c-0.261,0.232-0.581,0.415-0.96,0.548c-0.379,0.133-0.815,0.2-1.312,0.2
			c-0.565,0-1.077-0.092-1.536-0.276s-0.848-0.42-1.168-0.708l0.336-0.544c0.043-0.069,0.093-0.123,0.152-0.16
			c0.059-0.037,0.136-0.056,0.231-0.056s0.197,0.038,0.304,0.112c0.107,0.075,0.236,0.157,0.389,0.248
			c0.151,0.091,0.336,0.173,0.552,0.248s0.486,0.112,0.812,0.112c0.276,0,0.52-0.036,0.728-0.108
			c0.208-0.072,0.381-0.169,0.52-0.292s0.242-0.264,0.309-0.424c0.066-0.16,0.1-0.331,0.1-0.512c0-0.224-0.06-0.409-0.18-0.556
			c-0.12-0.146-0.278-0.272-0.476-0.376c-0.198-0.104-0.423-0.194-0.677-0.272c-0.253-0.077-0.512-0.159-0.775-0.244
			c-0.265-0.085-0.523-0.183-0.776-0.292c-0.253-0.109-0.479-0.247-0.676-0.412c-0.197-0.166-0.356-0.37-0.477-0.612
			c-0.119-0.243-0.18-0.537-0.18-0.884c0-0.31,0.064-0.607,0.192-0.892s0.314-0.536,0.56-0.752c0.245-0.216,0.547-0.388,0.904-0.516
			s0.765-0.192,1.224-0.192c0.533,0,1.012,0.084,1.437,0.252c0.424,0.168,0.79,0.399,1.1,0.692L79.114,129.084z"/>
		<path fill="#636363" d="M87.714,127.62c0.485,0,0.934,0.082,1.344,0.244c0.411,0.163,0.766,0.397,1.064,0.704
			c0.299,0.307,0.532,0.686,0.7,1.136s0.252,0.964,0.252,1.54c0,0.224-0.024,0.373-0.072,0.448s-0.139,0.112-0.272,0.112h-5.392
			c0.011,0.512,0.08,0.957,0.208,1.336s0.304,0.695,0.528,0.948c0.224,0.253,0.49,0.443,0.8,0.568
			c0.31,0.125,0.656,0.188,1.04,0.188c0.357,0,0.665-0.042,0.924-0.124c0.259-0.083,0.481-0.172,0.668-0.268
			c0.187-0.096,0.343-0.186,0.468-0.268c0.126-0.083,0.233-0.124,0.324-0.124c0.117,0,0.208,0.045,0.272,0.136l0.399,0.52
			c-0.176,0.213-0.387,0.399-0.632,0.556s-0.508,0.287-0.788,0.388c-0.28,0.101-0.569,0.177-0.868,0.228
			c-0.299,0.05-0.595,0.076-0.888,0.076c-0.56,0-1.076-0.095-1.548-0.284c-0.473-0.189-0.88-0.467-1.225-0.832
			c-0.344-0.365-0.611-0.817-0.804-1.356c-0.191-0.539-0.288-1.157-0.288-1.856c0-0.565,0.087-1.093,0.26-1.584
			c0.174-0.491,0.423-0.916,0.748-1.276c0.325-0.36,0.723-0.643,1.192-0.848C86.6,127.723,87.127,127.62,87.714,127.62z
			 M87.746,128.668c-0.688,0-1.229,0.199-1.624,0.596s-0.641,0.948-0.736,1.652h4.408c0-0.331-0.046-0.633-0.136-0.908
			c-0.091-0.274-0.225-0.512-0.4-0.712c-0.176-0.2-0.391-0.354-0.644-0.464C88.36,128.723,88.071,128.668,87.746,128.668z"/>
		<path fill="#636363" d="M95.978,135.852v-8.104h0.848c0.203,0,0.331,0.099,0.385,0.296l0.111,0.88
			c0.353-0.389,0.745-0.704,1.181-0.944c0.435-0.24,0.937-0.36,1.508-0.36c0.442,0,0.833,0.073,1.172,0.22
			c0.339,0.147,0.621,0.355,0.848,0.624c0.227,0.27,0.398,0.594,0.517,0.972c0.117,0.379,0.176,0.797,0.176,1.256v5.16h-1.424v-5.16
			c0-0.613-0.141-1.089-0.42-1.428c-0.28-0.339-0.708-0.508-1.284-0.508c-0.422,0-0.814,0.102-1.181,0.304
			c-0.365,0.203-0.702,0.478-1.012,0.824v5.968H95.978z"/>
		<path fill="#636363" d="M108.154,127.62c0.592,0,1.126,0.099,1.604,0.296s0.883,0.478,1.216,0.84
			c0.334,0.363,0.59,0.802,0.769,1.316s0.268,1.089,0.268,1.724c0,0.64-0.089,1.216-0.268,1.728
			c-0.179,0.512-0.435,0.95-0.769,1.312c-0.333,0.363-0.738,0.642-1.216,0.836c-0.478,0.195-1.012,0.292-1.604,0.292
			s-1.127-0.097-1.604-0.292c-0.478-0.194-0.884-0.473-1.22-0.836c-0.336-0.362-0.595-0.8-0.776-1.312
			c-0.181-0.512-0.271-1.088-0.271-1.728c0-0.634,0.091-1.209,0.271-1.724c0.182-0.515,0.44-0.954,0.776-1.316
			c0.336-0.362,0.742-0.643,1.22-0.84S107.562,127.62,108.154,127.62z M108.154,134.852c0.8,0,1.397-0.268,1.792-0.804
			c0.395-0.536,0.592-1.284,0.592-2.244c0-0.965-0.197-1.717-0.592-2.256c-0.395-0.539-0.992-0.808-1.792-0.808
			c-0.405,0-0.758,0.069-1.057,0.208s-0.548,0.338-0.748,0.6c-0.199,0.262-0.349,0.583-0.447,0.964s-0.148,0.812-0.148,1.292
			s0.05,0.909,0.148,1.288c0.099,0.378,0.248,0.697,0.447,0.956c0.2,0.259,0.449,0.458,0.748,0.596S107.749,134.852,108.154,134.852
			z"/>
		<path fill="#636363" d="M116.226,135.98c-0.64,0-1.132-0.179-1.476-0.536c-0.345-0.357-0.517-0.872-0.517-1.544v-4.96h-0.976
			c-0.086,0-0.157-0.025-0.216-0.076c-0.06-0.051-0.089-0.129-0.089-0.236v-0.568l1.328-0.168l0.328-2.504
			c0.011-0.08,0.046-0.146,0.104-0.196c0.059-0.05,0.133-0.076,0.224-0.076h0.72v2.792h2.32v1.032h-2.32v4.864
			c0,0.341,0.083,0.595,0.248,0.76c0.166,0.166,0.379,0.248,0.641,0.248c0.148,0,0.278-0.02,0.388-0.06s0.204-0.084,0.284-0.132
			s0.147-0.092,0.204-0.132c0.056-0.04,0.104-0.06,0.147-0.06c0.075,0,0.142,0.045,0.2,0.136l0.416,0.68
			c-0.245,0.229-0.541,0.409-0.888,0.54C116.951,135.915,116.594,135.98,116.226,135.98z"/>
		<path fill="#636363" d="M122.985,124.26l-1.864,2.064c-0.074,0.08-0.147,0.137-0.22,0.172s-0.164,0.052-0.276,0.052h-0.848
			l1.184-1.936c0.075-0.123,0.156-0.212,0.244-0.268c0.088-0.056,0.218-0.084,0.389-0.084H122.985z M121.321,127.748v8.104h-1.424
			v-8.104H121.321z"/>
		<path fill="#636363" d="M129.361,129.188c-0.043,0.059-0.086,0.104-0.128,0.136c-0.043,0.032-0.104,0.048-0.185,0.048
			s-0.167-0.033-0.26-0.1c-0.094-0.066-0.212-0.14-0.356-0.22c-0.144-0.08-0.318-0.153-0.523-0.22c-0.205-0.066-0.457-0.1-0.756-0.1
			c-0.396,0-0.744,0.071-1.048,0.212c-0.305,0.142-0.56,0.346-0.765,0.612s-0.359,0.589-0.464,0.968
			c-0.104,0.379-0.156,0.803-0.156,1.272c0,0.491,0.057,0.927,0.168,1.308c0.112,0.381,0.27,0.702,0.473,0.96
			c0.202,0.259,0.449,0.456,0.739,0.592c0.291,0.136,0.618,0.204,0.98,0.204c0.347,0,0.632-0.041,0.856-0.124
			c0.224-0.083,0.41-0.174,0.56-0.276c0.149-0.101,0.271-0.193,0.368-0.276c0.096-0.083,0.191-0.124,0.288-0.124
			c0.122,0,0.213,0.045,0.271,0.136l0.4,0.52c-0.353,0.432-0.792,0.748-1.32,0.948s-1.085,0.3-1.672,0.3
			c-0.507,0-0.978-0.093-1.412-0.28s-0.812-0.458-1.132-0.812s-0.572-0.791-0.756-1.308c-0.185-0.517-0.276-1.106-0.276-1.768
			c0-0.603,0.084-1.16,0.252-1.672s0.413-0.953,0.736-1.324c0.322-0.371,0.721-0.66,1.196-0.868
			c0.475-0.208,1.019-0.312,1.632-0.312c0.565,0,1.066,0.092,1.504,0.276s0.824,0.444,1.16,0.78L129.361,129.188z"/>
		<path fill="#636363" d="M133.21,125.204c0,0.139-0.028,0.268-0.084,0.388c-0.057,0.12-0.131,0.227-0.225,0.32
			c-0.093,0.093-0.201,0.167-0.323,0.22c-0.123,0.054-0.254,0.08-0.393,0.08s-0.268-0.026-0.388-0.08
			c-0.12-0.053-0.227-0.126-0.32-0.22c-0.093-0.093-0.167-0.2-0.22-0.32c-0.054-0.12-0.08-0.25-0.08-0.388s0.026-0.271,0.08-0.396
			c0.053-0.125,0.127-0.235,0.22-0.328c0.094-0.093,0.2-0.167,0.32-0.22s0.249-0.08,0.388-0.08s0.27,0.027,0.393,0.08
			c0.122,0.053,0.23,0.126,0.323,0.22c0.094,0.093,0.168,0.203,0.225,0.328C133.182,124.934,133.21,125.065,133.21,125.204z
			 M132.89,127.748v8.104h-1.424v-8.104H132.89z"/>
		<path fill="#636363" d="M141.354,135.852h-0.632c-0.139,0-0.251-0.021-0.336-0.064c-0.086-0.042-0.142-0.133-0.168-0.272
			l-0.16-0.752c-0.214,0.192-0.422,0.364-0.624,0.516c-0.203,0.152-0.416,0.28-0.641,0.384c-0.224,0.104-0.462,0.183-0.716,0.236
			c-0.253,0.053-0.534,0.08-0.844,0.08c-0.314,0-0.609-0.044-0.884-0.132c-0.275-0.088-0.514-0.221-0.716-0.397
			c-0.203-0.177-0.364-0.4-0.484-0.67c-0.12-0.27-0.18-0.59-0.18-0.959c0-0.321,0.088-0.63,0.264-0.927s0.46-0.561,0.852-0.791
			c0.393-0.23,0.905-0.419,1.54-0.566c0.635-0.147,1.411-0.221,2.328-0.221v-0.636c0-0.633-0.135-1.112-0.403-1.437
			c-0.27-0.325-0.668-0.487-1.196-0.487c-0.347,0-0.639,0.044-0.876,0.132s-0.443,0.187-0.616,0.296s-0.322,0.208-0.448,0.296
			c-0.125,0.088-0.249,0.132-0.372,0.132c-0.096,0-0.18-0.025-0.252-0.076c-0.071-0.051-0.129-0.113-0.172-0.188l-0.256-0.456
			c0.448-0.432,0.931-0.755,1.448-0.968c0.517-0.213,1.091-0.32,1.72-0.32c0.453,0,0.856,0.075,1.208,0.224
			c0.353,0.149,0.648,0.357,0.888,0.624c0.24,0.267,0.422,0.589,0.544,0.968c0.123,0.379,0.185,0.795,0.185,1.248V135.852z
			 M137.657,134.98c0.251,0,0.48-0.025,0.688-0.076c0.208-0.05,0.403-0.123,0.588-0.216c0.184-0.093,0.359-0.207,0.527-0.34
			c0.169-0.133,0.332-0.285,0.492-0.456v-1.672c-0.655,0-1.213,0.042-1.672,0.125c-0.459,0.083-0.832,0.192-1.12,0.326
			c-0.288,0.134-0.497,0.292-0.628,0.475s-0.196,0.386-0.196,0.611c0,0.215,0.035,0.4,0.104,0.555
			c0.069,0.156,0.163,0.283,0.28,0.382s0.256,0.172,0.416,0.217C137.298,134.958,137.471,134.98,137.657,134.98z"/>
		<path fill="#636363" d="M148.152,129.084c-0.063,0.118-0.162,0.176-0.296,0.176c-0.08,0-0.171-0.029-0.271-0.088
			c-0.102-0.059-0.226-0.124-0.372-0.196c-0.146-0.072-0.321-0.139-0.524-0.2c-0.202-0.061-0.442-0.092-0.72-0.092
			c-0.24,0-0.456,0.031-0.648,0.092c-0.191,0.062-0.355,0.146-0.491,0.252c-0.137,0.107-0.24,0.231-0.312,0.372
			c-0.072,0.142-0.107,0.295-0.107,0.46c0,0.208,0.06,0.381,0.18,0.52c0.12,0.139,0.278,0.259,0.476,0.36
			c0.197,0.101,0.422,0.19,0.672,0.268c0.251,0.078,0.509,0.16,0.772,0.248c0.264,0.088,0.521,0.186,0.771,0.292
			c0.251,0.107,0.475,0.24,0.673,0.4c0.197,0.16,0.355,0.356,0.476,0.588s0.18,0.511,0.18,0.836c0,0.374-0.066,0.719-0.199,1.036
			c-0.134,0.317-0.331,0.592-0.593,0.824c-0.261,0.232-0.581,0.415-0.96,0.548c-0.379,0.133-0.815,0.2-1.312,0.2
			c-0.565,0-1.077-0.092-1.536-0.276s-0.848-0.42-1.168-0.708l0.336-0.544c0.043-0.069,0.093-0.123,0.152-0.16
			c0.059-0.037,0.136-0.056,0.231-0.056s0.197,0.038,0.304,0.112c0.107,0.075,0.236,0.157,0.389,0.248
			c0.151,0.091,0.336,0.173,0.552,0.248s0.486,0.112,0.812,0.112c0.276,0,0.52-0.036,0.728-0.108
			c0.208-0.072,0.381-0.169,0.52-0.292s0.242-0.264,0.309-0.424c0.066-0.16,0.1-0.331,0.1-0.512c0-0.224-0.06-0.409-0.18-0.556
			c-0.12-0.146-0.278-0.272-0.476-0.376c-0.198-0.104-0.423-0.194-0.677-0.272c-0.253-0.077-0.512-0.159-0.775-0.244
			c-0.265-0.085-0.523-0.183-0.776-0.292c-0.253-0.109-0.479-0.247-0.676-0.412c-0.197-0.166-0.356-0.37-0.477-0.612
			c-0.119-0.243-0.18-0.537-0.18-0.884c0-0.31,0.064-0.607,0.192-0.892s0.314-0.536,0.56-0.752c0.245-0.216,0.547-0.388,0.904-0.516
			s0.765-0.192,1.224-0.192c0.533,0,1.012,0.084,1.437,0.252c0.424,0.168,0.79,0.399,1.1,0.692L148.152,129.084z"/>
		<path fill="#636363" d="M155.129,124.068v11.784h-1.424v-11.784H155.129z"/>
		<path fill="#636363" d="M159.545,125.204c0,0.139-0.028,0.268-0.084,0.388c-0.057,0.12-0.131,0.227-0.225,0.32
			c-0.093,0.093-0.201,0.167-0.323,0.22c-0.123,0.054-0.254,0.08-0.393,0.08s-0.268-0.026-0.388-0.08
			c-0.12-0.053-0.227-0.126-0.32-0.22c-0.093-0.093-0.167-0.2-0.22-0.32c-0.054-0.12-0.08-0.25-0.08-0.388s0.026-0.271,0.08-0.396
			c0.053-0.125,0.127-0.235,0.22-0.328c0.094-0.093,0.2-0.167,0.32-0.22s0.249-0.08,0.388-0.08s0.27,0.027,0.393,0.08
			c0.122,0.053,0.23,0.126,0.323,0.22c0.094,0.093,0.168,0.203,0.225,0.328C159.517,124.934,159.545,125.065,159.545,125.204z
			 M159.225,127.748v8.104h-1.424v-8.104H159.225z"/>
		<path fill="#636363" d="M164.193,135.98c-0.64,0-1.132-0.179-1.476-0.536c-0.345-0.357-0.517-0.872-0.517-1.544v-4.96h-0.976
			c-0.086,0-0.157-0.025-0.216-0.076c-0.06-0.051-0.089-0.129-0.089-0.236v-0.568l1.328-0.168l0.328-2.504
			c0.011-0.08,0.046-0.146,0.104-0.196c0.059-0.05,0.133-0.076,0.224-0.076h0.72v2.792h2.32v1.032h-2.32v4.864
			c0,0.341,0.083,0.595,0.248,0.76c0.166,0.166,0.379,0.248,0.641,0.248c0.148,0,0.278-0.02,0.388-0.06s0.204-0.084,0.284-0.132
			s0.147-0.092,0.204-0.132c0.056-0.04,0.104-0.06,0.147-0.06c0.075,0,0.142,0.045,0.2,0.136l0.416,0.68
			c-0.245,0.229-0.541,0.409-0.888,0.54C164.919,135.915,164.562,135.98,164.193,135.98z"/>
		<path fill="#636363" d="M170.912,127.62c0.485,0,0.934,0.082,1.344,0.244c0.411,0.163,0.766,0.397,1.064,0.704
			c0.299,0.307,0.532,0.686,0.7,1.136s0.252,0.964,0.252,1.54c0,0.224-0.024,0.373-0.072,0.448s-0.139,0.112-0.272,0.112h-5.392
			c0.011,0.512,0.08,0.957,0.208,1.336s0.304,0.695,0.528,0.948c0.224,0.253,0.49,0.443,0.8,0.568
			c0.31,0.125,0.656,0.188,1.04,0.188c0.357,0,0.665-0.042,0.924-0.124c0.259-0.083,0.481-0.172,0.668-0.268
			c0.187-0.096,0.343-0.186,0.468-0.268c0.126-0.083,0.233-0.124,0.324-0.124c0.117,0,0.208,0.045,0.272,0.136l0.399,0.52
			c-0.176,0.213-0.387,0.399-0.632,0.556s-0.508,0.287-0.788,0.388c-0.28,0.101-0.569,0.177-0.868,0.228
			c-0.299,0.05-0.595,0.076-0.888,0.076c-0.56,0-1.076-0.095-1.548-0.284c-0.473-0.189-0.88-0.467-1.225-0.832
			c-0.344-0.365-0.611-0.817-0.804-1.356c-0.191-0.539-0.288-1.157-0.288-1.856c0-0.565,0.087-1.093,0.26-1.584
			c0.174-0.491,0.423-0.916,0.748-1.276c0.325-0.36,0.723-0.643,1.192-0.848C169.798,127.723,170.325,127.62,170.912,127.62z
			 M170.944,128.668c-0.688,0-1.229,0.199-1.624,0.596s-0.641,0.948-0.736,1.652h4.408c0-0.331-0.046-0.633-0.136-0.908
			c-0.091-0.274-0.225-0.512-0.4-0.712c-0.176-0.2-0.391-0.354-0.644-0.464C171.559,128.723,171.27,128.668,170.944,128.668z"/>
		<path fill="#636363" d="M176.089,135.852v-8.104h0.816c0.154,0,0.261,0.029,0.319,0.088c0.059,0.059,0.099,0.16,0.12,0.304
			l0.096,1.264c0.277-0.565,0.62-1.006,1.028-1.324s0.887-0.476,1.437-0.476c0.224,0,0.426,0.025,0.607,0.076
			s0.35,0.121,0.504,0.212l-0.184,1.064c-0.037,0.133-0.12,0.2-0.248,0.2c-0.075,0-0.189-0.025-0.344-0.076
			c-0.155-0.051-0.371-0.076-0.648-0.076c-0.496,0-0.91,0.144-1.244,0.432c-0.333,0.288-0.611,0.707-0.836,1.256v5.16H176.089z"/>
		<path fill="#636363" d="M188.185,135.852h-0.632c-0.139,0-0.251-0.021-0.336-0.064c-0.086-0.042-0.142-0.133-0.168-0.272
			l-0.16-0.752c-0.214,0.192-0.422,0.364-0.624,0.516c-0.203,0.152-0.416,0.28-0.641,0.384c-0.224,0.104-0.462,0.183-0.716,0.236
			c-0.253,0.053-0.534,0.08-0.844,0.08c-0.314,0-0.609-0.044-0.884-0.132c-0.275-0.088-0.514-0.221-0.716-0.397
			c-0.203-0.177-0.364-0.4-0.484-0.67c-0.12-0.27-0.18-0.59-0.18-0.959c0-0.321,0.088-0.63,0.264-0.927s0.46-0.561,0.852-0.791
			c0.393-0.23,0.905-0.419,1.54-0.566c0.635-0.147,1.411-0.221,2.328-0.221v-0.636c0-0.633-0.135-1.112-0.403-1.437
			c-0.27-0.325-0.668-0.487-1.196-0.487c-0.347,0-0.639,0.044-0.876,0.132s-0.443,0.187-0.616,0.296s-0.322,0.208-0.448,0.296
			c-0.125,0.088-0.249,0.132-0.372,0.132c-0.096,0-0.18-0.025-0.252-0.076c-0.071-0.051-0.129-0.113-0.172-0.188l-0.256-0.456
			c0.448-0.432,0.931-0.755,1.448-0.968c0.517-0.213,1.091-0.32,1.72-0.32c0.453,0,0.856,0.075,1.208,0.224
			c0.353,0.149,0.648,0.357,0.888,0.624c0.24,0.267,0.422,0.589,0.544,0.968c0.123,0.379,0.185,0.795,0.185,1.248V135.852z
			 M184.488,134.98c0.251,0,0.48-0.025,0.688-0.076c0.208-0.05,0.403-0.123,0.588-0.216c0.184-0.093,0.359-0.207,0.527-0.34
			c0.169-0.133,0.332-0.285,0.492-0.456v-1.672c-0.655,0-1.213,0.042-1.672,0.125c-0.459,0.083-0.832,0.192-1.12,0.326
			c-0.288,0.134-0.497,0.292-0.628,0.475s-0.196,0.386-0.196,0.611c0,0.215,0.035,0.4,0.104,0.555
			c0.069,0.156,0.163,0.283,0.28,0.382s0.256,0.172,0.416,0.217C184.129,134.958,184.302,134.98,184.488,134.98z M187.608,124.26
			l-1.864,2.064c-0.074,0.08-0.147,0.137-0.22,0.172s-0.164,0.052-0.276,0.052H184.4l1.184-1.936
			c0.075-0.123,0.156-0.212,0.244-0.268c0.088-0.056,0.218-0.084,0.389-0.084H187.608z"/>
		<path fill="#636363" d="M190.345,135.852v-8.104h0.816c0.154,0,0.261,0.029,0.319,0.088c0.059,0.059,0.099,0.16,0.12,0.304
			l0.096,1.264c0.277-0.565,0.62-1.006,1.028-1.324s0.887-0.476,1.437-0.476c0.224,0,0.426,0.025,0.607,0.076
			s0.35,0.121,0.504,0.212l-0.184,1.064c-0.037,0.133-0.12,0.2-0.248,0.2c-0.075,0-0.189-0.025-0.344-0.076
			c-0.155-0.051-0.371-0.076-0.648-0.076c-0.496,0-0.91,0.144-1.244,0.432c-0.333,0.288-0.611,0.707-0.836,1.256v5.16H190.345z"/>
		<path fill="#636363" d="M198.696,125.204c0,0.139-0.028,0.268-0.084,0.388c-0.057,0.12-0.131,0.227-0.225,0.32
			c-0.093,0.093-0.201,0.167-0.323,0.22c-0.123,0.054-0.254,0.08-0.393,0.08s-0.268-0.026-0.388-0.08
			c-0.12-0.053-0.227-0.126-0.32-0.22c-0.093-0.093-0.167-0.2-0.22-0.32c-0.054-0.12-0.08-0.25-0.08-0.388s0.026-0.271,0.08-0.396
			c0.053-0.125,0.127-0.235,0.22-0.328c0.094-0.093,0.2-0.167,0.32-0.22s0.249-0.08,0.388-0.08s0.27,0.027,0.393,0.08
			c0.122,0.053,0.23,0.126,0.323,0.22c0.094,0.093,0.168,0.203,0.225,0.328C198.668,124.934,198.696,125.065,198.696,125.204z
			 M198.376,127.748v8.104h-1.424v-8.104H198.376z"/>
		<path fill="#636363" d="M206.84,135.852h-0.632c-0.139,0-0.251-0.021-0.336-0.064c-0.086-0.042-0.142-0.133-0.168-0.272
			l-0.16-0.752c-0.214,0.192-0.422,0.364-0.624,0.516c-0.203,0.152-0.416,0.28-0.641,0.384c-0.224,0.104-0.462,0.183-0.716,0.236
			c-0.253,0.053-0.534,0.08-0.844,0.08c-0.314,0-0.609-0.044-0.884-0.132c-0.275-0.088-0.514-0.221-0.716-0.397
			c-0.203-0.177-0.364-0.4-0.484-0.67c-0.12-0.27-0.18-0.59-0.18-0.959c0-0.321,0.088-0.63,0.264-0.927s0.46-0.561,0.852-0.791
			c0.393-0.23,0.905-0.419,1.54-0.566c0.635-0.147,1.411-0.221,2.328-0.221v-0.636c0-0.633-0.135-1.112-0.403-1.437
			c-0.27-0.325-0.668-0.487-1.196-0.487c-0.347,0-0.639,0.044-0.876,0.132s-0.443,0.187-0.616,0.296s-0.322,0.208-0.448,0.296
			c-0.125,0.088-0.249,0.132-0.372,0.132c-0.096,0-0.18-0.025-0.252-0.076c-0.071-0.051-0.129-0.113-0.172-0.188l-0.256-0.456
			c0.448-0.432,0.931-0.755,1.448-0.968c0.517-0.213,1.091-0.32,1.72-0.32c0.453,0,0.856,0.075,1.208,0.224
			c0.353,0.149,0.648,0.357,0.888,0.624c0.24,0.267,0.422,0.589,0.544,0.968c0.123,0.379,0.185,0.795,0.185,1.248V135.852z
			 M203.144,134.98c0.251,0,0.48-0.025,0.688-0.076c0.208-0.05,0.403-0.123,0.588-0.216c0.184-0.093,0.359-0.207,0.527-0.34
			c0.169-0.133,0.332-0.285,0.492-0.456v-1.672c-0.655,0-1.213,0.042-1.672,0.125c-0.459,0.083-0.832,0.192-1.12,0.326
			c-0.288,0.134-0.497,0.292-0.628,0.475s-0.196,0.386-0.196,0.611c0,0.215,0.035,0.4,0.104,0.555
			c0.069,0.156,0.163,0.283,0.28,0.382s0.256,0.172,0.416,0.217C202.784,134.958,202.957,134.98,203.144,134.98z"/>
		<path fill="#636363" d="M213.64,129.084c-0.063,0.118-0.162,0.176-0.296,0.176c-0.08,0-0.171-0.029-0.271-0.088
			c-0.102-0.059-0.226-0.124-0.372-0.196c-0.146-0.072-0.321-0.139-0.524-0.2c-0.202-0.061-0.442-0.092-0.72-0.092
			c-0.24,0-0.456,0.031-0.648,0.092c-0.191,0.062-0.355,0.146-0.491,0.252c-0.137,0.107-0.24,0.231-0.312,0.372
			c-0.072,0.142-0.107,0.295-0.107,0.46c0,0.208,0.06,0.381,0.18,0.52c0.12,0.139,0.278,0.259,0.476,0.36
			c0.197,0.101,0.422,0.19,0.672,0.268c0.251,0.078,0.509,0.16,0.772,0.248c0.264,0.088,0.521,0.186,0.771,0.292
			c0.251,0.107,0.475,0.24,0.673,0.4c0.197,0.16,0.355,0.356,0.476,0.588s0.18,0.511,0.18,0.836c0,0.374-0.066,0.719-0.199,1.036
			c-0.134,0.317-0.331,0.592-0.593,0.824c-0.261,0.232-0.581,0.415-0.96,0.548c-0.379,0.133-0.815,0.2-1.312,0.2
			c-0.565,0-1.077-0.092-1.536-0.276s-0.848-0.42-1.168-0.708l0.336-0.544c0.043-0.069,0.093-0.123,0.152-0.16
			c0.059-0.037,0.136-0.056,0.231-0.056s0.197,0.038,0.304,0.112c0.107,0.075,0.236,0.157,0.389,0.248
			c0.151,0.091,0.336,0.173,0.552,0.248s0.486,0.112,0.812,0.112c0.276,0,0.52-0.036,0.728-0.108
			c0.208-0.072,0.381-0.169,0.52-0.292s0.242-0.264,0.309-0.424c0.066-0.16,0.1-0.331,0.1-0.512c0-0.224-0.06-0.409-0.18-0.556
			c-0.12-0.146-0.278-0.272-0.476-0.376c-0.198-0.104-0.423-0.194-0.677-0.272c-0.253-0.077-0.512-0.159-0.775-0.244
			c-0.265-0.085-0.523-0.183-0.776-0.292c-0.253-0.109-0.479-0.247-0.676-0.412c-0.197-0.166-0.356-0.37-0.477-0.612
			c-0.119-0.243-0.18-0.537-0.18-0.884c0-0.31,0.064-0.607,0.192-0.892s0.314-0.536,0.56-0.752c0.245-0.216,0.547-0.388,0.904-0.516
			s0.765-0.192,1.224-0.192c0.533,0,1.012,0.084,1.437,0.252c0.424,0.168,0.79,0.399,1.1,0.692L213.64,129.084z"/>
	</g>
	<rect y="0.002" fill="#E74C3C" width="230" height="35"/>
	<g>
		<path fill="#FFFFFF" d="M74.674,8.485c0.756,0,1.47,0.105,2.142,0.315c0.673,0.21,1.264,0.525,1.773,0.945
			s0.914,0.943,1.211,1.568c0.297,0.625,0.446,1.349,0.446,2.17c0,0.644-0.101,1.225-0.302,1.743
			c-0.2,0.518-0.476,0.973-0.825,1.365c-0.351,0.392-0.764,0.721-1.239,0.987c-0.477,0.266-0.994,0.469-1.554,0.609
			c1.456,0.271,2.555,0.833,3.297,1.687s1.112,1.92,1.112,3.199c0,0.812-0.163,1.565-0.489,2.261
			c-0.327,0.695-0.775,1.295-1.345,1.799c-0.569,0.504-1.241,0.898-2.016,1.183s-1.615,0.427-2.52,0.427
			c-1.13,0-2.07-0.152-2.821-0.455c-0.752-0.303-1.37-0.698-1.855-1.183s-0.863-1.029-1.134-1.631s-0.49-1.202-0.658-1.799
			l0.532-0.224c0.112-0.047,0.22-0.07,0.322-0.07s0.2,0.023,0.294,0.07c0.093,0.047,0.163,0.135,0.21,0.266l0.098,0.28
			c0.057,0.168,0.136,0.376,0.238,0.623c0.103,0.248,0.235,0.504,0.399,0.77c0.163,0.266,0.366,0.532,0.608,0.798
			c0.243,0.266,0.539,0.504,0.89,0.714c0.35,0.21,0.76,0.38,1.231,0.511s1.015,0.196,1.631,0.196c0.84,0,1.575-0.14,2.205-0.42
			c0.63-0.28,1.157-0.637,1.582-1.071s0.742-0.919,0.952-1.456s0.315-1.057,0.315-1.561c0-0.606-0.097-1.171-0.287-1.694
			c-0.191-0.523-0.512-0.973-0.959-1.351c-0.448-0.378-1.039-0.677-1.771-0.896s-1.636-0.329-2.709-0.329v-0.966
			c0.858-0.019,1.614-0.133,2.269-0.343c0.652-0.21,1.199-0.497,1.638-0.861c0.438-0.364,0.77-0.798,0.994-1.302
			c0.224-0.504,0.336-1.059,0.336-1.666c0-0.7-0.117-1.307-0.351-1.82s-0.546-0.938-0.938-1.274
			c-0.393-0.336-0.85-0.583-1.372-0.742S75.187,9.62,74.618,9.62c-0.626,0-1.2,0.093-1.723,0.28
			c-0.522,0.187-0.984,0.448-1.386,0.784s-0.737,0.74-1.008,1.211s-0.472,0.997-0.603,1.575c-0.074,0.327-0.247,0.49-0.518,0.49
			c-0.065,0-0.117-0.004-0.154-0.014l-0.686-0.112c0.121-0.849,0.354-1.605,0.7-2.268c0.345-0.663,0.783-1.223,1.315-1.68
			c0.532-0.458,1.148-0.805,1.849-1.043C73.105,8.604,73.861,8.485,74.674,8.485z"/>
		<path fill="#FFFFFF" d="M105.585,28.52h-1.105c-0.131,0-0.238-0.035-0.322-0.105s-0.149-0.161-0.196-0.273l-2.338-5.754h-9.729
			l-2.324,5.754c-0.037,0.103-0.103,0.191-0.196,0.266c-0.093,0.075-0.205,0.112-0.336,0.112h-1.092l8.106-19.81h1.428
			L105.585,28.52z M92.327,21.324h8.876l-4.046-10.01c-0.065-0.159-0.131-0.338-0.196-0.539c-0.065-0.201-0.131-0.413-0.195-0.637
			c-0.065,0.224-0.131,0.436-0.196,0.637c-0.065,0.201-0.131,0.385-0.196,0.553L92.327,21.324z"/>
		<path fill="#FFFFFF" d="M109.729,8.758c0.074,0.033,0.153,0.105,0.237,0.217l12.824,17.164c-0.027-0.28-0.042-0.551-0.042-0.812
			V8.709h1.26v19.81h-0.686c-0.215,0-0.388-0.093-0.518-0.28l-12.881-17.192c0.028,0.28,0.042,0.546,0.042,0.798V28.52h-1.245V8.709
			h0.699C109.552,8.709,109.654,8.726,109.729,8.758z"/>
		<path fill="#FFFFFF" d="M147.557,18.607c0,1.531-0.229,2.919-0.687,4.165s-1.102,2.31-1.932,3.192
			c-0.831,0.882-1.825,1.563-2.982,2.044c-1.157,0.481-2.44,0.721-3.85,0.721c-1.391,0-2.665-0.24-3.822-0.721
			c-1.157-0.48-2.151-1.162-2.982-2.044c-0.83-0.882-1.477-1.946-1.938-3.192s-0.693-2.634-0.693-4.165
			c0-1.521,0.231-2.905,0.693-4.151s1.108-2.31,1.938-3.192c0.831-0.882,1.825-1.566,2.982-2.051
			c1.157-0.485,2.432-0.728,3.822-0.728c1.409,0,2.692,0.241,3.85,0.721c1.157,0.481,2.151,1.165,2.982,2.051
			c0.83,0.887,1.475,1.953,1.932,3.199S147.557,17.086,147.557,18.607z M146.072,18.607c0-1.381-0.191-2.623-0.574-3.724
			c-0.383-1.101-0.922-2.034-1.617-2.8c-0.695-0.765-1.532-1.351-2.513-1.757c-0.979-0.406-2.067-0.609-3.262-0.609
			c-1.176,0-2.252,0.203-3.228,0.609c-0.975,0.406-1.815,0.992-2.52,1.757c-0.705,0.766-1.251,1.699-1.638,2.8
			c-0.388,1.102-0.581,2.343-0.581,3.724c0,1.391,0.193,2.634,0.581,3.731c0.387,1.097,0.933,2.028,1.638,2.793
			c0.704,0.766,1.545,1.349,2.52,1.75c0.976,0.401,2.052,0.602,3.228,0.602c1.194,0,2.282-0.201,3.262-0.602
			c0.98-0.401,1.817-0.984,2.513-1.75c0.695-0.765,1.234-1.696,1.617-2.793C145.881,21.242,146.072,19.999,146.072,18.607z"/>
		<path fill="#FFFFFF" d="M161.809,11.118c-0.084,0.159-0.206,0.238-0.364,0.238c-0.122,0-0.278-0.086-0.471-0.259
			s-0.452-0.364-0.779-0.574c-0.328-0.21-0.737-0.403-1.229-0.581c-0.491-0.177-1.098-0.266-1.818-0.266s-1.355,0.103-1.903,0.308
			c-0.548,0.206-1.007,0.485-1.376,0.84c-0.37,0.354-0.651,0.765-0.843,1.232c-0.192,0.467-0.288,0.957-0.288,1.47
			c0,0.672,0.143,1.228,0.428,1.666c0.285,0.439,0.661,0.812,1.129,1.12c0.467,0.308,0.997,0.567,1.591,0.777
			s1.203,0.418,1.829,0.623c0.627,0.206,1.236,0.432,1.83,0.679c0.593,0.247,1.124,0.558,1.591,0.931
			c0.468,0.374,0.844,0.833,1.129,1.379c0.285,0.546,0.428,1.225,0.428,2.037c0,0.831-0.143,1.613-0.427,2.345
			c-0.285,0.733-0.698,1.37-1.239,1.911s-1.204,0.968-1.988,1.281s-1.68,0.469-2.688,0.469c-1.307,0-2.432-0.231-3.374-0.693
			c-0.943-0.462-1.77-1.094-2.479-1.897l0.393-0.616c0.111-0.14,0.242-0.21,0.392-0.21c0.084,0,0.191,0.056,0.322,0.168
			c0.131,0.112,0.29,0.25,0.477,0.413c0.188,0.163,0.411,0.341,0.673,0.532c0.262,0.191,0.565,0.369,0.912,0.532
			c0.345,0.163,0.742,0.301,1.191,0.413c0.448,0.112,0.958,0.168,1.528,0.168c0.784,0,1.485-0.119,2.103-0.357
			c0.617-0.238,1.138-0.562,1.563-0.973c0.425-0.411,0.75-0.898,0.974-1.463c0.225-0.565,0.337-1.169,0.337-1.813
			c0-0.7-0.143-1.276-0.428-1.729s-0.661-0.831-1.129-1.134c-0.467-0.303-0.997-0.558-1.591-0.763
			c-0.594-0.205-1.203-0.406-1.829-0.602c-0.627-0.196-1.236-0.416-1.83-0.658s-1.124-0.553-1.591-0.931
			c-0.468-0.378-0.844-0.849-1.129-1.414c-0.285-0.564-0.428-1.271-0.428-2.121c0-0.663,0.126-1.302,0.379-1.918
			c0.252-0.616,0.621-1.16,1.107-1.631c0.485-0.471,1.086-0.849,1.802-1.134c0.715-0.285,1.53-0.427,2.446-0.427
			c1.027,0,1.95,0.164,2.769,0.49c0.817,0.327,1.562,0.826,2.235,1.498L161.809,11.118z"/>
	</g>
</g>
<g>
</g>
<g>
</g>
<g>
</g>
<g>
</g>
<g>
</g>
<g>
</g>
<g>
</g>
<g>
</g>
<g>
</g>
<g>
</g>
<g>
</g>
<g>
</g>
<g>
</g>
<g>
</g>
<g>
</g>
</svg>
