<?xml version="1.0" encoding="utf-8"?>
<!-- Generator: Adobe Illustrator 16.0.0, SVG Export Plug-In . SVG Version: 6.00 Build 0)  -->
<!DOCTYPE svg PUBLIC "-//W3C//DTD SVG 1.0//EN" "http://www.w3.org/TR/2001/REC-SVG-20010904/DTD/svg10.dtd">
<svg version="1.0" id="Layer_1" xmlns="http://www.w3.org/2000/svg" xmlns:xlink="http://www.w3.org/1999/xlink" x="0px" y="0px"
	 width="213.881px" height="26.28px" viewBox="0 0 213.881 26.28" enable-background="new 0 0 213.881 26.28" xml:space="preserve">
<g>
	<g>
		<g>
			<path fill="#828282" d="M24.297,8.399h1.224l0.265,1.296h0.096c0.592-1.056,1.52-1.584,2.784-1.584
				c1.264,0,2.212,0.473,2.844,1.416c0.632,0.944,0.948,2.488,0.948,4.631c0,1.008-0.104,1.916-0.312,2.725
				s-0.504,1.496-0.888,2.064s-0.852,1-1.404,1.295c-0.552,0.297-1.164,0.445-1.836,0.445c-0.464,0-0.832-0.029-1.104-0.084
				c-0.272-0.057-0.568-0.172-0.889-0.348V25.2h-1.728V8.399z M26.024,18.502c0.225,0.193,0.477,0.346,0.757,0.457
				c0.279,0.111,0.651,0.168,1.115,0.168c0.849,0,1.521-0.432,2.017-1.297c0.495-0.863,0.744-2.096,0.744-3.695
				c0-0.671-0.045-1.28-0.133-1.824s-0.228-1.012-0.42-1.404c-0.191-0.392-0.436-0.696-0.731-0.912
				c-0.297-0.216-0.66-0.323-1.092-0.323c-1.169,0-1.92,0.712-2.257,2.136V18.502z"/>
			<path fill="#828282" d="M34.616,9.119c0.464-0.288,1.028-0.512,1.692-0.672c0.663-0.159,1.363-0.24,2.1-0.24
				c0.672,0,1.212,0.101,1.62,0.301s0.728,0.472,0.96,0.815c0.231,0.345,0.384,0.736,0.456,1.176c0.072,0.44,0.108,0.9,0.108,1.381
				c0,0.96-0.021,1.896-0.062,2.808c-0.041,0.912-0.062,1.775-0.062,2.592c0,0.607,0.021,1.172,0.062,1.691s0.118,1.012,0.23,1.477
				h-1.354l-0.42-1.416h-0.095c-0.238,0.416-0.588,0.775-1.048,1.08c-0.461,0.303-1.08,0.455-1.858,0.455
				c-0.857,0-1.561-0.299-2.108-0.9c-0.548-0.6-0.821-1.428-0.821-2.482c0-0.688,0.114-1.264,0.345-1.729s0.556-0.84,0.977-1.129
				c0.42-0.287,0.92-0.492,1.499-0.611c0.579-0.12,1.226-0.181,1.94-0.181c0.158,0,0.316,0,0.476,0c0.158,0,0.325,0.009,0.5,0.024
				c0.048-0.496,0.071-0.937,0.071-1.32c0-0.912-0.135-1.552-0.404-1.92s-0.761-0.552-1.475-0.552c-0.443,0-0.927,0.068-1.45,0.204
				s-0.959,0.308-1.308,0.516L34.616,9.119z M39.776,14.928c-0.158-0.016-0.316-0.029-0.475-0.037s-0.316-0.012-0.474-0.012
				c-0.38,0-0.751,0.033-1.115,0.096c-0.363,0.064-0.688,0.176-0.972,0.336c-0.285,0.16-0.51,0.377-0.676,0.648
				s-0.249,0.615-0.249,1.031c0,0.641,0.154,1.137,0.462,1.488c0.309,0.352,0.708,0.529,1.197,0.529c0.664,0,1.178-0.16,1.542-0.48
				c0.363-0.32,0.616-0.672,0.759-1.057V14.928z"/>
			<path fill="#828282" d="M44.337,8.399h1.224l0.312,1.272h0.072c0.224-0.464,0.516-0.828,0.876-1.093
				c0.359-0.264,0.795-0.396,1.308-0.396c0.368,0,0.784,0.072,1.248,0.216l-0.336,1.752c-0.416-0.144-0.784-0.216-1.104-0.216
				c-0.512,0-0.928,0.148-1.248,0.444s-0.527,0.691-0.624,1.188v8.832h-1.728V8.399z"/>
			<path fill="#828282" d="M50.792,9.119c0.464-0.288,1.028-0.512,1.692-0.672c0.663-0.159,1.363-0.24,2.1-0.24
				c0.672,0,1.212,0.101,1.62,0.301s0.728,0.472,0.96,0.815c0.231,0.345,0.384,0.736,0.456,1.176c0.072,0.44,0.108,0.9,0.108,1.381
				c0,0.96-0.021,1.896-0.062,2.808c-0.041,0.912-0.062,1.775-0.062,2.592c0,0.607,0.021,1.172,0.062,1.691s0.118,1.012,0.23,1.477
				h-1.354l-0.42-1.416h-0.095c-0.238,0.416-0.588,0.775-1.048,1.08c-0.461,0.303-1.08,0.455-1.858,0.455
				c-0.857,0-1.561-0.299-2.108-0.9c-0.548-0.6-0.821-1.428-0.821-2.482c0-0.688,0.114-1.264,0.345-1.729s0.556-0.84,0.977-1.129
				c0.42-0.287,0.92-0.492,1.499-0.611c0.579-0.12,1.226-0.181,1.94-0.181c0.158,0,0.316,0,0.476,0c0.158,0,0.325,0.009,0.5,0.024
				C55.977,13.063,56,12.623,56,12.239c0-0.912-0.135-1.552-0.404-1.92s-0.761-0.552-1.475-0.552c-0.443,0-0.927,0.068-1.45,0.204
				s-0.959,0.308-1.308,0.516L50.792,9.119z M55.952,14.928c-0.158-0.016-0.316-0.029-0.475-0.037s-0.316-0.012-0.474-0.012
				c-0.38,0-0.751,0.033-1.115,0.096c-0.363,0.064-0.688,0.176-0.972,0.336c-0.285,0.16-0.51,0.377-0.676,0.648
				s-0.249,0.615-0.249,1.031c0,0.641,0.154,1.137,0.462,1.488c0.309,0.352,0.708,0.529,1.197,0.529c0.664,0,1.178-0.16,1.542-0.48
				c0.363-0.32,0.616-0.672,0.759-1.057V14.928z"/>
			<path fill="#828282" d="M59.479,8.399h1.464V7.728c0-1.504,0.217-2.592,0.648-3.264c0.432-0.673,1.168-1.009,2.208-1.009
				c0.416,0,0.792,0.024,1.128,0.072s0.68,0.152,1.032,0.312l-0.433,1.487c-0.288-0.128-0.556-0.212-0.804-0.252
				c-0.248-0.039-0.484-0.06-0.708-0.06c-0.32,0-0.568,0.063-0.744,0.191c-0.176,0.129-0.308,0.328-0.396,0.601
				c-0.089,0.272-0.145,0.62-0.168,1.044c-0.024,0.424-0.036,0.94-0.036,1.548h2.496v1.56h-2.496v10.44h-1.729V9.959h-1.464V8.399z"
				/>
			<path fill="#828282" d="M66.68,8.399h1.224l0.312,1.272h0.072c0.224-0.464,0.516-0.828,0.876-1.093
				c0.359-0.264,0.795-0.396,1.308-0.396c0.368,0,0.784,0.072,1.248,0.216l-0.336,1.752c-0.416-0.144-0.784-0.216-1.104-0.216
				c-0.512,0-0.928,0.148-1.248,0.444s-0.527,0.691-0.624,1.188v8.832H66.68V8.399z"/>
			<path fill="#828282" d="M73.136,9.119c0.464-0.288,1.028-0.512,1.692-0.672c0.663-0.159,1.363-0.24,2.1-0.24
				c0.672,0,1.212,0.101,1.62,0.301s0.728,0.472,0.96,0.815c0.231,0.345,0.384,0.736,0.456,1.176c0.072,0.44,0.108,0.9,0.108,1.381
				c0,0.96-0.021,1.896-0.062,2.808c-0.041,0.912-0.062,1.775-0.062,2.592c0,0.607,0.021,1.172,0.062,1.691s0.118,1.012,0.23,1.477
				h-1.354l-0.42-1.416h-0.095c-0.238,0.416-0.588,0.775-1.048,1.08c-0.461,0.303-1.08,0.455-1.858,0.455
				c-0.857,0-1.561-0.299-2.108-0.9c-0.548-0.6-0.821-1.428-0.821-2.482c0-0.688,0.114-1.264,0.345-1.729s0.556-0.84,0.977-1.129
				c0.42-0.287,0.92-0.492,1.499-0.611c0.579-0.12,1.226-0.181,1.94-0.181c0.158,0,0.316,0,0.476,0c0.158,0,0.325,0.009,0.5,0.024
				c0.048-0.496,0.071-0.937,0.071-1.32c0-0.912-0.135-1.552-0.404-1.92s-0.761-0.552-1.475-0.552c-0.443,0-0.927,0.068-1.45,0.204
				s-0.959,0.308-1.308,0.516L73.136,9.119z M78.296,14.928c-0.158-0.016-0.316-0.029-0.475-0.037s-0.316-0.012-0.474-0.012
				c-0.38,0-0.751,0.033-1.115,0.096c-0.363,0.064-0.688,0.176-0.972,0.336c-0.285,0.16-0.51,0.377-0.676,0.648
				s-0.249,0.615-0.249,1.031c0,0.641,0.154,1.137,0.462,1.488c0.309,0.352,0.708,0.529,1.197,0.529c0.664,0,1.178-0.16,1.542-0.48
				c0.363-0.32,0.616-0.672,0.759-1.057V14.928z"/>
			<path fill="#828282" d="M82.663,18.432c0.32,0.191,0.7,0.355,1.141,0.492c0.439,0.135,0.892,0.203,1.355,0.203
				c0.528,0,0.976-0.133,1.345-0.398c0.367-0.266,0.552-0.695,0.552-1.291c0-0.5-0.112-0.91-0.336-1.23
				c-0.225-0.322-0.509-0.611-0.853-0.869s-0.716-0.494-1.116-0.709c-0.399-0.217-0.771-0.475-1.115-0.778
				c-0.345-0.303-0.628-0.661-0.853-1.076c-0.224-0.415-0.336-0.941-0.336-1.579c0-1.021,0.276-1.789,0.828-2.308
				s1.332-0.777,2.34-0.777c0.656,0,1.225,0.061,1.704,0.18c0.48,0.12,0.896,0.284,1.248,0.492l-0.456,1.44
				c-0.304-0.16-0.656-0.292-1.056-0.396c-0.4-0.104-0.809-0.155-1.225-0.155c-0.575,0-0.995,0.119-1.26,0.359
				c-0.264,0.24-0.396,0.616-0.396,1.128c0,0.4,0.111,0.74,0.336,1.021c0.224,0.28,0.508,0.536,0.852,0.768
				c0.344,0.232,0.716,0.468,1.116,0.708c0.399,0.24,0.771,0.525,1.116,0.853c0.344,0.328,0.628,0.719,0.852,1.176
				c0.224,0.455,0.336,1.027,0.336,1.715c0,0.449-0.071,0.873-0.216,1.273c-0.144,0.398-0.364,0.748-0.66,1.043
				c-0.296,0.297-0.664,0.531-1.104,0.709c-0.44,0.176-0.956,0.264-1.548,0.264c-0.705,0-1.312-0.068-1.824-0.205
				c-0.513-0.135-0.944-0.314-1.296-0.539L82.663,18.432z"/>
			<path fill="#828282" d="M98.144,19.583c-0.384,0.354-0.872,0.625-1.464,0.816c-0.592,0.193-1.216,0.289-1.872,0.289
				c-0.752,0-1.404-0.148-1.956-0.445c-0.552-0.295-1.008-0.719-1.368-1.271c-0.359-0.553-0.624-1.211-0.792-1.98
				c-0.168-0.768-0.252-1.631-0.252-2.592c0-2.047,0.376-3.607,1.128-4.679s1.816-1.608,3.192-1.608
				c0.447,0,0.892,0.057,1.332,0.168c0.439,0.112,0.836,0.336,1.188,0.672c0.353,0.336,0.637,0.809,0.853,1.416
				c0.216,0.608,0.324,1.4,0.324,2.376c0,0.272-0.013,0.564-0.036,0.876c-0.024,0.312-0.053,0.637-0.084,0.973H92.24
				c0,0.688,0.056,1.311,0.168,1.871c0.111,0.561,0.287,1.037,0.527,1.428c0.24,0.393,0.548,0.697,0.924,0.912
				c0.376,0.217,0.844,0.324,1.404,0.324c0.432,0,0.86-0.08,1.284-0.24s0.748-0.352,0.972-0.576L98.144,19.583z M96.8,13.151
				c0.032-1.2-0.136-2.08-0.504-2.64c-0.368-0.561-0.872-0.84-1.512-0.84c-0.736,0-1.32,0.279-1.752,0.84
				c-0.433,0.56-0.688,1.439-0.769,2.64H96.8z"/>
			<path fill="#828282" d="M100.759,9.119c0.464-0.288,1.028-0.512,1.692-0.672c0.663-0.159,1.363-0.24,2.1-0.24
				c0.672,0,1.212,0.101,1.62,0.301s0.728,0.472,0.96,0.815c0.231,0.345,0.384,0.736,0.456,1.176c0.072,0.44,0.108,0.9,0.108,1.381
				c0,0.96-0.021,1.896-0.062,2.808c-0.041,0.912-0.062,1.775-0.062,2.592c0,0.607,0.021,1.172,0.062,1.691s0.118,1.012,0.23,1.477
				h-1.354l-0.42-1.416h-0.095c-0.238,0.416-0.588,0.775-1.048,1.08c-0.461,0.303-1.08,0.455-1.858,0.455
				c-0.857,0-1.561-0.299-2.108-0.9c-0.548-0.6-0.821-1.428-0.821-2.482c0-0.688,0.114-1.264,0.345-1.729s0.556-0.84,0.977-1.129
				c0.42-0.287,0.92-0.492,1.499-0.611c0.579-0.12,1.226-0.181,1.94-0.181c0.158,0,0.316,0,0.476,0c0.158,0,0.325,0.009,0.5,0.024
				c0.048-0.496,0.071-0.937,0.071-1.32c0-0.912-0.135-1.552-0.404-1.92s-0.761-0.552-1.475-0.552c-0.443,0-0.927,0.068-1.45,0.204
				s-0.959,0.308-1.308,0.516L100.759,9.119z M105.919,14.928c-0.158-0.016-0.316-0.029-0.475-0.037s-0.316-0.012-0.474-0.012
				c-0.38,0-0.751,0.033-1.115,0.096c-0.363,0.064-0.688,0.176-0.972,0.336c-0.285,0.16-0.51,0.377-0.676,0.648
				s-0.249,0.615-0.249,1.031c0,0.641,0.154,1.137,0.462,1.488c0.309,0.352,0.708,0.529,1.197,0.529c0.664,0,1.178-0.16,1.542-0.48
				c0.363-0.32,0.616-0.672,0.759-1.057V14.928z"/>
			<path fill="#828282" d="M116.623,20.399v-7.32c0-1.199-0.14-2.067-0.42-2.604c-0.279-0.536-0.779-0.804-1.5-0.804
				c-0.64,0-1.168,0.191-1.584,0.575c-0.416,0.385-0.72,0.856-0.912,1.416v8.736h-1.728v-12h1.248l0.312,1.272h0.072
				c0.304-0.433,0.716-0.801,1.236-1.104c0.52-0.304,1.14-0.456,1.859-0.456c0.513,0,0.964,0.072,1.356,0.216
				c0.392,0.145,0.72,0.389,0.984,0.732c0.264,0.344,0.464,0.804,0.6,1.38s0.204,1.305,0.204,2.184v7.776H116.623z"/>
			<path fill="#828282" d="M128.574,16.272c0,0.816,0.008,1.557,0.024,2.219c0.016,0.664,0.072,1.316,0.168,1.957h-1.176
				l-0.384-1.439h-0.097c-0.224,0.479-0.576,0.879-1.056,1.199c-0.48,0.32-1.056,0.48-1.729,0.48c-1.296,0-2.26-0.504-2.892-1.512
				c-0.632-1.01-0.948-2.594-0.948-4.752c0-2.048,0.388-3.601,1.164-4.657c0.776-1.057,1.844-1.584,3.204-1.584
				c0.464,0,0.832,0.028,1.104,0.084c0.271,0.056,0.567,0.148,0.888,0.275V3.6h1.728V16.272z M126.847,10.296
				c-0.225-0.192-0.477-0.332-0.756-0.421c-0.28-0.087-0.652-0.132-1.116-0.132c-0.849,0-1.508,0.384-1.979,1.152
				c-0.473,0.768-0.708,1.952-0.708,3.552c0,0.703,0.043,1.34,0.132,1.908c0.088,0.568,0.224,1.061,0.407,1.475
				c0.185,0.418,0.424,0.736,0.721,0.961c0.296,0.225,0.66,0.336,1.092,0.336c1.152,0,1.888-0.68,2.208-2.039V10.296z"/>
			<path fill="#828282" d="M130.879,14.399c0-2.16,0.372-3.748,1.116-4.763c0.744-1.017,1.804-1.524,3.18-1.524
				c1.473,0,2.557,0.521,3.252,1.561c0.696,1.04,1.045,2.615,1.045,4.727c0,2.176-0.377,3.768-1.129,4.777
				c-0.752,1.008-1.808,1.512-3.168,1.512c-1.472,0-2.556-0.52-3.252-1.561C131.228,18.088,130.879,16.512,130.879,14.399z
				 M132.68,14.399c0,0.705,0.043,1.344,0.132,1.92c0.088,0.576,0.231,1.072,0.432,1.488s0.46,0.74,0.78,0.973
				c0.319,0.232,0.704,0.348,1.151,0.348c0.832,0,1.456-0.371,1.872-1.115s0.624-1.949,0.624-3.613c0-0.687-0.044-1.324-0.132-1.908
				s-0.232-1.084-0.432-1.5c-0.2-0.416-0.46-0.739-0.78-0.972c-0.32-0.231-0.704-0.348-1.152-0.348
				c-0.815,0-1.436,0.376-1.859,1.128C132.891,11.552,132.68,12.752,132.68,14.399z"/>
			<path fill="#828282" d="M148.71,17.543c0,0.561,0.076,0.959,0.229,1.199c0.151,0.24,0.363,0.361,0.636,0.361
				c0.336,0,0.728-0.088,1.176-0.264l0.168,1.391c-0.208,0.129-0.5,0.232-0.876,0.312s-0.716,0.119-1.02,0.119
				c-0.608,0-1.101-0.188-1.477-0.562c-0.376-0.377-0.563-1.037-0.563-1.98V3.6h1.728V17.543z"/>
			<path fill="#828282" d="M152.43,4.751c0-0.384,0.108-0.695,0.324-0.936s0.5-0.36,0.853-0.36c0.352,0,0.644,0.116,0.876,0.349
				c0.231,0.231,0.348,0.548,0.348,0.947c0,0.385-0.116,0.685-0.348,0.9c-0.232,0.216-0.524,0.324-0.876,0.324
				c-0.353,0-0.637-0.112-0.853-0.336S152.43,5.12,152.43,4.751z M152.742,8.399h1.728v12h-1.728V8.399z"/>
			<path fill="#828282" d="M160.566,15.432l0.479,2.375h0.048l0.433-2.424l2.111-6.984h1.824l-4.104,12.263h-0.84l-4.177-12.263
				h1.969L160.566,15.432z"/>
			<path fill="#828282" d="M166.974,8.399h1.224l0.312,1.272h0.072c0.224-0.464,0.516-0.828,0.876-1.093
				c0.359-0.264,0.795-0.396,1.308-0.396c0.368,0,0.784,0.072,1.248,0.216l-0.336,1.752c-0.416-0.144-0.784-0.216-1.104-0.216
				c-0.512,0-0.928,0.148-1.248,0.444s-0.527,0.691-0.624,1.188v8.832h-1.728V8.399z"/>
			<path fill="#828282" d="M173.021,14.399c0-2.16,0.372-3.748,1.116-4.763c0.744-1.017,1.804-1.524,3.18-1.524
				c1.473,0,2.557,0.521,3.252,1.561c0.696,1.04,1.045,2.615,1.045,4.727c0,2.176-0.377,3.768-1.129,4.777
				c-0.752,1.008-1.808,1.512-3.168,1.512c-1.472,0-2.556-0.52-3.252-1.561C173.37,18.088,173.021,16.512,173.021,14.399z
				 M174.822,14.399c0,0.705,0.043,1.344,0.132,1.92c0.088,0.576,0.231,1.072,0.432,1.488s0.46,0.74,0.78,0.973
				c0.319,0.232,0.704,0.348,1.151,0.348c0.832,0,1.456-0.371,1.872-1.115s0.624-1.949,0.624-3.613c0-0.687-0.044-1.324-0.132-1.908
				s-0.232-1.084-0.432-1.5c-0.2-0.416-0.46-0.739-0.78-0.972c-0.32-0.231-0.704-0.348-1.152-0.348
				c-0.815,0-1.436,0.376-1.859,1.128C175.033,11.552,174.822,12.752,174.822,14.399z"/>
			<path fill="#828282" d="M183.725,18.432c0.32,0.191,0.7,0.355,1.141,0.492c0.439,0.135,0.892,0.203,1.355,0.203
				c0.528,0,0.976-0.133,1.345-0.398c0.367-0.266,0.552-0.695,0.552-1.291c0-0.5-0.112-0.91-0.336-1.23
				c-0.225-0.322-0.509-0.611-0.853-0.869s-0.716-0.494-1.116-0.709c-0.399-0.217-0.771-0.475-1.115-0.778
				c-0.345-0.303-0.628-0.661-0.853-1.076c-0.224-0.415-0.336-0.941-0.336-1.579c0-1.021,0.276-1.789,0.828-2.308
				s1.332-0.777,2.34-0.777c0.656,0,1.225,0.061,1.704,0.18c0.48,0.12,0.896,0.284,1.248,0.492l-0.456,1.44
				c-0.304-0.16-0.656-0.292-1.056-0.396c-0.4-0.104-0.809-0.155-1.225-0.155c-0.575,0-0.995,0.119-1.26,0.359
				c-0.264,0.24-0.396,0.616-0.396,1.128c0,0.4,0.111,0.74,0.336,1.021c0.224,0.28,0.508,0.536,0.852,0.768
				c0.344,0.232,0.716,0.468,1.116,0.708c0.399,0.24,0.771,0.525,1.116,0.853c0.344,0.328,0.628,0.719,0.852,1.176
				c0.224,0.455,0.336,1.027,0.336,1.715c0,0.449-0.071,0.873-0.216,1.273c-0.144,0.398-0.364,0.748-0.66,1.043
				c-0.296,0.297-0.664,0.531-1.104,0.709c-0.44,0.176-0.956,0.264-1.548,0.264c-0.705,0-1.312-0.068-1.824-0.205
				c-0.513-0.135-0.944-0.314-1.296-0.539L183.725,18.432z"/>
		</g>
	</g>
	<g>
		<g>
			<path fill="#B4B4B4" d="M0.086,17.542c0-0.625-0.016-1.559-0.042-2.799C0.013,13.504,0,12.589,0,12.004
				c0-1.152,0.031-2.143,0.104-2.974C0.168,8.201,0.32,7.35,0.556,6.481c0.233-0.87,0.557-1.572,0.967-2.108
				c0.41-0.538,0.967-0.978,1.67-1.319c0.702-0.342,1.543-0.513,2.519-0.513l1.877,3.75c-1.349,0-2.312,0.293-2.887,0.88
				C4.124,7.755,3.837,8.713,3.837,10.04h3.751v7.501H0.086z M11.338,17.542c0-0.625-0.018-1.559-0.045-2.799
				c-0.031-1.239-0.044-2.154-0.044-2.739c0-1.152,0.034-2.143,0.104-2.974c0.065-0.829,0.218-1.681,0.453-2.549
				c0.235-0.87,0.556-1.572,0.967-2.108c0.41-0.538,0.967-0.978,1.67-1.319c0.702-0.342,1.543-0.513,2.52-0.513l1.877,3.75
				c-1.351,0-2.312,0.293-2.89,0.88c-0.575,0.584-0.861,1.542-0.861,2.869h3.751v7.501H11.338z"/>
		</g>
	</g>
	<g>
		<g>
			<path fill="#B4B4B4" d="M197.006,24.995l-1.875-3.75c1.348,0,2.309-0.293,2.886-0.879c0.574-0.586,0.864-1.543,0.864-2.871h-3.75
				v-7.5h7.5c0,2.812-0.029,5.176-0.087,7.09c-0.04,1.055-0.099,1.943-0.177,2.666c-0.08,0.723-0.234,1.441-0.469,2.152
				c-0.234,0.713-0.549,1.281-0.938,1.699c-0.391,0.42-0.915,0.758-1.568,1.012C198.736,24.868,197.943,24.995,197.006,24.995z
				 M208.256,24.995l-1.875-3.75c1.348,0,2.309-0.293,2.886-0.879c0.574-0.586,0.864-1.543,0.864-2.871h-3.75v-7.5h7.5
				c0,2.812-0.029,5.176-0.087,7.09c-0.04,1.055-0.099,1.943-0.177,2.666c-0.08,0.723-0.234,1.441-0.469,2.152
				c-0.234,0.713-0.549,1.281-0.938,1.699c-0.391,0.42-0.915,0.758-1.568,1.012C209.986,24.868,209.193,24.995,208.256,24.995z"/>
		</g>
	</g>
</g>
<g>
</g>
<g>
</g>
<g>
</g>
<g>
</g>
<g>
</g>
<g>
</g>
<g>
</g>
<g>
</g>
<g>
</g>
<g>
</g>
<g>
</g>
<g>
</g>
<g>
</g>
<g>
</g>
<g>
</g>
</svg>
