<?xml version="1.0" encoding="utf-8"?>
<!-- Generator: Adobe Illustrator 16.0.0, SVG Export Plug-In . SVG Version: 6.00 Build 0)  -->
<!DOCTYPE svg PUBLIC "-//W3C//DTD SVG 1.0//EN" "http://www.w3.org/TR/2001/REC-SVG-20010904/DTD/svg10.dtd">
<svg version="1.0" id="Layer_1" xmlns="http://www.w3.org/2000/svg" xmlns:xlink="http://www.w3.org/1999/xlink" x="0px" y="0px"
	 width="722px" height="43px" viewBox="0 0 722 43" enable-background="new 0 0 722 43" xml:space="preserve">
<g>
	<path fill="#FFFFFF" d="M6,0v28h10.061c-0.01-2-0.501-3.077-0.237-4.61c0.104-0.635-0.043-1.166-0.226-1.75
		c-0.08-0.258,0.069-0.852,0.162-1.307c-0.39,0.098-0.788,0.153-1.196,0.168c-1.876,0.055-3.556-0.812-4.616-2.19l-0.201-6.555
		c0.973-1.438,2.596-2.411,4.468-2.469c1.873-0.057,3.552,0.812,4.614,2.189l0.199,6.553c-0.64,0.951-1.565,1.691-2.657,2.105
		c-0.057,0.57-0.272,1.357-0.016,1.715c0.275,0.377,0.168,0.815,0.089,1.257C16.165,24.745,16.606,26,16.622,28h16.606
		c-0.037-1-0.05-1.073-0.063-1.62c-0.134,0.012-0.268-0.06-0.288-0.196c-0.133-0.703,0.29-1.597,0.098-2.228
		c-0.184-0.594-0.262-1.13-0.338-1.748c-0.064-0.514-0.231-1.171-0.153-1.743c-0.104,0.008-0.208,0.014-0.314,0.018
		c-1.87,0.059-3.553-0.811-4.613-2.188l-0.199-6.553c0.971-1.441,2.596-2.412,4.469-2.469c1.87-0.057,3.552,0.811,4.61,2.191
		l0.202,6.551c-0.817,1.205-2.085,2.08-3.575,2.365c-0.206,0.617,0.119,1.855,0.192,2.371c0.06,0.393,0.36,0.988,0.328,1.41
		c-0.034,0.432-0.16,0.908-0.186,1.359c0.147-0.012,0.293,0.11,0.307,0.28C33.746,26.54,33.732,27,33.792,28h14.664
		c0.066-1-0.057-1.421-0.081-2.224c-0.017-0.791,0.273-1.527,0.253-2.316c-0.027-0.701-0.05-1.305,0.062-1.987
		c0.069-0.408-0.137-0.71-0.34-1.027c-1.738-0.049-3.281-0.894-4.282-2.192l-0.199-6.553c0.972-1.439,2.601-2.409,4.47-2.467
		c1.87-0.057,3.549,0.811,4.613,2.188l0.199,6.557c-0.917,1.355-2.41,2.299-4.148,2.447c0.19,0.264,0.347,0.527,0.29,0.889
		c-0.144,0.861-0.089,1.688-0.111,2.551c-0.026,0.951-0.204,1.753-0.119,2.716C49.106,27.067,49.1,28,49.042,28h7.543h1.788h8.271
		c-0.009-2-0.493-3.075-0.235-4.61c0.106-0.635-0.045-1.166-0.227-1.75c-0.081-0.258,0.068-0.852,0.162-1.307
		c-0.39,0.098-0.788,0.155-1.197,0.168c-1.874,0.062-3.555-0.812-4.614-2.19l-0.201-6.555c0.972-1.438,2.595-2.411,4.467-2.469
		c1.873-0.057,3.553,0.812,4.614,2.189l0.2,6.553c-0.639,0.951-1.566,1.691-2.658,2.105c-0.058,0.57-0.274,1.359-0.017,1.715
		c0.273,0.379,0.166,0.815,0.089,1.257C66.739,24.743,67.19,26,67.206,28h16.607c-0.037-1-0.05-1.073-0.063-1.62
		c-0.135,0.012-0.265-0.06-0.288-0.196c-0.12-0.705,0.291-1.597,0.098-2.228c-0.184-0.594-0.263-1.13-0.34-1.748
		c-0.062-0.514-0.229-1.171-0.151-1.743c-0.104,0.008-0.208,0.014-0.315,0.018c-1.868,0.064-3.553-0.811-4.611-2.188l-0.2-6.553
		c0.971-1.441,2.596-2.412,4.468-2.469c1.87-0.057,3.553,0.811,4.609,2.191l0.201,6.551c-0.814,1.205-2.083,2.08-3.572,2.365
		l5.89,1.414l1.081,0.006c1.578-0.977,2.835-2.637,4.426-3.557c0.186-0.104,0.365-0.188,0.552-0.26
		c-0.183-0.191-0.358-0.396-0.511-0.611l0.053-6.555c1.031-1.402,2.692-2.311,4.564-2.295c1.871,0.012,3.517,0.945,4.521,2.363
		l-0.045,6.557c-0.236,0.322-0.514,0.617-0.806,0.883c0.088,0.129,0.159,0.275,0.196,0.453c0.509,2.443-0.27,4.613-1.233,6.828
		c-0.25,0.568-0.497,1.127-0.702,1.684l1.872,0.018c1.686-1.896,4.102-3.037,6.562-3.602c0.492-0.113,0.994-0.209,1.495-0.293
		c0.049-0.01,0.094-0.02,0.139-0.031c0.001-0.018,0.001-0.031,0.008-0.049c0.049-0.488,0.1-0.975,0.167-1.455
		c0.132-0.957,0.141-2.264,0.764-3.068c0.048-0.068,0.097-0.129,0.159-0.189c-0.398-0.324-0.754-0.699-1.049-1.121l0.048-6.555
		c1.021-1.402,2.69-2.309,4.563-2.293c1.868,0.014,3.514,0.945,4.521,2.363l-0.048,6.555c-0.258,0.346-0.545,0.654-0.863,0.932
		c0.529,0.318,1.011,0.779,1.429,1.469c0.785,1.299,1.241,2.793,2.1,4.055c0.809,1.184,1.89,2.305,2.554,3.594l8.977,0.07
		c0.021-0.232,0.156-0.6,0.152-0.895c-0.016-0.818-0.633-1.303-1.099-1.873c-0.345-0.43-0.533-0.961-0.455-1.512
		c0.062-0.418,0.411-1.281,0.265-1.672c-0.167-0.467-0.529-0.826-0.773-1.252c-0.098-0.174-0.108-0.34-0.071-0.494
		c-0.044,0.002-0.082,0.004-0.123,0.004c-1.871-0.018-3.516-0.947-4.521-2.365l0.049-6.557c1.029-1.402,2.688-2.309,4.56-2.293
		c1.874,0.016,3.52,0.945,4.526,2.361l-0.053,6.559c-0.879,1.197-2.216,2.029-3.75,2.24c-0.139,0.516,0.659,1.354,0.738,1.859
		c0.133,0.83-0.682,1.654-0.126,2.488c0.359,0.562,1.055,1.088,1.281,1.738c0.172,0.516-0.041,1.15-0.062,1.664l14.743,0.115
		c-0.102-0.348-0.086-0.834-0.086-1.184c0.003-0.922,0.282-1.631,0.549-2.498c0.407-1.328-0.754-2.6-1.013-4.004
		c-0.057-0.002-0.112,0.002-0.171,0.004c-1.878-0.014-3.519-0.947-4.525-2.365l0.048-6.557c1.03-1.402,2.689-2.309,4.562-2.295
		c1.872,0.016,3.52,0.947,4.524,2.361l-0.053,6.561c-0.893,1.217-2.261,2.061-3.829,2.252c0.129,0.795,0.562,1.32,0.941,2.086
		c0.211,0.434,0.358,0.846,0.258,1.34c-0.188,0.891-0.722,1.768-0.724,2.688c-0.001,0.52,0.019,1.137,0.151,1.615l5.774,0.045
		l13.98,7.414c0.361-0.57,0.751-1.27,0.569-1.338c-0.383-0.15-0.78-0.387-1.007-0.752c-0.154-0.258-0.183-0.43-0.257-0.721
		c-0.244-0.918-0.499-0.518-0.889-0.861c-0.327-0.285-0.411-0.486-0.411-0.918c-0.004-0.277,0.224-0.594,0.475-0.709
		c0.997-0.459,0.368-1.166-0.041-1.914c-0.633-1.166,0.536-1.982,0.714-2.924c-1.306,0.607-2.849,0.715-4.313,0.172
		c-1.569-0.59-2.721-1.812-3.273-3.273c-0.66,0.121-2.005,0.766-2.072,0.754c-0.675,0.266-1.243-0.227-1.97-0.41
		c-0.351-0.09-0.211-2.9,0.148-2.936c0.583-0.061,1.363,0.289,1.743-0.309c0.041-0.064,1.069-0.977,1.604-1.295l0.051-6.504
		c1.033-1.398,2.69-2.309,4.561-2.295c1.871,0.016,3.517,0.949,4.525,2.365l-0.053,6.561c-0.032,0.045-0.062,0.088-0.102,0.135
		c0.119,0.24,0.165,0.51,0.104,0.822c-0.077,0.445-0.343,1.016-0.298,1.459c0.099,0.98,0.823,0.875,1.261,1.408
		c0.23,0.293,0.701,0.826,0.526,1.254c-0.094,0.221-1.069,1.25-0.391,1.361c0.53,0.09,0.992,0.08,1.331,0.564
		c0.455,0.65,1.113,0.633,1.703,0.971c0.463,0.271,0.367,1.17,0.188,1.926l9.012,0.07c0.032-0.291,0.072-0.557,0.113-0.545
		c-0.092-0.027-0.204-0.092-0.266-0.166c-0.164-0.199-0.274-0.398-0.295-0.666c-0.075-0.723,0.662-2.758-0.078-3.199
		c-0.119-0.072-0.19-0.262-0.099-0.389c0.522-0.715,0.006-1.732-0.124-2.604c-0.165,0.012-0.324,0.018-0.485,0.018
		c-1.869-0.016-3.515-0.949-4.525-2.363l0.05-6.559c1.031-1.4,2.692-2.309,4.562-2.293c1.875,0.014,3.517,0.947,4.521,2.361
		l-0.049,6.561c-0.834,1.137-2.086,1.949-3.529,2.205c0.095,0.928,0.635,1.904,0.194,2.766c0.812,0.965-0.546,3.543,0.456,3.836
		c0.117,0.031,0.218,0.148,0.209,0.271c-0.023,0.258-0.046,0.514-0.078,0.768l15.604,0.121c0.065-0.271,0.174-0.545,0.297-0.838
		c0.449-1.021,0.312-1.719-0.359-2.596c-0.093-0.121-0.171-0.275-0.188-0.428c-0.06-0.459,0.039-0.965,0.112-1.424
		c0.028-0.158,0.333-0.852,0.261-1.02c-0.183-0.416-0.383-0.832-0.572-1.246c-0.104,0.004-0.2,0.006-0.306,0.004
		c-1.873-0.014-3.515-0.945-4.526-2.365l0.049-6.555c1.029-1.4,2.692-2.307,4.563-2.293c1.872,0.014,3.52,0.945,4.528,2.361
		l-0.057,6.559c-0.852,1.16-2.129,1.979-3.604,2.219c0.268,0.451,0.572,0.885,0.575,1.465c-0.003,0.393-0.345,0.867-0.394,1.307
		c-0.072,0.625-0.146,0.925,0.287,1.425c1.001,1.176,0.094,2.368-0.191,3.368h7.542h1.788h8.271c-0.01-2-0.494-3.075-0.236-4.61
		c0.106-0.635-0.043-1.166-0.226-1.75c-0.081-0.258,0.069-0.852,0.161-1.307c-0.389,0.098-0.787,0.155-1.196,0.168
		c-1.876,0.062-3.555-0.812-4.616-2.19l-0.201-6.555c0.973-1.438,2.596-2.411,4.47-2.469c1.873-0.057,3.552,0.812,4.613,2.189
		l0.2,6.553c-0.639,0.951-1.566,1.691-2.658,2.105c-0.057,0.57-0.273,1.359-0.016,1.715c0.273,0.379,0.166,0.815,0.089,1.257
		C218.495,24.743,218.944,26,218.96,28h16.606c-0.037-1-0.051-1.073-0.064-1.62c-0.133,0.012-0.266-0.06-0.288-0.196
		c-0.118-0.705,0.291-1.597,0.099-2.228c-0.184-0.594-0.262-1.13-0.338-1.748c-0.065-0.514-0.23-1.171-0.154-1.743
		c-0.102,0.008-0.208,0.014-0.313,0.018c-1.87,0.064-3.554-0.811-4.612-2.188l-0.199-6.553c0.969-1.441,2.594-2.412,4.467-2.469
		c1.871-0.057,3.553,0.811,4.61,2.191l0.203,6.551c-0.817,1.205-2.088,2.08-3.576,2.365c-0.206,0.617,0.116,1.855,0.192,2.371
		c0.059,0.393,0.361,0.988,0.327,1.41c-0.032,0.432-0.159,0.908-0.185,1.359c0.147-0.012,0.295,0.11,0.306,0.28
		c0.054,0.736,0.029,1.198,0.089,2.198h14.665c0.066-1-0.061-1.421-0.081-2.224c-0.021-0.791,0.278-1.527,0.253-2.316
		c-0.022-0.701-0.05-1.305,0.062-1.987c0.068-0.408-0.137-0.71-0.34-1.027c-1.739-0.049-3.281-0.894-4.283-2.192l-0.199-6.553
		c0.973-1.439,2.602-2.409,4.472-2.467c1.868-0.057,3.548,0.811,4.611,2.188l0.2,6.557c-0.917,1.355-2.41,2.299-4.148,2.447
		c0.189,0.264,0.348,0.527,0.289,0.889c-0.139,0.861-0.088,1.688-0.111,2.551c-0.025,0.951-0.203,1.753-0.119,2.716
		c0.043,0.486,0.037,1.419-0.021,1.419h7.543h1.788h8.273c-0.012-2-0.495-3.075-0.237-4.61c0.106-0.635-0.044-1.166-0.227-1.75
		c-0.079-0.258,0.069-0.852,0.163-1.307c-0.391,0.098-0.789,0.155-1.197,0.168c-1.875,0.062-3.555-0.812-4.616-2.19l-0.2-6.555
		c0.971-1.438,2.595-2.411,4.468-2.469c1.873-0.057,3.551,0.812,4.613,2.189l0.199,6.553c-0.639,0.951-1.566,1.691-2.656,2.105
		c-0.058,0.57-0.274,1.359-0.017,1.715c0.273,0.379,0.166,0.815,0.088,1.257c-0.285,1.637,0.164,2.894,0.182,4.894h16.604
		c-0.037-1-0.05-1.073-0.063-1.62c-0.134,0.012-0.266-0.06-0.288-0.196c-0.121-0.705,0.29-1.597,0.099-2.228
		c-0.185-0.594-0.263-1.13-0.339-1.748c-0.064-0.514-0.23-1.171-0.153-1.743c-0.103,0.008-0.208,0.014-0.314,0.018
		c-1.871,0.064-3.553-0.811-4.612-2.188l-0.199-6.553c0.971-1.441,2.596-2.412,4.468-2.469c1.87-0.057,3.552,0.811,4.609,2.191
		l0.203,6.551c-0.817,1.205-2.085,2.08-3.575,2.365c-0.206,0.617,0.117,1.855,0.193,2.371c0.057,0.393,0.36,0.988,0.328,1.41
		c-0.034,0.432-0.16,0.908-0.187,1.359c0.147-0.012,0.295,0.11,0.307,0.28c0.052,0.736,0.027,1.198,0.088,2.198h14.664
		c0.067-1-0.061-1.421-0.081-2.224c-0.021-0.791,0.278-1.527,0.253-2.316c-0.022-0.701-0.052-1.305,0.062-1.987
		c0.068-0.408-0.137-0.71-0.34-1.027c-1.738-0.049-3.281-0.894-4.281-2.192l-0.199-6.553c0.971-1.439,2.6-2.409,4.47-2.467
		c1.87-0.057,3.55,0.811,4.612,2.188l0.199,6.557c-0.917,1.355-2.41,2.299-4.147,2.447c0.19,0.264,0.347,0.527,0.289,0.889
		c-0.142,0.861-0.089,1.688-0.111,2.551c-0.026,0.951-0.204,1.753-0.119,2.716c0.043,0.486,0.038,1.419-0.021,1.419h7.543h1.788
		h8.271c-0.011-2-0.494-3.075-0.236-4.61c0.106-0.633-0.045-1.166-0.227-1.75c-0.081-0.258,0.067-0.852,0.162-1.307
		c-0.391,0.098-0.788,0.155-1.196,0.168c-1.876,0.062-3.555-0.812-4.615-2.19l-0.201-6.555c0.973-1.438,2.596-2.411,4.466-2.469
		c1.875-0.057,3.554,0.812,4.616,2.189l0.198,6.553c-0.639,0.951-1.564,1.691-2.656,2.105c-0.059,0.57-0.274,1.359-0.017,1.715
		c0.274,0.379,0.166,0.815,0.089,1.257c-0.286,1.637,0.162,2.894,0.18,4.894h16.606c-0.038-1-0.05-1.073-0.064-1.62
		c-0.134,0.012-0.266-0.06-0.288-0.196c-0.121-0.705,0.293-1.597,0.099-2.228c-0.184-0.594-0.263-1.13-0.339-1.748
		c-0.064-0.514-0.23-1.171-0.153-1.743c-0.103,0.008-0.207,0.014-0.313,0.018c-1.872,0.064-3.554-0.811-4.613-2.188l-0.199-6.553
		c0.971-1.441,2.596-2.412,4.469-2.469c1.87-0.057,3.55,0.811,4.608,2.191l0.203,6.551c-0.818,1.205-2.085,2.08-3.574,2.365
		c-0.206,0.617,0.116,1.855,0.192,2.371c0.059,0.393,0.36,0.988,0.328,1.41c-0.034,0.432-0.16,0.908-0.186,1.359
		c0.148-0.012,0.295,0.11,0.307,0.28c0.051,0.736,0.028,1.198,0.088,2.198h14.663c0.068-1-0.06-1.421-0.08-2.224
		c-0.02-0.791,0.277-1.527,0.253-2.316c-0.023-0.701-0.052-1.305,0.062-1.987c0.068-0.408-0.138-0.71-0.341-1.027
		c-1.738-0.049-3.28-0.894-4.281-2.192l-0.199-6.553c0.972-1.439,2.6-2.409,4.471-2.467c1.869-0.057,3.549,0.811,4.612,2.188
		l0.198,6.557c-0.916,1.355-2.41,2.299-4.147,2.447c0.19,0.264,0.349,0.527,0.29,0.889c-0.14,0.861-0.09,1.688-0.111,2.551
		c-0.027,0.951-0.205,1.753-0.119,2.716c0.043,0.486,0.037,1.419-0.021,1.419h7.542h1.788h8.271c-0.011-2-0.493-3.075-0.236-4.61
		c0.106-0.635-0.044-1.166-0.227-1.75c-0.081-0.258,0.069-0.852,0.162-1.307c-0.389,0.098-0.787,0.155-1.196,0.168
		c-1.876,0.062-3.556-0.812-4.616-2.19l-0.202-6.555c0.974-1.438,2.597-2.411,4.469-2.469c1.874-0.057,3.553,0.812,4.615,2.189
		l0.199,6.553c-0.637,0.951-1.565,1.691-2.657,2.105c-0.058,0.57-0.274,1.359-0.016,1.715c0.273,0.379,0.165,0.815,0.088,1.257
		c-0.287,1.637,0.163,2.894,0.18,4.894h16.606c-0.037-1-0.051-1.073-0.064-1.62c-0.134,0.012-0.266-0.06-0.286-0.196
		c-0.118-0.707,0.291-1.599,0.097-2.228c-0.183-0.596-0.263-1.13-0.339-1.748c-0.063-0.514-0.229-1.171-0.153-1.743
		c-0.104,0.008-0.207,0.014-0.313,0.018c-1.87,0.064-3.554-0.811-4.611-2.188l-0.2-6.553c0.97-1.441,2.594-2.412,4.467-2.469
		c1.871-0.057,3.554,0.811,4.61,2.191l0.202,6.551c-0.816,1.205-2.086,2.08-3.574,2.365c-0.207,0.617,0.115,1.855,0.192,2.371
		c0.057,0.393,0.359,0.988,0.327,1.41c-0.033,0.432-0.16,0.908-0.186,1.359c0.149-0.012,0.295,0.11,0.307,0.28
		c0.052,0.736,0.027,1.198,0.088,2.198h14.665c0.067-1-0.062-1.421-0.081-2.224c-0.021-0.791,0.279-1.527,0.254-2.316
		c-0.022-0.701-0.051-1.305,0.062-1.987c0.068-0.408-0.137-0.71-0.34-1.027c-1.738-0.049-3.281-0.894-4.283-2.192l-0.199-6.553
		c0.973-1.439,2.602-2.409,4.471-2.467c1.869-0.057,3.549,0.811,4.611,2.188l0.199,6.557c-0.916,1.355-2.409,2.299-4.147,2.447
		c0.19,0.264,0.349,0.527,0.291,0.889c-0.14,0.861-0.09,1.688-0.112,2.551c-0.026,0.951-0.204,1.753-0.119,2.716
		c0.043,0.486,0.037,1.419-0.021,1.419h7.543h1.787h8.272c-0.01-2-0.494-3.075-0.236-4.61c0.107-0.635-0.045-1.166-0.227-1.75
		c-0.08-0.258,0.069-0.852,0.162-1.307c-0.39,0.098-0.787,0.155-1.197,0.168c-1.875,0.062-3.555-0.812-4.615-2.19l-0.201-6.555
		c0.973-1.438,2.596-2.411,4.467-2.469c1.875-0.057,3.554,0.812,4.615,2.189l0.199,6.553c-0.638,0.951-1.565,1.691-2.656,2.105
		c-0.058,0.57-0.273,1.359-0.017,1.715c0.273,0.379,0.166,0.815,0.089,1.257c-0.286,1.637,0.163,2.894,0.18,4.894h16.605
		c-0.037-1-0.05-1.073-0.064-1.62c-0.133,0.012-0.264-0.06-0.286-0.196c-0.121-0.705,0.289-1.597,0.097-2.228
		c-0.184-0.594-0.262-1.13-0.338-1.748c-0.064-0.514-0.23-1.171-0.153-1.743c-0.104,0.008-0.208,0.014-0.314,0.018
		c-1.87,0.064-3.554-0.811-4.612-2.188l-0.199-6.553c0.97-1.441,2.595-2.412,4.468-2.469c1.87-0.057,3.553,0.811,4.61,2.191
		l0.202,6.551c-0.817,1.205-2.086,2.08-3.575,2.365c-0.206,0.617,0.117,1.855,0.192,2.371c0.058,0.393,0.36,0.988,0.327,1.41
		c-0.033,0.432-0.159,0.908-0.185,1.359c0.147-0.012,0.295,0.11,0.307,0.28c0.051,0.736,0.028,1.198,0.088,2.198h14.665l2.232,0.12
		c-0.181-0.562-0.153-1.253-0.125-1.886c0.079-1.247-0.701-2.909,0.502-3.733c-0.318-0.703-0.377-1.343-0.271-2.003
		c-1.492-0.24-2.787-1.075-3.644-2.255l-0.01-6.557c1.021-1.408,2.673-2.331,4.544-2.333c1.873-0.002,3.527,0.916,4.547,2.324
		l0.002,6.557c-1.015,1.412-2.665,2.334-4.536,2.332c-0.111,0.002-0.222,0-0.335-0.008c-0.105,0.615-0.047,1.225,0.318,1.906
		c0.071,0.129,0.041,0.316-0.1,0.389c-1.207,0.605-0.367,2.156-0.431,3.16c-0.04,0.648-0.165,1.525,0.149,2.096l14.275-0.014
		c-0.409-0.334-0.89-0.643-0.885-1.242c0.017-0.906,0.381-1.52,1.197-1.936c0.576-0.295,1.709-0.723,1.681-1.523
		c-0.013-0.395-0.196-0.865-0.124-1.256c0.114-0.613-0.124-1.146-0.278-1.713c-1.376-0.295-2.561-1.096-3.358-2.199l-0.006-6.555
		c1.021-1.412,2.674-2.332,4.545-2.334c1.869,0.002,3.523,0.918,4.544,2.326l0.003,6.557c-1.016,1.41-2.665,2.332-4.539,2.332
		c-0.15,0-0.308-0.006-0.457-0.018c0.077,0.121,0.17,0.246,0.259,0.398c0.234,0.408-0.175,1.139-0.113,1.566
		c0.111,0.768,0.2,1.521-0.487,2.055c-1.105,0.857-3.487,1.783-1.457,3.221c0.143,0.105,0.258,0.209,0.35,0.322l16.938-0.018
		c0.365-1.014,1.636-1.803,1.756-2.877C489.785,25.16,490,25.109,490,25.041v-0.57c0-0.062-0.217-0.115-0.18-0.16
		c0.086-0.912,0.086-1.795-0.218-2.717c-0.129-0.389-0.265-0.729-0.271-1.07c-1.701-0.121-3.216-1.006-4.154-2.309l-0.025-6.559
		c1.017-1.41,2.659-2.332,4.538-2.334c1.871,0,3.521,0.916,4.538,2.326l0.006,6.557c-0.987,1.367-2.568,2.271-4.362,2.33
		c0.049,0.717,0.435,1.348,0.415,2.137c-0.018,0.65-0.108,1.291-0.164,1.936c0.208,1.4-1.119,2.334-1.516,3.473l17.61-0.014
		c-0.13-0.418-0.274-0.836-0.396-1.26c-0.041-0.15,0.049-0.309,0.198-0.35c0.134-0.041,0.218-0.062,0.299-0.078
		c-0.413-1.898-0.665-3.928-0.466-5.875c-1.668-0.148-3.121-1.02-4.05-2.303l-0.008-6.559c1.019-1.41,2.671-2.33,4.542-2.332
		c1.869-0.004,3.526,0.916,4.546,2.322l0.009,6.559c-1.009,1.395-2.632,2.311-4.476,2.332c-0.214,1.998,0.083,4.129,0.522,6.035
		c0.039,0.184-0.082,0.352-0.277,0.361c-0.064,0.01-0.135,0.021-0.197,0.033c0.114,0.373,0.238,0.74,0.346,1.109l16.058-0.01
		c-0.342-1.41,0.591-3.023-0.077-4.412c-0.086-0.178-0.009-0.346,0.171-0.414c0.082-0.039,0.167-0.072,0.252-0.1
		c-0.285-0.764-0.371-1.77-0.246-2.617c-1.856-0.01-3.49-0.928-4.503-2.324l-0.008-6.559c1.021-1.41,2.67-2.33,4.541-2.332
		c1.873-0.002,3.527,0.918,4.548,2.326l0.002,6.557c-0.917,1.27-2.347,2.145-3.991,2.307c-0.153,0.863-0.06,2.002,0.294,2.678
		c0.082,0.166,0.015,0.367-0.166,0.418c-0.097,0.023-0.192,0.053-0.28,0.082c0.447,1.408-0.434,3.072,0.055,4.389l16.367-0.014
		c0.06-0.832,0.175-1.664,0.323-2.482c0.077-0.455,0.154-0.914,0.314-1.35c0.141-0.391,0.016,0.012-0.398-0.332
		c-0.104-0.086-0.104-0.238-0.05-0.346c0.473-0.953,0.248-2.025,0.172-3.057c-0.173,0.018-0.343,0.027-0.517,0.027
		c-1.877,0.002-3.527-0.92-4.549-2.326l-0.004-6.559c1.014-1.408,2.669-2.33,4.54-2.334c1.871,0,3.525,0.918,4.543,2.326
		l0.006,6.559c-0.816,1.129-2.037,1.945-3.456,2.227c0.056,0.734,0.202,1.477,0.11,2.199c-0.08,0.602-0.354,0.918,0.167,1.354
		c0.12,0.096,0.109,0.305,0.001,0.402c-0.355,0.33-0.37,1.541-0.43,1.988c-0.076,0.562-0.161,1.133-0.201,1.701l16.877-0.014
		c0.009-0.008,0.011-0.016,0.021-0.023c0.598-0.508-0.27-1.287-0.462-1.805c-0.305-0.832,0.665-1.564,0.167-2.541
		c-0.231-0.469-0.592-1.051-0.553-1.604c0.031-0.529,0.127-1.049,0.167-1.572c-0.098,0-0.192,0.004-0.292,0.006
		c-1.871,0.002-3.521-0.916-4.541-2.324l-0.01-6.557c1.018-1.412,2.672-2.332,4.546-2.334c1.87-0.002,3.519,0.914,4.542,2.324
		l0.004,6.555c-0.854,1.189-2.158,2.027-3.674,2.268c-0.013,0.285-0.048,0.566-0.095,0.861c-0.127,0.82,0.058,1.344,0.397,2.086
		c0.275,0.596,0.305,0.984,0.136,1.627c-0.229,0.865,0.042,1.383,0.378,2.098c0.058,0.117,0.146,0.25,0.155,0.389
		c0.021,0.234-0.017,0.402-0.107,0.545l17.468-0.014c0.043-0.232,0.071-0.463,0.063-0.682c-0.053-1.033-0.617-0.742-0.913-1.402
		c-0.388-0.875-0.038-1.039,0.33-1.789c0.573-1.146-0.235-1.529-0.605-2.377c-0.191-0.426-0.192-0.93-0.155-1.432
		c-0.403,0.096-0.824,0.143-1.26,0.143c-1.871,0.002-3.521-0.916-4.542-2.324l-0.006-6.557c1.015-1.412,2.668-2.332,4.537-2.332
		c1.875-0.002,3.529,0.916,4.551,2.324l0.004,6.557c-0.664,0.922-1.604,1.633-2.693,2.016c-0.056,0.822-0.027,1.65,0.785,2.016
		c0.119,0.055,0.149,0.201,0.126,0.318c-0.15,0.814,0.103,1.473-0.415,2.156c-0.76,1.006,0.183,1.109,0.515,1.666
		c0.327,0.553,0.323,1.121,0.222,1.697l17.006-0.014c0.01-0.463,0.079-0.938,0.156-1.418c0.143-0.854,0.428-2.1-0.102-2.893
		c-0.489-0.727-1.008-1.385-1.715-0.531c-0.377,0.455-0.756,0.521-1.105,0.018c-0.242-0.346-0.178-0.715-0.033-1.064
		c0.323-0.777,0.155-1.217-0.203-1.668c-0.137,0.012-0.277,0.021-0.428,0.02c-1.871,0.002-3.521-0.916-4.542-2.324l-0.008-6.559
		c1.015-1.41,2.672-2.33,4.538-2.332c1.872-0.002,3.529,0.918,4.552,2.324l0.002,6.559c-0.207,0.291-0.446,0.555-0.704,0.799
		c0.666,0.469,2.004,0.266,2.681,0.707c0.663,0.428,1.194,2.283,2.109,1.236c0.115-0.123,0.286-0.092,0.4,0
		c0.821,0.648,2.743-1.076,3.679-2.059c-0.216-0.215-0.412-0.445-0.592-0.691l-0.004-6.557c1.018-1.408,2.664-2.332,4.537-2.332
		c1.875-0.002,3.528,0.916,4.545,2.322l0.009,6.559c-0.214,0.295-0.454,0.566-0.72,0.816c0.127,0.135,0.236,0.309,0.347,0.543
		c0.856,1.875,1.588,3.969,3.065,5.459c0.26,0.258,0.025,1.129-0.297,0.947c-1.412-0.785-2.393-1.992-3.457-3.172
		c-0.405-0.449-0.877-1.201-1.334-1.574c-0.05-0.043-0.114-0.072-0.193-0.092c-0.704,0.945-1.712,1.676-2.928,2.027
		c-1.291,0.369-2.6,0.254-3.745-0.234c-0.279,0.555-0.594,1.074-1.022,1.578c-0.566,0.682-1.283,1.562-2.205,1.756
		c-0.013,0.004-0.022,0.006-0.034,0.008c0.445,0.9,0.041,2.154-0.402,2.973c-0.324,0.588-0.812,0.881-1.337,1.275
		c-0.578,0.432-0.999,1.041-1.631,1.408c-0.019,0.014-0.04,0.016-0.061,0.023c0.082,0.666,0.141,1.346,0.323,1.969l20.493-5.844
		l7.551-0.008c-0.145-0.225-0.292-0.418-0.356-0.729c-0.083-0.383-0.166-0.643-0.367-0.982c-0.235-0.4,0.134-1.219,0.173-1.658
		c0.016-0.195,0.163-0.312,0.36-0.275c0.82-0.559,0.97-1.025,0.438-1.398c-0.064-0.074-0.132-0.146-0.202-0.217
		c-0.069-0.088-0.125-0.18-0.171-0.277c-0.109-0.172-0.139-0.314-0.297-0.475c-0.115-0.109-0.108-0.287-0.001-0.4
		c0.172-0.186,0.229-0.252,0.326-0.324c-0.267-0.264-0.528-0.547-0.531-0.812c-1.737-0.102-3.253-0.992-4.214-2.314l-0.003-6.559
		c1.016-1.41,2.665-2.332,4.536-2.332c1.875-0.004,3.528,0.916,4.547,2.322l0.008,6.559c-0.949,1.318-2.453,2.207-4.173,2.318
		c-0.199,0.164,0.386,0.576,0.474,0.67c0.125,0.135,0.101,0.346-0.059,0.447c-0.625,0.393-0.223,0.055-0.107,0.482
		c0.094,0.334,0.281,0.504,0.502,0.736c0.37,0.395,0.504,0.738,0.51,1.287c0.016,0.746-0.709,0.91-1.32,0.885l0.027,0.166
		c0.041,0.102-0.011,0.205-0.072,0.277c-0.43,0.541,0.276,1.83,0.63,2.605l16.469-0.018c0.271-0.92,0.35-2.1-0.261-2.439
		c-0.145-0.08-0.163-0.248-0.104-0.385c0.507-1.193-0.932-2.289-0.543-3.533c0.047-0.154-0.358-0.709-0.426-0.924
		c-0.027-0.092-0.043-0.189-0.052-0.291c-1.611-0.178-3.017-1.041-3.923-2.291l-0.009-6.557c1.021-1.414,2.677-2.332,4.543-2.334
		c1.872-0.002,3.528,0.916,4.55,2.324l-0.002,6.353C643.14,19.282,641.494,20,639.62,20h-0.006c0.056,1,0.191,0.788,0.492,1.024
		c0.099,0.076,0.11,0.353,0.047,0.447c-0.687,1.043,0.706,2.397,0.438,3.627c0.668,0.557,0.66,1.796,0.386,2.825l18.504-0.003
		c-0.172-0.371-0.457-0.682-0.938-0.979c-0.405-0.24-0.719-0.275-0.852-0.764c-0.147-0.516,0.244-1.448,0.34-1.975
		c0.197-1.137,0.607-1.572-0.665-1.947c-0.151-0.045-0.238-0.197-0.196-0.349c0.117-0.508-0.009-1.037-0.095-1.57
		c-0.261,0.039-0.533,0.059-0.8,0.061c-1.869,0-3.52-0.918-4.541-2.328l-0.01-6.557c1.018-1.41,2.669-2.33,4.544-2.332
		c1.874-0.004,3.522,0.918,4.544,2.324l0.004,6.557c-0.767,1.064-1.895,1.85-3.207,2.174c0.07,0.52,0.2,1.033,0.145,1.559
		c0.477,0.186,1.109,0.564,1.105,1.066c0,0.453-0.195,1.025-0.283,1.494c-0.09,0.482-0.029,1.25-0.291,1.674
		c-0.057,0.104,1.242,0.91,1.484,1.148c0.209,0.209,0.336,0.471,0.407,0.756l22.468-0.021c-0.438-1.146-1.215-2.518-2.342-2.053
		c-0.113,0.051-0.255-0.031-0.319-0.131c-0.081-0.135-1.525-1.555-1.806-1.5c-0.119,0.023-0.262-0.012-0.324-0.131
		c-0.416-0.799-0.921-2-1.628-2.529c-0.547-0.402-0.817-1.062-0.898-1.727c-0.725,0.344-1.533,0.541-2.39,0.539
		c-1.869,0.004-3.527-0.914-4.547-2.326l-0.005-6.557c1.018-1.41,2.669-2.332,4.542-2.332c1.875,0,3.524,0.918,4.543,2.326
		l0.008,6.555c-0.432,0.598-0.977,1.107-1.599,1.496c0.032,0.812,0.423,1.512,1.226,1.896c0.091,0.043,0.133,0.148,0.141,0.244
		c0.021,0.217,0.73,2.008,1.109,1.934c0.283-0.055,0.528,0.098,0.756,0.244c0.349,0.223,0.935,0.904,1.165,1.258
		c0.079,0.137,0.735,0.137,0.9,0.199c0.358,0.129,0.714,0.457,0.974,0.715c0.026,0.023,0.045,0.049,0.07,0.072
		c0.598-0.584,1.42-0.707,2.234-0.865c0.896-0.174,1.875-0.303,2.281-1.295c0.15-0.369,0.268-0.67,0.584-0.922
		c0.701-0.568,1.943-0.6,2.78-0.842c1.365-0.398,0.94-1.004,0.263-1.783c-0.019-0.023-0.043-0.049-0.062-0.074
		c-0.233,0.029-0.472,0.043-0.707,0.043c-1.868,0.002-3.522-0.916-4.542-2.324l-0.006-6.557c1.014-1.412,2.671-2.332,4.537-2.334
		c1.873-0.002,3.529,0.916,4.55,2.324l0.002,6.557c-0.071,0.104-0.144,0.197-0.222,0.289c0.603,0.256,1.247,0.52,1.586,0.094
		c0.119-0.154,0.354-0.08,0.449,0.055c0.588,0.885,1.411,1.867,2.464,0.721c0.131-0.139,0.348-0.084,0.446,0.057
		c0.068,0.104,0.141,0.201,0.206,0.301c0.339-0.486,0.44-0.988,1.186-1.01c0.782-0.027,1.521,0.865,1.959,1.389
		c-0.114-0.131,0.093-0.576,0.327-0.988c-0.311-0.271-0.587-0.578-0.826-0.912l-0.007-6.557c1.015-1.412,2.673-2.33,4.54-2.332
		c1.873-0.002,3.527,0.914,4.543,2.324l0.01,6.557c-0.136,0.191-0.291,0.373-0.447,0.543c0.397,0.139,0.807,0.248,1.188,0.404
		c0.332,0.137,0.836,0.529,1.018,0.84c0.295,0.494-0.375,1.834,1.102,1.453c0.781-0.201,1.007-0.096,1.721-0.482
		c0.224-0.119,0.412-0.199,0.622-0.311V0H6z"/>
</g>
<g>
</g>
<g>
</g>
<g>
</g>
<g>
</g>
<g>
</g>
<g>
</g>
<g>
</g>
<g>
</g>
<g>
</g>
<g>
</g>
<g>
</g>
<g>
</g>
<g>
</g>
<g>
</g>
<g>
</g>
</svg>
