<?xml version="1.0" encoding="utf-8"?>
<!-- Generator: Adobe Illustrator 16.0.0, SVG Export Plug-In . SVG Version: 6.00 Build 0)  -->
<!DOCTYPE svg PUBLIC "-//W3C//DTD SVG 1.0//EN" "http://www.w3.org/TR/2001/REC-SVG-20010904/DTD/svg10.dtd">
<svg version="1.0" id="Layer_1" xmlns="http://www.w3.org/2000/svg" xmlns:xlink="http://www.w3.org/1999/xlink" x="0px" y="0px"
	 width="30px" height="30px" viewBox="0 0 30 30" enable-background="new 0 0 30 30" xml:space="preserve">
<g>
	<path fill="#FFFFFF" d="M1.4,25.928c0-0.91-0.021-2.27-0.061-4.074c-0.045-1.809-0.064-3.139-0.064-3.99
		c0-1.682,0.045-3.128,0.15-4.336c0.096-1.21,0.316-2.446,0.658-3.714c0.344-1.267,0.812-2.29,1.41-3.072
		c0.596-0.783,1.408-1.424,2.434-1.92c1.023-0.498,2.248-0.749,3.668-0.749l2.734,5.465c-1.963,0-3.365,0.43-4.205,1.28
		c-0.84,0.854-1.256,2.249-1.256,4.186h5.461v10.925H1.4z M17.793,25.928c0-0.91-0.023-2.27-0.064-4.074
		c-0.045-1.809-0.064-3.139-0.064-3.99c0-1.682,0.053-3.128,0.152-4.336c0.096-1.21,0.32-2.446,0.66-3.714
		c0.34-1.267,0.811-2.29,1.41-3.072c0.598-0.783,1.408-1.424,2.434-1.92c1.021-0.498,2.248-0.749,3.67-0.749l2.734,5.465
		c-1.967,0-3.367,0.43-4.211,1.28c-0.836,0.854-1.254,2.249-1.254,4.186h5.465v10.925H17.793z"/>
</g>
<g>
</g>
<g>
</g>
<g>
</g>
<g>
</g>
<g>
</g>
<g>
</g>
<g>
</g>
<g>
</g>
<g>
</g>
<g>
</g>
<g>
</g>
<g>
</g>
<g>
</g>
<g>
</g>
<g>
</g>
</svg>
